<?xml version="1.0" encoding="UTF-8"?>
<!DOCTYPE svg PUBLIC "-//W3C//DTD SVG 1.1//EN" "http://www.w3.org/Graphics/SVG/1.1/DTD/svg11.dtd">
<!-- Creator: CorelDRAW -->
<svg xmlns="http://www.w3.org/2000/svg" xml:space="preserve" width="28.319mm" height="30.4651mm" style="shape-rendering:geometricPrecision; text-rendering:geometricPrecision; image-rendering:optimizeQuality; fill-rule:evenodd; clip-rule:evenodd"
viewBox="0 0 5.55243 5.97321"
 xmlns:xlink="http://www.w3.org/1999/xlink">
 <defs>
  <style type="text/css">
   <![CDATA[
    .fil2 {fill:#495677}
    .fil0 {fill:#AAA9A9}
    .fil1 {fill:#E77817}
   ]]>
  </style>
 </defs>
 <g id="图层_x0020_1">
  <metadata id="CorelCorpID_0Corel-Layer"/>
  <g id="_237383600">
   <circle id="_237384416" class="fil0" cx="2.76651" cy="0.623911" r="0.623914"/>
   <circle id="_237384368" class="fil0" cx="2.76651" cy="5.34929" r="0.623914"/>
   <circle id="_237384008" class="fil1" cx="2.76586" cy="2.97388" r="0.623914"/>
   <circle id="_237383672" class="fil0" cx="0.623898" cy="2.97388" r="0.623914"/>
   <circle id="_237383504" class="fil0" cx="4.92849" cy="2.97388" r="0.623914"/>
   <path id="_237383432" class="fil2" d="M1.08676 1.51972c0.0526049,-0.294474 0.31012,-0.518108 0.61971,-0.518108 0.347647,0 0.629573,0.281925 0.629573,0.629533 0,0.165736 -0.0605848,0.329393 -0.138012,0.473424 0,0 -0.362039,0.559929 -0.308943,0.931634 0.0530951,0.371685 0.202773,0.690275 0.289631,0.796465 0.097171,0.118719 0.157325,0.304316 0.157325,0.457759 0,0.312335 -0.227575,0.571654 -0.525912,0.621083 -0.0738782,0.0122346 -0.159324,0.0146462 -0.231987,-0.00462719 -0.424094,-0.0878382 -0.619201,-0.568498 -0.42178,-0.922635 0.0675452,-0.142051 0.186637,-0.389174 0.240359,-0.479816 0.077231,-0.130346 0.159305,-0.627533 0.101367,-0.801308 -0.0506834,-0.15205 -0.175284,-0.359548 -0.30265,-0.583654 -0.0987788,-0.173814 -0.144168,-0.401056 -0.10868,-0.599751z"/>
   <path id="_237383336" class="fil1" d="M3.2529 1.54054c0.0526049,-0.294474 0.3101,-0.518108 0.619691,-0.518108 0.347647,0 0.629573,0.281925 0.629573,0.629533 0,0.165736 -0.0605848,0.329413 -0.138012,0.473424 0,0 -0.362039,0.559949 -0.308924,0.931634 0.0530951,0.371685 0.202753,0.690275 0.289611,0.796465 0.097171,0.118719 0.157325,0.304316 0.157325,0.457759 0,0.312335 -0.227575,0.571654 -0.525912,0.621083 -0.0738586,0.0122542 -0.159324,0.0146658 -0.231987,-0.00460758 -0.424094,-0.0878578 -0.619201,-0.568517 -0.42178,-0.922654 0.0675452,-0.142051 0.186637,-0.389174 0.240379,-0.479816 0.077231,-0.130326 0.159285,-0.627533 0.101367,-0.801308 -0.0506834,-0.15205 -0.175304,-0.359529 -0.302669,-0.583654 -0.0987592,-0.173814 -0.144168,-0.401056 -0.108661,-0.599751z"/>
  </g>
 </g>
</svg>
