<?xml version="1.0" encoding="UTF-8"?>
<!DOCTYPE svg PUBLIC "-//W3C//DTD SVG 1.1//EN" "http://www.w3.org/Graphics/SVG/1.1/DTD/svg11.dtd">
<!-- Creator: CorelDRAW -->
<svg xmlns="http://www.w3.org/2000/svg" xml:space="preserve" width="76.8379mm" height="16.2382mm" style="shape-rendering:geometricPrecision; text-rendering:geometricPrecision; image-rendering:optimizeQuality; fill-rule:evenodd; clip-rule:evenodd"
viewBox="0 0 31.9456 6.75108"
 xmlns:xlink="http://www.w3.org/1999/xlink">
 <defs>
  <style type="text/css">
   <![CDATA[
    .fil3 {fill:#383431}
    .fil2 {fill:#495677}
    .fil0 {fill:#AAA9A9}
    .fil1 {fill:#E77817}
    .fil4 {fill:#383431;fill-rule:nonzero}
   ]]>
  </style>
 </defs>
 <g id="图层_x0020_1">
  <metadata id="CorelCorpID_0Corel-Layer"/>
  <g id="_237382664">
   <g>
    <circle id="_237383264" class="fil0" cx="3.12678" cy="0.705164" r="0.705163"/>
    <circle id="_237383144" class="fil0" cx="3.12678" cy="6.04591" r="0.705163"/>
    <circle id="_237383288" class="fil1" cx="3.12605" cy="3.36116" r="0.705163"/>
    <circle id="_237383648" class="fil0" cx="0.705152" cy="3.36116" r="0.705163"/>
    <circle id="_237383048" class="fil0" cx="5.5703" cy="3.36116" r="0.705163"/>
    <path id="_237383408" class="fil2" d="M1.2283 1.71764c0.0594527,-0.332852 0.35048,-0.585588 0.700378,-0.585588 0.392928,0 0.711561,0.318633 0.711561,0.71152 0,0.187297 -0.0684745,0.372307 -0.155949,0.535074 0,0 -0.409184,0.632859 -0.349191,1.05294 0.0600347,0.420077 0.229163,0.780161 0.327364,0.900189 0.1098,0.134205 0.177776,0.343953 0.177776,0.517363 0,0.353016 -0.257185,0.646122 -0.594361,0.701957 -0.0835248,0.0138446 -0.180104,0.0165885 -0.262215,-0.00519691 -0.479322,-0.0992818 -0.699837,-0.642546 -0.476702,-1.04279 0.0763323,-0.160564 0.210953,-0.439867 0.271653,-0.542308 0.0873081,-0.147301 0.180063,-0.709233 0.114582,-0.905635 -0.0572908,-0.171872 -0.198106,-0.406399 -0.342082,-0.659675 -0.11163,-0.196443 -0.162934,-0.453296 -0.122813,-0.677844z"/>
    <path id="_237383168" class="fil1" d="M3.6765 1.74117c0.0594527,-0.33281 0.35048,-0.585588 0.700378,-0.585588 0.392928,0 0.711561,0.318633 0.711561,0.71152 0,0.187338 -0.0684745,0.372307 -0.155949,0.535074 0,0 -0.409184,0.632859 -0.349191,1.05294 0.0600347,0.420118 0.229163,0.780161 0.327364,0.900189 0.1098,0.134205 0.177776,0.343953 0.177776,0.517405 0,0.352974 -0.257185,0.64608 -0.594361,0.701957 -0.0835248,0.013803 -0.180104,0.016547 -0.262215,-0.00523849 -0.479322,-0.0992818 -0.699837,-0.642546 -0.476702,-1.04279 0.0763323,-0.160564 0.210953,-0.439867 0.271653,-0.542308 0.0873081,-0.147301 0.180063,-0.709233 0.114582,-0.905635 -0.0572908,-0.171872 -0.198106,-0.406357 -0.342082,-0.659675 -0.11163,-0.196443 -0.162934,-0.453296 -0.122813,-0.677844z"/>
   </g>
   <path id="_237382424" class="fil3" d="M13.7709 2.59451c0.000415753,0.0286454 0.0070678,0.0545468 0.0200393,0.07812 0.0129299,0.0231159 0.0301837,0.0419495 0.0518028,0.0557109 0.0215776,0.0141356 0.0454834,0.0211618 0.0718006,0.0215776l0.461486 0c0.0156739,0.000374178 0.0302252,0.00432383 0.042781,0.0125557 0.0129299,0.00823191 0.0231574,0.0192494 0.0305994,0.0329692 0.00744198,0.0133457 0.0113916,0.0278555 0.0113916,0.0439451l0 0.558024c-0.000415753,0.0262756 -0.00864766,0.0482689 -0.0247373,0.0651485 -0.0156739,0.0172538 -0.0357132,0.0259014 -0.0600347,0.0266913l-0.235441 0 0 0.134205 0.492085 0c0.0278555,-0.000415753 0.0529669,-0.00748356 0.0749187,-0.0212034 0.0224091,-0.0137199 0.040037,-0.0321793 0.0533827,-0.0557109 0.0129715,-0.0239474 0.0196235,-0.0506387 0.0200393,-0.080864l0 -0.692229c-0.000415753,-0.0293937 -0.0070678,-0.0557109 -0.0200393,-0.0796583 -0.0133457,-0.0235316 -0.0309736,-0.0423652 -0.0533827,-0.0565008 -0.0219518,-0.0141356 -0.0470632,-0.0211618 -0.0749187,-0.0215776l-0.459158 0c-0.0152581,0 -0.0290196,-0.00432383 -0.0419911,-0.0121816 -0.0125142,-0.00781616 -0.0227417,-0.0188336 -0.0305994,-0.0321793 -0.00781616,-0.0133041 -0.0117658,-0.0286454 -0.01214,-0.0451092l0 -0.713432c0.000374178,-0.0160896 0.00432383,-0.0305994 0.01214,-0.0439451 0.00785773,-0.0137199 0.0180853,-0.0247373 0.0305994,-0.0329692 0.0129715,-0.00823191 0.0267329,-0.0121816 0.0419911,-0.0125557l0.176612 0c0.0149255,0.000374178 0.0290611,0.00432383 0.0412011,0.0125557 0.0125557,0.00823191 0.0223675,0.0192494 0.0298095,0.0329692 0.00748356,0.0133457 0.0113916,0.0278555 0.0113916,0.0439451l0 0.508591c-0.000374178,0.0251115 -0.00744198,0.0443609 -0.0207877,0.0584549 -0.0137199,0.0141356 -0.0318051,0.0212034 -0.0545468,0.0215776l-0.044735 0 0 0.138945 0.291942 0c0.0271071,-0.000415753 0.0514287,-0.00785773 0.0733804,-0.0219933 0.0219933,-0.0145098 0.0396628,-0.0337591 0.0525928,-0.0580807 0.0129715,-0.0239474 0.0196235,-0.0505971 0.0200393,-0.080074l0 -0.633358c-0.000415753,-0.0293937 -0.0070678,-0.0557109 -0.0200393,-0.0796583 -0.0129299,-0.0235316 -0.0305994,-0.0423652 -0.0525928,-0.0565008 -0.0219518,-0.0141356 -0.0462733,-0.0212034 -0.0733804,-0.0215776l-0.240139 0 0.044735 -0.204842 -0.343786 0 -0.044735 0.204842 -0.105934 0c-0.0263172,0.000374178 -0.050223,0.00744198 -0.0718006,0.0215776 -0.0216192,0.0141356 -0.0388729,0.0329692 -0.0518028,0.0565008 -0.0129715,0.0239474 -0.0196235,0.0502645 -0.0200393,0.0796583l0 0.847637zm-0.699297 1.02895l0.666369 -0.0541726 0 -0.134205 -0.169544 0.0141356 0 -1.68871 -0.327281 0 0 1.71461 -0.169544 0.0141356 0 0.134205zm0.633358 -1.90718l0 -0.136575 -0.600389 0 0 0.136575c0.200144,0 0.400245,0 0.600389,0zm-0.816996 1.90718c0.0345491,-0.0851462 0.0647328,-0.174658 0.0914241,-0.267662 0.0262756,-0.093004 0.0486847,-0.19108 0.0675183,-0.294312 0.018792,-0.103564 0.0341333,-0.213863 0.0458991,-0.330399l-0.343745 0c-0.0125973,0.112628 -0.0274813,0.218561 -0.0455665,0.318259 -0.0180437,0.099656 -0.0399954,0.19661 -0.0658969,0.290362 -0.0254857,0.0942096 -0.0557109,0.188378 -0.0910499,0.283751l0.341416 0zm0.202472 -1.06192l-0.122439 -0.534451 -0.346114 0 0.124809 0.534451 0.343745 0zm-0.0305994 -0.680463l-0.120069 -0.496783 -0.346114 0 0.122439 0.496783 0.343745 0zm1.34209 0.426188l-0.035339 -0.428517 -0.240139 0 0.0329276 0.428517 0.24255 0zm-0.0494746 0.845268l0 -0.134205 -0.576816 0 0 0.134205 0.576816 0zm1.45751 0.36025l-0.070678 0c-0.0141356,-0.000374178 -0.0254857,-0.00432383 -0.0340918,-0.0125557 -0.00827349,-0.00823191 -0.0125973,-0.0188336 -0.0129715,-0.0321793l0 -0.433215 0.113002 0 0 -0.134247 -0.113002 0 0 -0.261342 0.145971 0 0 0.828804c0.000374178,0.0302252 0.00785773,0.0569166 0.0223675,0.0808224 0.0145098,0.0235732 0.0341333,0.0419911 0.0588706,0.0557525 0.0247373,0.0137199 0.0525928,0.0207877 0.0835664,0.0211618l0.247248 0 0 -0.113002 -0.108304 0c-0.0133457,-0.000374178 -0.0239474,-0.00432383 -0.0321793,-0.0125557 -0.00827349,-0.00823191 -0.0121816,-0.0188336 -0.0125557,-0.0321793l0 -0.322583 0.0611988 0c0.0349233,-0.0537569 0.0627787,-0.106724 0.0839821,-0.158527 0.0207877,-0.0518028 0.0376672,-0.104396 0.050223,-0.156947l-0.141273 0c-0.00590369,0.0282296 -0.0133457,0.0560851 -0.0227417,0.0831922 -0.00906342,0.0274397 -0.0196235,0.0545052 -0.0313894,0.0816123l0 -0.355552 0.00939602 0c0.0294353,-0.000374178 0.0565008,-0.00744198 0.0816539,-0.0215776 0.0246957,-0.0137199 0.0446935,-0.032595 0.059619,-0.0557109 0.0152997,-0.0235732 0.0231574,-0.0494746 0.0235732,-0.0780784l0 -0.402657c-0.000415753,-0.0302252 -0.00827349,-0.0572908 -0.0235732,-0.0812381 -0.0149255,-0.0239058 -0.0349233,-0.0431552 -0.059619,-0.0572492 -0.0251531,-0.0141356 -0.0522186,-0.0212034 -0.0816539,-0.0216192l-0.0965379 0 0 -0.270738 0.235441 0 0 -0.134247 -0.313145 0 0 -0.131835 -0.331979 0 0 0.131835 -0.372016 0c-0.0286454,0.000415753 -0.0545468,0.00785773 -0.0780784,0.0219933 -0.0231574,0.0145098 -0.0419911,0.0337591 -0.0557109,0.0580807 -0.0141356,0.0239474 -0.0212034,0.0505971 -0.0216192,0.0800325l0 1.29973c0,0.0761244 -0.000789931,0.144391 -0.00274397,0.204467 -0.00195404,0.0604089 -0.00548794,0.11533 -0.00981177,0.165594 -0.00469801,0.0498072 -0.0106017,0.097702 -0.0180437,0.142811 -0.00785773,0.0451508 -0.0172538,0.0910499 -0.0282712,0.136949l0.266082 0c0.0176695,-0.0702207 0.0310152,-0.138903 0.040037,-0.206796 0.00864766,-0.0674767 0.0145098,-0.137365 0.0172538,-0.20954 0.00274397,-0.0722163 0.00432383,-0.149921 0.00390808,-0.233487l0 -0.336718 0.0895116 0 0 0.828804c0.000374178,0.0302252 0.00744198,0.0569166 0.0215776,0.0808224 0.014094,0.0235732 0.0333434,0.0419911 0.0572908,0.0557525 0.0239474,0.0137199 0.0510129,0.0207877 0.0812381,0.0211618l0.218977 0 0 -0.113002zm0.494455 -0.470923l0 -0.134205 0.0847305 0 0 -1.09568 0.277848 0 0 0.248038 0.202472 0 0 -0.248038 0.27552 0 0 1.09568 0.0752929 0 0 0.134205 -0.915862 0zm0 -1.27378l0 -0.134205 0.0847305 0 0 -0.237811 0.277848 0 0 0.237811 0.202472 0 0 -0.237811 0.27552 0 0 0.237811 0.0752929 0 0 0.134205c-0.305287,0 -0.610617,0 -0.915862,0zm0.932368 1.85064c-0.0251115,-0.0772885 -0.0466891,-0.156947 -0.0651485,-0.238559 -0.0188336,-0.0820281 -0.0321793,-0.167964 -0.0407854,-0.258224l-0.301379 0c0.0125142,0.084772 0.0278555,0.168338 0.0454834,0.251156 0.0176695,0.0824023 0.0396628,0.16443 0.0651485,0.245627l0.296681 0zm-0.939436 0c0.0251115,-0.0772885 0.0466891,-0.156947 0.0655227,-0.238559 0.0188336,-0.0820281 0.0329276,-0.167964 0.0427394,-0.258224l0.299051 0c-0.0117658,0.084772 -0.0266913,0.168338 -0.044735,0.251156 -0.0180437,0.0824023 -0.040037,0.16443 -0.0659384,0.245627l-0.29664 0zm0.369646 -0.711062l0.202472 0 0 -0.291942 -0.202472 0 0 0.291942zm0 -0.428517l0.202472 0 0 -0.282546 -0.202472 0 0 0.282546zm-1.32563 -0.421449l0.105975 0 0 0.445022 -0.105975 0 0 -0.445022zm0.355552 0l0.0635686 0 0 0.445022 -0.0635686 0 0 -0.445022zm-0.355552 -0.339047c0.000415753,-0.0192494 0.00669362,-0.035339 0.0188336,-0.0482689 0.0121816,-0.0129715 0.0278555,-0.0196235 0.0471048,-0.0199977l0.040037 0 0 0.270738 -0.105975 0 0 -0.202472zm0.685203 0.339047c0.0133457,0.000374178 0.0243216,0.00469801 0.0333434,0.0133457 0.00860609,0.00864766 0.0133457,0.0192078 0.0137199,0.0313894l0 0.355552c-0.000374178,0.0133041 -0.00511376,0.0239058 -0.0137199,0.0321377 -0.00902184,0.00827349 -0.0199977,0.0121816 -0.0333434,0.0125973l-0.0165054 0 0 -0.445022 0.0165054 0zm-0.329651 -0.407313l0.0635686 0 0 0.270738 -0.0635686 0 0 -0.270738zm1.77298 -0.0259014l0.29664 0 0 0.348443 -0.29664 0 0 0.131877 0.111796 0 0 -0.000665205 0.794421 0 0 0.000665205 0.0238227 0 0 -0.131877 -0.296681 0 0 -0.348443 0.0541726 0c0.0855204,0 0.153413,-0.0204135 0.204426,-0.0608662 0.0506387,-0.0404112 0.0867261,-0.100446 0.108719,-0.179314l-0.400287 0c-0.0196235,0.0365031 -0.0458991,0.0631529 -0.0788684,0.0804482 -0.032595,0.0172538 -0.0729647,0.0255272 -0.121275,0.0255272l-0.400245 0 0 0.134205zm0.29664 0.523558l0 1.47775 0.336718 0 0 -1.47775 -0.336718 0zm1.70704 1.47305l0 -0.633358 0.226045 -0.0259014 0 -0.134205 -0.226045 0.0259014 0 -1.46923 -0.346114 0 0 1.50923 -0.649822 0.0730062 0 0.136575 0.649822 -0.0753345 0 0.593321 0.346114 0zm-1.10191 0.00469801l0 -1.43626 -0.200102 0 0 1.43626 0.200102 0zm-0.703995 0c0.014884,-0.0953322 0.0239474,-0.190706 0.0278555,-0.28608 0.00390808,-0.0953322 0.00548794,-0.190706 0.00511376,-0.286038l0 -0.864143 -0.200144 0 0 0.859403c0.000374178,0.0965379 -0.00120568,0.192702 -0.00469801,0.288449 -0.00357548,0.0957479 -0.0121816,0.191912 -0.0259014,0.288408l0.197774 0zm0.871169 -2.06962l0.169544 0.454418 0.334349 0 -0.17894 -0.454418 -0.324953 0zm-0.0235316 0.649864l0.167174 0.44972 0.331979 0 -0.17657 -0.44972 -0.322583 0zm2.27209 0.27078c0.070678,0.122024 0.143643,0.236231 0.218603,0.342539 0.075376,0.106391 0.152249,0.206421 0.231159,0.300215 -0.0839821,0.0887217 -0.169544,0.175032 -0.25706,0.259804 -0.0871003,0.084772 -0.173452,0.16601 -0.258598,0.244089l0.463856 0c0.0415753,-0.0424068 0.0843563,-0.0863519 0.129091,-0.131835 0.044735,-0.0455665 0.0894701,-0.0918399 0.134579,-0.138945 0.0459407,0.0459407 0.0926298,0.0918399 0.139693,0.136949 0.0475206,0.045525 0.0957895,0.09026 0.145223,0.133831l0.426147 0c-0.0874744,-0.0780784 -0.173826,-0.158942 -0.259347,-0.242509 -0.0859362,-0.0839821 -0.168754,-0.169544 -0.249202,-0.256644 0.0655227,-0.0769559 0.127927,-0.155408 0.187172,-0.235483 0.0596606,-0.0800325 0.114207,-0.160855 0.164056,-0.242509 0.049433,-0.0816123 0.0925882,-0.163266 0.129091,-0.244879 0.0101859,-0.0251115 0.0125557,-0.0498072 0.0070678,-0.0745445 -0.00548794,-0.0247373 -0.0192494,-0.045525 -0.0416169,-0.0619888 -0.0227417,-0.0165054 -0.054131,-0.0251115 -0.094958,-0.025943l-0.390849 0 0 -0.416709 0.548586 0 0 -0.134205 -0.548586 0 0 -0.303749 -0.36025 0 0 0.303749 -0.541518 0 0 0.134205 0.541518 0 0 0.416709 -0.496783 0 0 0.134247 0.965337 0c0.00981177,0 0.0180437,0.00274397 0.0251115,0.00744198 0.00748356,0.00511376 0.0121816,0.0121816 0.0141356,0.0212034 0.00195404,0.00902184 -0.000374178,0.0199977 -0.00627787,0.0325535 -0.0392471,0.0741703 -0.0851462,0.148715 -0.137323,0.224091 -0.0525928,0.0749187 -0.109509,0.150295 -0.171124,0.225629 -0.0577065,-0.0698465 -0.111838,-0.138945 -0.161686,-0.207211 -0.0498072,-0.0686824 -0.094958,-0.135369 -0.134995,-0.200102l-0.36025 0zm-0.854664 0.515617l0.157737 -0.0329692 0 0.435584c-0.000374178,0.0172953 -0.00432383,0.0329692 -0.0129299,0.0466891 -0.00823191,0.0137614 -0.0196235,0.0247373 -0.0337591,0.0329692 -0.0141356,0.00785773 -0.0298095,0.0121816 -0.047479,0.0121816l-0.0471048 0 0 0.134205 0.327281 0c0.0302252,-0.000415753 0.0577065,-0.00744198 0.0824438,-0.0215776 0.0246957,-0.0137614 0.044735,-0.032595 0.059619,-0.0557109 0.0149255,-0.0235732 0.0223675,-0.049433 0.0227417,-0.07812l0 -0.579186 0.15308 -0.0329692 0 -0.134205 -0.15308 0.0329276 0 -0.606417 -0.350812 0 0 0.679424 -0.157737 0.0329692 0 0.134205zm0.661629 -0.890501l0 -0.133706 -0.15308 0 0 -0.583925 -0.350812 0 0 0.583925 -0.157737 0 0 0.133706 0.661629 0zm1.86478 -0.282047l0.428517 0 0 0 0.386151 0 0 0 1.34679 0 0 -0.134205 -1.30912 0c0.0129715,-0.0471048 0.0255272,-0.094958 0.037293,-0.143227 0.01214,-0.0482689 0.0239474,-0.0969536 0.0357132,-0.146387l-0.386151 0c-0.0106017,0.049433 -0.0223675,0.0981177 -0.0345491,0.146387 -0.0125557,0.0482689 -0.0254857,0.0961221 -0.0384156,0.143227l-0.466225 0 0 0.134205zm0.414797 0.0439035c-0.0349233,0.110133 -0.0735883,0.218645 -0.116577,0.325368 -0.0486431,0.121234 -0.102816,0.242135 -0.163225,0.363368 -0.0604505,0.120859 -0.127137,0.244089 -0.200933,0.369272l0.402657 0c0.0164638,-0.0270655 0.0325535,-0.0545468 0.0478532,-0.0824023 0.0156739,-0.0278555 0.0310152,-0.0553367 0.0463149,-0.0824023l0 0.868799 0.355552 0 0 -0.44498 0.878237 0 0 0.221305c-0.000789931,0.0255272 -0.00943759,0.0463149 -0.0263172,0.0631945 -0.0168796,0.0168796 -0.0376672,0.0254857 -0.0631945,0.0263172l-0.218936 0 0 0.134164 0.510919 0c0.0294353,-0.000374178 0.0557109,-0.00744198 0.0788684,-0.0215776 0.0235316,-0.0137199 0.0419911,-0.0325535 0.0557109,-0.0557109 0.0133872,-0.0235316 0.0204135,-0.049433 0.0208292,-0.0780784l0 -1.19612c-0.000415753,-0.0294353 -0.00744198,-0.0557109 -0.0208292,-0.0788684 -0.0137199,-0.0235732 -0.0321793,-0.0419911 -0.0557109,-0.0557109 -0.0231574,-0.0133457 -0.049433,-0.0204135 -0.0788684,-0.0208292l-1.15139 0c0.0176695,-0.0482274 0.0349233,-0.097702 0.0514287,-0.147925 0.0117242,-0.0354222 0.0230327,-0.0712601 0.0340918,-0.107181l-0.386484 0zm0.371642 0.841401l0.878237 0 0 0.341416 -0.878237 0 0 -0.341416zm0 -0.362578c0.000748356,-0.0255272 0.00939602,-0.0463149 0.0262756,-0.0631945 0.016838,-0.0168796 0.0376672,-0.0254857 0.0631529,-0.0263172l0.699297 0c0.0255272,0.000831506 0.0463149,0.00943759 0.0631945,0.0263172 0.0168796,0.0168796 0.0255272,0.0376672 0.0263172,0.0631945l0 0.228373 -0.878237 0 0 -0.228373zm3.56005 0.423777c-0.00590369,0.0271071 -0.0125973,0.0541726 -0.0196651,0.080864 -0.00744198,0.0270655 -0.0156739,0.0533411 -0.0251115,0.0792425 -0.0164638,-0.0505971 -0.0317635,-0.102026 -0.0462733,-0.153829 -0.0102275,-0.0375009 -0.0202472,-0.0751682 -0.0299342,-0.113251l-0.350022 0c0.0285207,0.104978 0.0591617,0.208126 0.0918814,0.309487 0.0369189,0.114956 0.0777458,0.226793 0.122439,0.335139 0.0451508,0.108304 0.0953738,0.212658 0.15071,0.312355l0.35551 0c-0.0305994,-0.0588706 -0.0600347,-0.1177 -0.0878902,-0.176986 -0.0282296,-0.0588706 -0.0545052,-0.118531 -0.0792425,-0.178566 0.0376672,-0.0788684 0.0706364,-0.160107 0.099656,-0.242883 0.0286454,-0.082818 0.0533827,-0.1668 0.0745445,-0.251572l-0.256603 0zm0.0724658 -0.150877c0.0275229,-0.00124726 0.0520939,-0.00827349 0.0742951,-0.0213697 0.0235316,-0.0141356 0.0419911,-0.0329692 0.0557109,-0.0565008 0.0137614,-0.0239474 0.0207877,-0.0502645 0.0212034,-0.0796583l0 -0.84057c-0.000415753,-0.028687 -0.00744198,-0.0545884 -0.0212034,-0.0773301 -0.0137199,-0.0231574 -0.0321793,-0.0412011 -0.0557109,-0.054921 -0.0239474,-0.0133457 -0.0506387,-0.0204135 -0.080864,-0.0207877l-0.859403 0c-0.0294353,0.000374178 -0.0557109,0.00744198 -0.0796583,0.0207877 -0.0235316,0.0137199 -0.0423652,0.0317635 -0.0565008,0.054921 -0.0141356,0.0227417 -0.0212034,0.0486431 -0.0215776,0.0773301l0 1.85301c0.000374178,0.0278555 0.00744198,0.0533411 0.0215776,0.0761244 0.0141356,0.0231159 0.0329692,0.0415753 0.0565008,0.0557109 0.0239474,0.0137199 0.050223,0.0207877 0.0796583,0.0212034l0.38848 0 0 -0.131835 -0.0988661 -0.00236979c-0.0160896,-0.000789931 -0.0305994,-0.00552952 -0.0439451,-0.0133457 -0.0137199,-0.00785773 -0.0247373,-0.0184594 -0.0329692,-0.0313894 -0.00823191,-0.0133457 -0.0121816,-0.0282712 -0.0125557,-0.044735l0 -0.784069 0.0269408 0 0 -0.000207877 0.638888 0zm-1.65004 1.01265l0 -2.07906 0.103606 0c0.0168796,0 0.0318051,0.00432383 0.044735,0.0121816 0.0133457,0.00785773 0.0231574,0.0188336 0.0298511,0.0321793 0.00665205,0.0133457 0.00823191,0.0286454 0.00548794,0.0451092l-0.084772 0.678135 -0.0588706 0 0 0.134205 0.0894701 0c0.0239474,-0.000415753 0.040037,0.00390808 0.0478948,0.0133041 0.00781616,0.00902184 0.0117658,0.0259014 0.0109759,0.0502645l0 0.638056c0.000789931,0.0243216 -0.00315972,0.0416169 -0.0109759,0.0514287 -0.00785773,0.0101859 -0.0239474,0.014884 -0.0478948,0.0145098l-0.0847305 0 0 0.134205 0.324911 0c0.0302252,-0.000374178 0.0572908,-0.00744198 0.0812381,-0.0215776 0.0239474,-0.0141356 0.0431552,-0.0329692 0.0572908,-0.0565424 0.014094,-0.0239058 0.0211618,-0.0501814 0.0215776,-0.0796167l0 -0.72287c-0.000415753,-0.0310152 -0.00902184,-0.0588706 -0.0259014,-0.0839821 -0.0168796,-0.0246957 -0.0396628,-0.0439451 -0.0682667,-0.0572908l0.101236 -0.760495c0.00274397,-0.0294353 -0.00278555,-0.0557525 -0.0168796,-0.0796583 -0.0137614,-0.0235316 -0.0333434,-0.0423652 -0.0580807,-0.0565008 -0.0251115,-0.0141356 -0.0525928,-0.0212034 -0.082818,-0.0216192l-0.736964 0 0 2.21563 0.35788 0zm1.441 -1.63873l-0.456788 0 0 -0.308447c0.000374178,-0.0165054 0.00432383,-0.0318051 0.0125557,-0.0451508 0.00823191,-0.0133457 0.0192494,-0.0243216 0.0329692,-0.0321793 0.0133457,-0.00785773 0.0278555,-0.01214 0.0439451,-0.01214l0.275478 0c0.0168796,0.000374178 0.0318051,0.00469801 0.0458991,0.0133041 0.0137614,0.00864766 0.0247373,0.0204135 0.0329692,0.0345491 0.00864766,0.0141356 0.0125973,0.0294353 0.0129715,0.0463149l0 0.303749zm-0.456788 0.492085l0 -0.35788 0.456788 0 0 0.270738c-0.000374178,0.0160896 -0.00432383,0.0302252 -0.0129715,0.0435709 -0.00823191,0.0129715 -0.0192078,0.0235316 -0.0329692,0.0313894 -0.014094,0.00785773 -0.0290196,0.0117658 -0.0458991,0.0121816l-0.364948 0zm1.4763 0.0518028c0.0686824,-0.107514 0.132625,-0.221721 0.191496,-0.342581 0.0584549,-0.120485 0.113417,-0.247248 0.164805,-0.379874 0.0514287,-0.133041 0.100862,-0.271154 0.147592,-0.414797l-0.346114 0c-0.0710522,0.215817 -0.150336,0.418705 -0.238227,0.609037 -0.0883059,0.190748 -0.18289,0.366528 -0.2845,0.528214l0.364948 0zm1.84125 0c-0.101652,-0.161686 -0.196235,-0.337467 -0.284126,-0.528214 -0.0883059,-0.190332 -0.167548,-0.393219 -0.238601,-0.609037l-0.346114 0c0.047479,0.143643 0.0973278,0.281756 0.149131,0.414797 0.0514287,0.132625 0.10635,0.259388 0.164846,0.379874 0.0584549,0.120859 0.122024,0.235067 0.189916,0.342581l0.364948 0zm-0.560394 0.875867c0.00236979,0.0070678 0.00315972,0.0141356 0.00195404,0.0212034 -0.000748356,0.0070678 -0.00311815,0.0141356 -0.00665205,0.0212034 -0.00469801,0.00586212 -0.0106017,0.0105601 -0.0168796,0.0137199 -0.00669362,0.0035339 -0.0137199,0.00511376 -0.0207877,0.00511376l-1.00774 0c-0.00586212,0 -0.0121816,-0.00157986 -0.0184594,-0.00511376 -0.00627787,-0.00315972 -0.01214,-0.00785773 -0.016838,-0.0137199 -0.00473958,-0.00627787 -0.00748356,-0.0129715 -0.00864766,-0.0200393 -0.000789931,-0.00744198 0.000374178,-0.014094 0.00390808,-0.0199977l0.522726 -1.13488 -0.355552 0 -0.546258 1.17962c-0.00702623,0.0176695 -0.00939602,0.035339 -0.00744198,0.052177 0.00236979,0.0168796 0.00860609,0.032595 0.0192494,0.0466891 0.0235316,0.0329692 0.054131,0.0494746 0.0917983,0.0494746l1.63877 0c0.0376672,0 0.0682667,-0.0165054 0.0917983,-0.0494746 0.0106017,-0.0152997 0.0165054,-0.0317635 0.0180437,-0.0490173 0.00120568,-0.0168796 -0.00153829,-0.0345491 -0.00860609,-0.0522186l-0.271196 -0.649739 -0.361123 0 0.257933 0.605004zm2.97613 -1.79177c-0.000374178,-0.0294353 -0.00744198,-0.0557525 -0.0207877,-0.0796999 -0.0137199,-0.0235316 -0.0322209,-0.0422821 -0.0557109,-0.0565008 -0.023199,-0.0140109 -0.0494746,-0.0215776 -0.0788684,-0.0215776l-1.94556 0 0 0.134205 1.65357 0c0.0255272,0 0.0463149,0.00943759 0.0631945,0.0263172 0.016838,0.016838 0.0254857,0.0376672 0.0262756,0.0631529l0 1.71174c-0.000789931,0.0255272 -0.00939602,0.0463149 -0.0262756,0.0631945 -0.0168796,0.0168796 -0.0377088,0.0254857 -0.0631945,0.0263172l-0.289614 0 0 0.134164 0.581597 0c0.0294353,-0.000374178 0.0557109,-0.00781616 0.0788684,-0.0219518 0.0235316,-0.0145098 0.0419911,-0.0333434 0.0557109,-0.0572908 0.0133457,-0.0235732 0.0204135,-0.0498488 0.0207877,-0.0784942l0 -1.84357zm-2.11435 0.35788l1.50923 0 0 -0.134205 -1.50923 0 0 0.134205zm0.0706364 1.22905c0.000374178,0.0286454 0.00744198,0.0549626 0.0207877,0.0784942 0.0137614,0.0239474 0.0321793,0.042781 0.0557525,0.0572908 0.0231574,0.0141356 0.049433,0.0215776 0.0788684,0.0219933l1.03834 0c0.0286454,-0.000415753 0.0545468,-0.00785773 0.0780784,-0.0219933 0.0231574,-0.0145098 0.0419911,-0.0333434 0.0557525,-0.0572908 0.014094,-0.0235316 0.0211618,-0.0498488 0.0215776,-0.0784942l0 -0.821736c-0.000415753,-0.0286454 -0.00748356,-0.0545468 -0.0215776,-0.0780784 -0.0137614,-0.0231574 -0.032595,-0.0419911 -0.0557525,-0.0557109 -0.0235316,-0.0141356 -0.049433,-0.0212034 -0.0780784,-0.0216192l-1.03834 0c-0.0294353,0.000415753 -0.0557109,0.00748356 -0.0788684,0.0216192 -0.0235732,0.0137199 -0.0419911,0.0325535 -0.0557525,0.0557109 -0.0133457,0.0235316 -0.0204135,0.049433 -0.0207877,0.0780784l0 0.821736zm0.993608 -0.0658969c-0.000789931,0.0254857 -0.00939602,0.0462733 -0.0262756,0.0631529 -0.0168796,0.0168796 -0.0377088,0.0255272 -0.0631945,0.0262756l-0.459116 0c-0.0255272,-0.000748356 -0.0463149,-0.00939602 -0.0631945,-0.0262756 -0.0168796,-0.0168796 -0.0255272,-0.0376672 -0.0262756,-0.0631529l0 -0.687531c0.000748356,-0.0255272 0.00939602,-0.0463149 0.0262756,-0.0631945 0.0168796,-0.0168796 0.0376672,-0.0255272 0.0631945,-0.0262756l0.459116 0c0.0254857,0.000748356 0.0463149,0.00939602 0.0631945,0.0262756 0.0168796,0.0168796 0.0254857,0.0376672 0.0262756,0.0631945l0 0.687531z"/>
   <path id="_237382712" class="fil4" d="M8.08694 2.27899c0.061573,-0.047479 0.116161,-0.0906342 0.164015,-0.129091 0.047479,-0.0384572 0.0910499,-0.0745861 0.130297,-0.108719 0.0392055,-0.0341333 0.0769143,-0.0682667 0.113376,-0.102816 0.0369189,-0.0349233 0.0749603,-0.0722163 0.114582,-0.112253 0.0396628,-0.0399954 0.0836079,-0.0851047 0.132251,-0.135743 0.0494746,0.0506387 0.0942096,0.0957479 0.134621,0.135743 0.040037,0.040037 0.0788684,0.0773301 0.115787,0.112253 0.0368773,0.0345491 0.0745445,0.0686824 0.113792,0.102816 0.0392471,0.0341333 0.082818,0.0702623 0.129881,0.108719 0.0475206,0.0384572 0.101652,0.0816123 0.16285,0.129091l0.44972 0c-0.0867261,-0.0753345 -0.164389,-0.143601 -0.233861,-0.204842 -0.0690566,-0.0611988 -0.132667,-0.11849 -0.190748,-0.171498 -0.0580807,-0.0533827 -0.113002,-0.10556 -0.165594,-0.156947 -0.0525928,-0.0514287 -0.10556,-0.10477 -0.158527,-0.160522 -0.0533827,-0.0553367 -0.109884,-0.116161 -0.169544,-0.182058l-0.372016 0c-0.059619,0.0658969 -0.116161,0.126722 -0.168754,0.182432 -0.0525928,0.0561682 -0.105144,0.109884 -0.157363,0.161312 -0.0518028,0.0518028 -0.106724,0.104396 -0.16443,0.157778 -0.0576649,0.0533411 -0.121649,0.110258 -0.19108,0.171457 -0.0698465,0.0608662 -0.148756,0.128343 -0.236647,0.202887l0.447392 0zm-0.21773 0.0918399l0.0293522 0 1.68351 0 0.0287285 0 0 0.152831 -1.74159 0 0 -0.152831zm-0.0248205 1.08782c0.000415753,0.0286454 0.00744198,0.0545052 0.0216192,0.0780784 0.014094,0.0231574 0.0329276,0.0419911 0.0565008,0.0557109 0.0239058,0.0141356 0.050223,0.0212034 0.0796583,0.0215776l1.47863 0c0.0294353,-0.000374178 0.0557525,-0.00744198 0.0789099,-0.0215776 0.0235316,-0.0137199 0.0419911,-0.0325535 0.0557109,-0.0557109 0.0133457,-0.0235732 0.0204135,-0.049433 0.0208292,-0.0780784l0 -0.668697c-0.000415753,-0.0286454 -0.00748356,-0.0545468 -0.0208292,-0.0780784 -0.0137199,-0.0231574 -0.0321793,-0.0420326 -0.0557109,-0.0557525 -0.0231574,-0.0141356 -0.0494746,-0.0212034 -0.0789099,-0.0215776l-1.47863 0c-0.0294353,0.000374178 -0.0557525,0.00744198 -0.0796583,0.0215776 -0.0235732,0.0137199 -0.0424068,0.032595 -0.0565008,0.0557525 -0.0141772,0.0235316 -0.0212034,0.049433 -0.0216192,0.0780784l0 0.668697zm1.43393 -0.0683082c-0.000789931,0.0255272 -0.00943759,0.0463149 -0.0263172,0.0631945 -0.016838,0.0168796 -0.0376257,0.0255272 -0.0631529,0.0262756l-0.89707 0c-0.0255272,-0.000748356 -0.0463149,-0.00939602 -0.0631945,-0.0262756 -0.0168796,-0.0168796 -0.0254857,-0.0376672 -0.0262756,-0.0631945l0 -0.534492c0.000789931,-0.0254857 0.00939602,-0.0462733 0.0262756,-0.0631529 0.0168796,-0.0168796 0.0376672,-0.0255272 0.0631945,-0.0263172l0.89707 0c0.0255272,0.000789931 0.0463149,0.00943759 0.0631529,0.0263172 0.0168796,0.0168796 0.0255272,0.0376672 0.0263172,0.0631529l0 0.534492zm1.80595 0.0588706c0.000415753,0.0294353 0.00744198,0.0557109 0.0207877,0.0796583 0.0137199,0.0235732 0.0321793,0.0423652 0.0557109,0.0565424 0.0231574,0.014094 0.049433,0.0211618 0.0789099,0.021536l1.07838 0 0 -0.134205 -0.80997 0c-0.0255272,-0.000789931 -0.0463149,-0.00939602 -0.0631945,-0.0262756 -0.0168796,-0.0168796 -0.0254857,-0.0376672 -0.0262756,-0.0631945l0 -0.642796 0.732266 0c0.0293937,-0.000374178 0.0557109,-0.00744198 0.0788684,-0.0215776 0.0235732,-0.0137199 0.0419911,-0.0325535 0.0557525,-0.0557109 0.0133041,-0.0235732 0.0203719,-0.049433 0.0207461,-0.07812l0 -0.98891c-0.000374178,-0.0293937 -0.00744198,-0.0557109 -0.0207461,-0.0796583 -0.0137614,-0.0235316 -0.0321793,-0.0423652 -0.0557525,-0.0565008 -0.0231574,-0.0141356 -0.0494746,-0.0212034 -0.0788684,-0.0215776l-0.911206 0c-0.0294769,0.000374178 -0.0557525,0.00744198 -0.0789099,0.0215776 -0.0235316,0.0141356 -0.0419911,0.0329692 -0.0557109,0.0565008 -0.0133457,0.0239474 -0.0203719,0.0502645 -0.0207877,0.0796583l0 1.85305zm-0.671067 0.176612c0.0125973,-0.0290611 0.0235316,-0.0636102 0.0329692,-0.103231 0.00981177,-0.0392471 0.0176695,-0.0820281 0.0243216,-0.128301 0.00669362,-0.0459407 0.0118074,-0.0930455 0.0152997,-0.141273 0.00357548,-0.0482689 0.00511376,-0.0961637 0.00511376,-0.142853l0 -0.155408 0.176612 0 0 0.470923c-0.000415753,0.0192078 -0.0070678,0.0349233 -0.0199977,0.0470632 -0.0129715,0.0121816 -0.0290611,0.0184594 -0.0482689,0.0188336l-0.0424068 0 0 0.134247 0.282546 0c0.0294353,-0.000415753 0.0557525,-0.00748356 0.0796583,-0.0208292 0.0235316,-0.0137199 0.0424068,-0.0321793 0.0565008,-0.0557109 0.0141356,-0.0231574 0.0212034,-0.049433 0.0215776,-0.0788684l0 -1.88128c-0.000374178,-0.0294353 -0.00744198,-0.0557525 -0.0215776,-0.0788684 -0.014094,-0.0235732 -0.0329692,-0.0419911 -0.0565008,-0.0557525 -0.0239058,-0.0133457 -0.050223,-0.0204135 -0.0796583,-0.0207877l-0.508591 0c-0.0302252,0.000374178 -0.0569166,0.00744198 -0.0808224,0.0207877 -0.0235732,0.0137614 -0.0419911,0.0321793 -0.0557109,0.0557525 -0.0137614,0.0231159 -0.0208292,0.049433 -0.021245,0.0788684l0 1.53987c0,0.0984919 -0.00702623,0.189126 -0.0211618,0.271154 -0.0141356,0.0824023 -0.035339,0.157363 -0.0635686,0.225671l0.324911 0zm1.00542 -1.98489c0.000374178,-0.0192494 0.0070678,-0.035339 0.0199977,-0.0482689 0.0129715,-0.0129715 0.0290611,-0.0196235 0.0482689,-0.0200393l0.0471048 0 0 4.15753e-005 0.322583 0 0 -4.15753e-005 0.0470632 0c0.0192494,0.000415753 0.035339,0.0070678 0.0482689,0.0200393 0.0129715,0.0129299 0.0196235,0.0290196 0.0200393,0.0482689l0 0.89944c-0.000415753,0.0192078 -0.0070678,0.0348817 -0.0200393,0.0470632 -0.0129299,0.0121816 -0.0290196,0.0184594 -0.0482689,0.0188752l-0.0470632 0 0 -0.989409 -0.322583 0 0 0.989409 -0.115371 0 0 -0.965379zm-0.751099 0.496783l-0.176612 0 0 -0.517987c0,-0.0188336 0.00432383,-0.0321793 0.0129715,-0.040037 0.00860609,-0.00823191 0.0223259,-0.01214 0.0412011,-0.0117658l0.0682667 0c0.0176695,-0.000374178 0.0310152,0.0035339 0.0404112,0.0117658 0.00906342,0.00785773 0.0137614,0.0212034 0.0137614,0.040037l0 0.517987zm-0.176612 0.134205l0.176612 0 0 0.548628 -0.176612 0 0 -0.548628z"/>
   <path id="_237382496" class="fil4" d="M7.73409 5.3828l0 -0.845933 0.112087 0 0 0.347445 0.439617 0 0 -0.347445 0.112045 0 0 0.845933 -0.112045 0 0 -0.398624 -0.439617 0 0 0.398624 -0.112087 0zm0.90102 0l0 -0.845933 0.611573 0 0 0.0998639 -0.499694 0 0 0.258973 0.467972 0 0 0.0992818 -0.467972 0 0 0.287951 0.519359 0 0 0.0998639 -0.631238 0zm0.840154 0l0 -0.845933 0.570787 0 0 0.0998639 -0.4587 0 0 0.261924 0.396836 0 0 0.0999055 -0.396836 0 0 0.384239 -0.112087 0zm0.767064 0l0 -0.845933 0.611573 0 0 0.0998639 -0.499652 0 0 0.258973 0.46793 0 0 0.0992818 -0.46793 0 0 0.287951 0.519359 0 0 0.0998639 -0.631279 0zm0.853541 0l0 -0.845933 0.111921 0 0 0.845933 -0.111921 0zm0.689485 0l0 -0.845933 0.112087 0 0 0.347445 0.439617 0 0 -0.347445 0.112045 0 0 0.845933 -0.112045 0 0 -0.398624 -0.439617 0 0 0.398624 -0.112087 0zm0.8646 -0.412053c0,-0.1404 0.0375841,-0.250325 0.113043,-0.329692 0.0754176,-0.0793673 0.172745,-0.119155 0.292067,-0.119155 0.0779953,0 0.148507,0.0187089 0.211161,0.0559188 0.0626124,0.0374594 0.110507,0.0894285 0.143393,0.156198 0.0328861,0.0665621 0.0492252,0.142395 0.0492252,0.226876 0,0.0858946 -0.017129,0.162684 -0.0518028,0.230244 -0.0346322,0.0677677 -0.0836911,0.118989 -0.147135,0.153829 -0.0636102,0.0348817 -0.13196,0.0522186 -0.205424,0.0522186 -0.079783,0 -0.150877,-0.0191246 -0.213489,-0.0577065 -0.0628203,-0.0384156 -0.110299,-0.0910083 -0.142603,-0.15757 -0.032304,-0.0663958 -0.0484352,-0.136907 -0.0484352,-0.211161zm0.115371 0.00178774c0,0.102026 0.0273981,0.182183 0.0821528,0.240887 0.0549626,0.0587043 0.123687,0.0880565 0.206421,0.0880565 0.0842731,0 0.153621,-0.02956 0.208001,-0.0888464 0.0543389,-0.0592864 0.0817371,-0.143393 0.0817371,-0.252321 0,-0.068724 -0.011849,-0.1288 -0.035048,-0.180187 -0.0232822,-0.0514287 -0.0573323,-0.0911746 -0.102067,-0.119571 -0.0448598,-0.0281465 -0.0951243,-0.0423237 -0.150877,-0.0423237 -0.0793673,0 -0.147509,0.0271487 -0.204634,0.0817371 -0.0570829,0.0543389 -0.0856867,0.145347 -0.0856867,0.272568zm0.885263 0.410265l0 -0.845933 0.114831 0 0.444357 0.664166 0 -0.664166 0.107306 0 0 0.845933 -0.114789 0 -0.444357 -0.664748 0 0.664748 -0.107347 0zm1.2991 -0.331854l0 -0.099074 0.358254 -0.00062363 0 0.313769c-0.054921,0.0439451 -0.111671,0.0767896 -0.170168,0.099074 -0.0584965,0.0220765 -0.118531,0.0330939 -0.180021,0.0330939 -0.083109,0 -0.158735,-0.0177111 -0.226502,-0.0533827 -0.0679756,-0.0354637 -0.119155,-0.0870587 -0.153829,-0.154244 -0.0346738,-0.067352 -0.0520107,-0.142562 -0.0520107,-0.225712 0,-0.0823191 0.0173369,-0.159109 0.0518028,-0.23041 0.0342581,-0.0715095 0.083899,-0.124476 0.148507,-0.15915 0.064608,-0.0344659 0.139028,-0.0518028 0.223384,-0.0518028 0.0610325,0 0.116411,0.00985335 0.165844,0.0297679 0.049433,0.0196651 0.0882228,0.0472295 0.116203,0.0826933 0.0281465,0.0354637 0.049433,0.0815707 0.0641923,0.138487l-0.101028 0.0277307c-0.0128052,-0.0431136 -0.0285622,-0.0769975 -0.0472711,-0.10161 -0.0189168,-0.0246126 -0.0458991,-0.0443193 -0.0809471,-0.0590785 -0.0348401,-0.0147592 -0.0738793,-0.0222428 -0.116411,-0.0222428 -0.0512208,0 -0.0955401,0.00785773 -0.13275,0.0234069 -0.0374594,0.0155492 -0.0673936,0.0360458 -0.0904263,0.0614483 -0.0228664,0.0254025 -0.0405775,0.0532164 -0.0533827,0.0837327 -0.0214529,0.052177 -0.032304,0.108886 -0.032304,0.170168 0,0.0754176 0.0130131,0.138446 0.0389976,0.189292 0.0259846,0.0507634 0.0638181,0.0884307 0.113459,0.113043 0.0496409,0.0246126 0.102234,0.037002 0.157986,0.037002 0.0486015,0 0.0959142,-0.00943759 0.142021,-0.0281465 0.0462733,-0.0185426 0.081155,-0.0384156 0.104978,-0.0596606l0 -0.15757 -0.248579 0zm1.213 0.241261c0.0518028,0.0358379 0.0998223,0.0618641 0.14356,0.0783695l-0.0328861 0.0779953c-0.0606584,-0.021827 -0.121317,-0.0565008 -0.181809,-0.103814 -0.0626124,0.0348817 -0.131752,0.0524265 -0.207586,0.0524265 -0.0766233,0 -0.145929,-0.018501 -0.208375,-0.0553783 -0.0622382,-0.037002 -0.110299,-0.0888049 -0.143975,-0.155783 -0.033676,-0.0669778 -0.0504308,-0.142395 -0.0504308,-0.226087 0,-0.0835248 0.0169627,-0.159524 0.050805,-0.228082 0.0338839,-0.0683498 0.0819449,-0.120527 0.144557,-0.156406 0.0624461,-0.03563 0.132376,-0.053549 0.209581,-0.053549 0.0782031,0 0.148507,0.0185426 0.211327,0.0557525 0.062654,0.0370436 0.110507,0.0890127 0.143393,0.155783 0.0328861,0.0667699 0.0492667,0.14198 0.0492667,0.22592 0,0.0695139 -0.010477,0.132126 -0.031722,0.187713 -0.0210787,0.0555446 -0.0530085,0.10398 -0.0957064,0.145139zm-0.246417 -0.143185c0.064608,0.0181268 0.117783,0.0450676 0.159732,0.0809471 0.0658137,-0.0600763 0.0986998,-0.150295 0.0986998,-0.270614 0,-0.0685577 -0.0116411,-0.128426 -0.0348817,-0.179647 -0.0232406,-0.0510129 -0.0572908,-0.0907589 -0.102026,-0.119155 -0.0449013,-0.0281465 -0.0951243,-0.0423237 -0.151085,-0.0423237 -0.0832753,0 -0.152623,0.0285207 -0.207586,0.0856451 -0.0551289,0.0571245 -0.082527,0.142437 -0.082527,0.256062 0,0.109925 0.0271902,0.194406 0.0815292,0.253277 0.0545884,0.0587043 0.124102,0.0882644 0.208583,0.0882644 0.0402033,0 0.077829,-0.00748356 0.113293,-0.0224507 -0.0350896,-0.0228664 -0.0720916,-0.0390392 -0.110923,-0.0484768l0.0271902 -0.0815292zm0.592157 0.233778l0 -0.845933 0.111879 0 0 0.845933 -0.111879 0zm0.880108 0l0 -0.746069 -0.278679 0 0 -0.0998639 0.670443 0 0 0.0998639 -0.279843 0 0 0.746069 -0.111921 0zm0.557525 0l0 -0.845933 0.611573 0 0 0.0998639 -0.499694 0 0 0.258973 0.467972 0 0 0.0992818 -0.467972 0 0 0.287951 0.5194 0 0 0.0998639 -0.631279 0zm1.43792 -0.296598l0.112087 0.0283544c-0.0234069,0.0917983 -0.0657721,0.161894 -0.126638,0.210329 -0.0610741,0.0482689 -0.135535,0.0722995 -0.223758,0.0722995 -0.0911746,0 -0.16522,-0.018501 -0.222345,-0.0555446 -0.0571245,-0.0372099 -0.100654,-0.0910083 -0.130422,-0.161312 -0.0297263,-0.0705117 -0.0446935,-0.146137 -0.0446935,-0.226918 0,-0.0880149 0.0167548,-0.164846 0.0504308,-0.23041 0.033676,-0.0656058 0.0815292,-0.115413 0.143767,-0.149505 0.0620304,-0.0340502 0.13038,-0.0510129 0.205049,-0.0510129 0.0846889,0 0.155783,0.0214944 0.213489,0.064608 0.0577065,0.0431552 0.0978683,0.103606 0.120568,0.181809l-0.110133 0.0259846c-0.0196651,-0.0616562 -0.0480195,-0.10635 -0.0854788,-0.134538 -0.0372099,-0.0281465 -0.0841068,-0.0421158 -0.140816,-0.0421158 -0.0650238,0 -0.119155,0.0155492 -0.162892,0.0466475 -0.0437372,0.0313478 -0.0744614,0.0730894 -0.0919646,0.125682 -0.0177527,0.0523849 -0.0266082,0.106516 -0.0266082,0.162268 0,0.0720916 0.010477,0.134746 0.0313478,0.188502 0.0210371,0.053549 0.053549,0.0937523 0.0978683,0.120319 0.0443193,0.0266082 0.0921725,0.0398291 0.143767,0.0398291 0.062654,0 0.115621,-0.0181268 0.15915,-0.0541726 0.0435293,-0.0362537 0.0728815,-0.0900105 0.0882228,-0.161104zm0.301878 0.296598l0 -0.845933 0.112087 0 0 0.347445 0.439617 0 0 -0.347445 0.112045 0 0 0.845933 -0.112045 0 0 -0.398624 -0.439617 0 0 0.398624 -0.112087 0zm0.897486 0l0 -0.845933 0.114831 0 0.444357 0.664166 0 -0.664166 0.107306 0 0 0.845933 -0.114789 0 -0.444357 -0.664748 0 0.664748 -0.107347 0zm0.869132 -0.412053c0,-0.1404 0.0375841,-0.250325 0.113043,-0.329692 0.0754176,-0.0793673 0.172745,-0.119155 0.292067,-0.119155 0.0779953,0 0.148507,0.0187089 0.211161,0.0559188 0.0626124,0.0374594 0.110507,0.0894285 0.143393,0.156198 0.0328861,0.0665621 0.0492252,0.142395 0.0492252,0.226876 0,0.0858946 -0.017129,0.162684 -0.0518028,0.230244 -0.0346322,0.0677677 -0.0836911,0.118989 -0.147135,0.153829 -0.0636102,0.0348817 -0.13196,0.0522186 -0.205424,0.0522186 -0.0797414,0 -0.150877,-0.0191246 -0.213489,-0.0577065 -0.0628203,-0.0384156 -0.110299,-0.0910083 -0.142603,-0.15757 -0.032304,-0.0663958 -0.0484352,-0.136907 -0.0484352,-0.211161zm0.115413 0.00178774c0,0.102026 0.0273981,0.182183 0.0821112,0.240887 0.0549626,0.0587043 0.123687,0.0880565 0.206421,0.0880565 0.0842731,0 0.153621,-0.02956 0.208001,-0.0888464 0.0543389,-0.0592864 0.0817371,-0.143393 0.0817371,-0.252321 0,-0.068724 -0.0118074,-0.1288 -0.035048,-0.180187 -0.0232822,-0.0514287 -0.0573323,-0.0911746 -0.102067,-0.119571 -0.0448598,-0.0281465 -0.0951243,-0.0423237 -0.150835,-0.0423237 -0.0794088,0 -0.147551,0.0271487 -0.204675,0.0817371 -0.0570829,0.0543389 -0.0856451,0.145347 -0.0856451,0.272568zm0.881688 0.410265l0 -0.845933 0.112087 0 0 0.746069 0.416543 0 0 0.0998639 -0.52863 0zm0.676472 -0.412053c0,-0.1404 0.0376257,-0.250325 0.113043,-0.329692 0.0754592,-0.0793673 0.172745,-0.119155 0.292108,-0.119155 0.0779953,0 0.148507,0.0187089 0.211119,0.0559188 0.062654,0.0374594 0.110507,0.0894285 0.143393,0.156198 0.0329276,0.0665621 0.0492667,0.142395 0.0492667,0.226876 0,0.0858946 -0.0171706,0.162684 -0.0518028,0.230244 -0.0346738,0.0677677 -0.0837327,0.118989 -0.147135,0.153829 -0.0636102,0.0348817 -0.13196,0.0522186 -0.205424,0.0522186 -0.079783,0 -0.150877,-0.0191246 -0.213531,-0.0577065 -0.0627787,-0.0384156 -0.110258,-0.0910083 -0.142603,-0.15757 -0.0322624,-0.0663958 -0.0484352,-0.136907 -0.0484352,-0.211161zm0.115413 0.00178774c0,0.102026 0.0273981,0.182183 0.0821112,0.240887 0.0549626,0.0587043 0.123728,0.0880565 0.206421,0.0880565 0.0843147,0 0.153621,-0.02956 0.208001,-0.0888464 0.0543805,-0.0592864 0.0817371,-0.143393 0.0817371,-0.252321 0,-0.068724 -0.0118074,-0.1288 -0.035048,-0.180187 -0.0232406,-0.0514287 -0.0573323,-0.0911746 -0.102026,-0.119571 -0.0449013,-0.0281465 -0.0951243,-0.0423237 -0.150877,-0.0423237 -0.0793673,0 -0.147509,0.0271487 -0.204634,0.0817371 -0.0571245,0.0543389 -0.0856867,0.145347 -0.0856867,0.272568zm1.28235 0.078411l0 -0.099074 0.358213 -0.00062363 0 0.313769c-0.054921,0.0439451 -0.11163,0.0767896 -0.170168,0.099074 -0.0584965,0.0220765 -0.118531,0.0330939 -0.179979,0.0330939 -0.083109,0 -0.158776,-0.0177111 -0.226502,-0.0533827 -0.0679756,-0.0354637 -0.119196,-0.0870587 -0.153829,-0.154244 -0.0346738,-0.067352 -0.0520107,-0.142562 -0.0520107,-0.225712 0,-0.0823191 0.0173369,-0.159109 0.0518028,-0.23041 0.0342581,-0.0715095 0.083899,-0.124476 0.148507,-0.15915 0.0645664,-0.0344659 0.139028,-0.0518028 0.223343,-0.0518028 0.0610325,0 0.116411,0.00985335 0.165844,0.0297679 0.049433,0.0196651 0.0882228,0.0472295 0.116203,0.0826933 0.0281881,0.0354637 0.049433,0.0815707 0.0641923,0.138487l-0.101028 0.0277307c-0.0128052,-0.0431136 -0.0285207,-0.0769975 -0.0472711,-0.10161 -0.0189168,-0.0246126 -0.0458576,-0.0443193 -0.0809471,-0.0590785 -0.0348401,-0.0147592 -0.0738793,-0.0222428 -0.116369,-0.0222428 -0.0512208,0 -0.0955816,0.00785773 -0.132792,0.0234069 -0.0374178,0.0155492 -0.067352,0.0360458 -0.0903847,0.0614483 -0.0228664,0.0254025 -0.0405775,0.0532164 -0.0533827,0.0837327 -0.0214529,0.052177 -0.032304,0.108886 -0.032304,0.170168 0,0.0754176 0.0130131,0.138446 0.0389976,0.189292 0.0259846,0.0507634 0.0638181,0.0884307 0.113417,0.113043 0.0496825,0.0246126 0.102275,0.037002 0.157986,0.037002 0.0486431,0 0.0959142,-0.00943759 0.142021,-0.0281465 0.0462733,-0.0185426 0.081155,-0.0384156 0.104978,-0.0596606l0 -0.15757 -0.248537 0zm0.810136 0.331854l0 -0.358254 -0.32595 -0.487678 0.136118 0 0.1668 0.255065c0.0307657,0.0476869 0.0592864,0.0953322 0.0858946,0.143185 0.0254025,-0.0443193 0.0561267,-0.0941265 0.0923803,-0.149505l0.163848 -0.248745 0.130422 0 -0.337591 0.487678 0 0.358254 -0.111921 0zm1.50906 -0.296598l0.112087 0.0283544c-0.0234485,0.0917983 -0.0658137,0.161894 -0.12668,0.210329 -0.0610325,0.0482689 -0.135494,0.0722995 -0.223717,0.0722995 -0.0912162,0 -0.165262,-0.018501 -0.222386,-0.0555446 -0.0571245,-0.0372099 -0.100612,-0.0910083 -0.13038,-0.161312 -0.0297263,-0.0705117 -0.0446935,-0.146137 -0.0446935,-0.226918 0,-0.0880149 0.0167133,-0.164846 0.0503893,-0.23041 0.0337176,-0.0656058 0.0815707,-0.115413 0.143767,-0.149505 0.0620719,-0.0340502 0.130422,-0.0510129 0.205049,-0.0510129 0.0846889,0 0.155783,0.0214944 0.213531,0.064608 0.0577065,0.0431552 0.0978683,0.103606 0.120527,0.181809l-0.110091 0.0259846c-0.0197067,-0.0616562 -0.0480611,-0.10635 -0.0854788,-0.134538 -0.0372099,-0.0281465 -0.0841068,-0.0421158 -0.140857,-0.0421158 -0.0649822,0 -0.119113,0.0155492 -0.16285,0.0466475 -0.0437372,0.0313478 -0.0744614,0.0730894 -0.0919646,0.125682 -0.0177527,0.0523849 -0.0266082,0.106516 -0.0266082,0.162268 0,0.0720916 0.0104354,0.134746 0.0313062,0.188502 0.0210787,0.053549 0.0535906,0.0937523 0.0978683,0.120319 0.0443609,0.0266082 0.0921725,0.0398291 0.143809,0.0398291 0.0626124,0 0.115621,-0.0181268 0.159109,-0.0541726 0.0435709,-0.0362537 0.0728815,-0.0900105 0.0882644,-0.161104zm0.264461 -0.115455c0,-0.1404 0.0375841,-0.250325 0.113043,-0.329692 0.0754176,-0.0793673 0.172745,-0.119155 0.292067,-0.119155 0.0779953,0 0.148507,0.0187089 0.211161,0.0559188 0.062654,0.0374594 0.110507,0.0894285 0.143393,0.156198 0.0328861,0.0665621 0.0492252,0.142395 0.0492252,0.226876 0,0.0858946 -0.017129,0.162684 -0.0518028,0.230244 -0.0346322,0.0677677 -0.0836911,0.118989 -0.147135,0.153829 -0.0636102,0.0348817 -0.13196,0.0522186 -0.205424,0.0522186 -0.0797414,0 -0.150877,-0.0191246 -0.213489,-0.0577065 -0.0628203,-0.0384156 -0.110299,-0.0910083 -0.142603,-0.15757 -0.032304,-0.0663958 -0.0484352,-0.136907 -0.0484352,-0.211161zm0.115413 0.00178774c0,0.102026 0.0273981,0.182183 0.0821112,0.240887 0.0549626,0.0587043 0.123687,0.0880565 0.206421,0.0880565 0.0842731,0 0.153621,-0.02956 0.208001,-0.0888464 0.0543389,-0.0592864 0.0817371,-0.143393 0.0817371,-0.252321 0,-0.068724 -0.0118074,-0.1288 -0.035048,-0.180187 -0.0232822,-0.0514287 -0.0573323,-0.0911746 -0.102067,-0.119571 -0.0448598,-0.0281465 -0.0951243,-0.0423237 -0.150835,-0.0423237 -0.0794088,0 -0.147551,0.0271487 -0.204675,0.0817371 -0.0570829,0.0543389 -0.0856451,0.145347 -0.0856451,0.272568zm0.902558 0.410265l0 -0.118365 0.118365 0 0 0.118365 -0.118365 0zm0.702831 0l0 -0.118365 0.118406 0 0 0.118365c0,0.0435293 -0.00769143,0.0785773 -0.0230327,0.105352 -0.0155907,0.0266082 -0.0399954,0.0472711 -0.0732973,0.0620719l-0.028978 -0.0445272c0.0219102,-0.00964547 0.0380414,-0.0238227 0.0484768,-0.0423237 0.0104354,-0.0187089 0.0161312,-0.045525 0.0173369,-0.0805729l-0.0589122 0zm0.686699 0l0 -0.845933 0.112087 0 0 0.746069 0.416585 0 0 0.0998639 -0.528672 0zm0.838241 0l0 -0.746069 -0.278721 0 0 -0.0998639 0.670443 0 0 0.0998639 -0.279843 0 0 0.746069 -0.111879 0zm0.555155 0l0 -0.845933 0.291277 0c0.0658137,0 0.116037,0.00415753 0.150669,0.0122231 0.0484768,0.0110175 0.0898027,0.0313062 0.124102,0.0604505 0.0445272,0.0378335 0.0779953,0.0858946 0.10003,0.144557 0.0222844,0.0587043 0.0333018,0.125682 0.0333018,0.2011 0,0.0642338 -0.00748356,0.12115 -0.0226585,0.170791 -0.0149671,0.0495993 -0.0340502,0.0908005 -0.0576649,0.123271 -0.02349,0.0325119 -0.0490589,0.0581223 -0.077039,0.0766233 -0.0277723,0.0187089 -0.0614483,0.0328861 -0.100862,0.0425315 -0.0395381,0.00964547 -0.0848552,0.0143851 -0.13591,0.0143851l-0.305246 0zm0.111879 -0.0998639l0.180603 0c0.0557525,0 0.099656,-0.00511376 0.131378,-0.0155492 0.0316804,-0.0104354 0.0569166,-0.0250283 0.0758334,-0.0439035 0.0265666,-0.0264419 0.0472711,-0.0622382 0.0620304,-0.106973 0.0147592,-0.0449013 0.0222428,-0.099074 0.0222428,-0.1631 0,-0.0884307 -0.0145514,-0.156365 -0.0435293,-0.203844 -0.0291443,-0.0476453 -0.0644001,-0.0793673 -0.105975,-0.0954985 -0.0298926,-0.0116411 -0.0783695,-0.0173369 -0.144765,-0.0173369l-0.177818 0 0 0.646205zm0.80627 0.0998639l0 -0.118365 0.118365 0 0 0.118365 -0.118365 0z"/>
  </g>
 </g>
</svg>
