<svg width="3.1807999999999996" height="3.06736" xmlns="http://www.w3.org/2000/svg" xml:space="preserve" style="shape-rendering:geometricPrecision; text-rendering:geometricPrecision; image-rendering:optimizeQuality; fill-rule:evenodd; clip-rule:evenodd">

 <g>
  <title>background</title>
  <rect x="-1" y="-1" width="2.106381" height="2.102587" id="canvas_background" fill="none"/>
 </g>
 <g>
  <title>Layer 1</title>
  <g id="图层_x0020_1">
   <defs>
  <path d="m0,0z" id="svg_2"/>
    <path d="m186.002,248.002l101.998,0c-2.83275,20.8269 -1.66577,39.668 3.16214,56.3351c5.00673,16.6577 12.5074,31.9979 22.8408,45.8323c10.164,13.8344 21.8339,27.0006 34.8306,39.668c13.1662,12.498 26.3324,25.1654 39.8374,37.6634c13.4956,12.6674 25.9936,26.163 37.494,40.3362c11.6698,14.1638 20.8363,29.8333 27.9982,46.9993c7.00189,17.1659 10.6722,36.6658 10.8416,58.1609c-0.338801,39.8374 -9.00647,73.6704 -26.3418,101.669c-17.3259,27.9982 -41.4937,49.3332 -72.6634,64.0052c-31.0003,14.832 -67.3367,22.1632 -109,22.3326c-31.6685,-0.169401 -60.6642,-4.66793 -87.3354,-13.8344c-26.6618,-9.00647 -51.3284,-21.5045 -73.8304,-37.6728c-22.6714,-16.1589 -43.4983,-35 -62.8382,-56.4951l66.0004,-61.003c22.502,24.4972 45.6723,42.9995 69.5013,55.3375c23.9984,12.498 49.1732,18.6623 75.5056,18.6623c24.3278,-0.169401 44.6653,-4.49853 60.9936,-13.1662c16.3377,-8.49826 28.5064,-20.4975 36.6658,-35.6682c8.16887,-15.3308 12.338,-32.9955 12.338,-53.1636c-0.169401,-15.5002 -3.83034,-29.8333 -10.6628,-43.1689c-7.00189,-13.3356 -16.1683,-25.9936 -27.3394,-38.3316c-11.331,-12.1686 -23.4996,-24.3372 -36.6658,-36.6658c-13.1662,-12.338 -26.003,-25.1654 -38.501,-38.501c-12.6674,-13.3356 -23.669,-27.9982 -33.3343,-43.6677c-9.66525,-15.5002 -16.4977,-32.8355 -20.6669,-51.9966c-4.15973,-19.0011 -4.49853,-40.1668 -0.828181,-63.6664l0.000141,-0.0005zm-38.002341,-167.0005c0.169401,-17.8341 4.16914,-33.1649 11.9992,-46.3311c7.83007,-13.1662 18.5023,-23.3396 31.9979,-30.6709c13.505,-7.16188 28.8357,-10.8322 46.0017,-11.0016c17.1659,0.169401 32.6661,3.83975 46.3311,11.0016c13.6744,7.33128 24.5066,17.5047 32.5061,30.6709c7.83007,13.1662 11.9992,28.4969 12.1686,46.3311c-0.169401,17.8341 -4.33854,33.1649 -12.1686,46.1617c-7.99947,13.0062 -18.8317,23.0008 -32.5061,30.0027c-13.665,7.17129 -29.1651,10.6628 -46.3311,10.8322c-17.1659,-0.169401 -32.4967,-3.66094 -46.0017,-10.8322c-13.4956,-7.00189 -24.1678,-16.9965 -31.9979,-30.0027c-7.83007,-12.9968 -11.8298,-28.3275 -11.9992,-46.1617z" id="svg_2"/>
    <style type="text/css">
   <![CDATA[
    @font-face { font-family:"思源黑体 CN Medium";src:url("#FontID0") format(svg)}
    .str1 {stroke:#888;stroke-width:0.0364457}
    .str2 {stroke:white;stroke-width:0.0364457}
    .fil0 {fill:#888}
    .fnt0 {font-weight:500;font-size:1.9363;font-family:'思源黑体 CN Medium'}
   ]]>
  </style>
 </defs>
   <metadata id="CorelCorpID_0Corel-Layer"/>
   <path class="fil0" d="m0.304012,1.36126l0,0.099825c0,0.29982 0.169235,0.579869 0.321032,0.731665c0.151887,0.151887 0.431499,0.325569 0.731665,0.325569l0.095615,0.002915l0.175012,-0.020373l0.069958,0.169126l-0.245298,0.029831l-0.05445,0c-0.679967,0 -1.2705,-0.580835 -1.2705,-1.26142l0,-0.058987c0,-0.678145 0.589746,-1.25235 1.27503,-1.25235l0.0363,0c0.362161,0 0.688349,0.182338 0.870086,0.364129c0.094121,0.094139 0.202037,0.228113 0.258363,0.358717c0.056308,0.13053 0.128453,0.304813 0.128453,0.488664l0,0.176962c0,0.057748 -0.02748,0.114148 -0.025913,0.172825c0.102376,0.035899 0.125628,0.047106 0.181317,0.102831c0.087943,0.088034 0.203057,0.256669 0.203057,0.427654l0,0.095287c0,0.321761 -0.315984,0.626173 -0.639786,0.626173l-0.045375,0c-0.341259,0 -0.644341,-0.309424 -0.644341,-0.657936l0,-0.01815c0,-0.093082 0.019389,-0.167814 0.046013,-0.235312c0.013084,-0.033184 0.099205,-0.181663 0.099205,-0.186675l0,-0.013612c0,-0.030323 -0.032273,-0.058988 -0.063525,-0.058988c-0.05875,0 -0.130257,0.152033 -0.150393,0.203549c-0.034769,0.088964 -0.05835,0.175067 -0.05835,0.300112l-0.001056,0.018241l0.005776,0.087962l-0.204369,0.016309l-0.004537,0c-0.501948,0 -0.961947,-0.445384 -0.961947,-0.943797l0,-0.063524c0,-0.284823 0.139186,-0.522631 0.282454,-0.665881c0.13802,-0.138038 0.384447,-0.291529 0.656806,-0.291529l0.0726,0c0.114111,0 0.266637,0.036883 0.344867,0.072581c0.066476,0.030323 0.224159,0.11187 0.258546,0.164297l-0.072509,-0.005467c-0.023416,-0.002077 -0.05445,0.03251 -0.05445,0.063525l0,0.009075c0,0.070686 0.089948,0.050641 0.147933,0.060773c0.051425,0.008984 0.145965,0.025038 0.175267,-0.009822c0.018642,-0.022177 0.025457,-0.137965 0.026004,-0.18272c0.000729,-0.059898 0.023271,-0.135942 -0.054268,-0.135942l-0.004537,0c-0.05445,0 -0.063525,0.05804 -0.063525,0.113437c-0.046468,-0.031124 -0.090367,-0.070923 -0.143359,-0.106221c-0.050295,-0.033493 -0.105419,-0.060682 -0.16375,-0.085811c-0.110995,-0.047835 -0.257543,-0.084755 -0.414369,-0.084755l-0.027225,0c-0.327337,0 -0.592825,0.153382 -0.761259,0.314107c-0.153509,0.146475 -0.332275,0.44604 -0.332275,0.743127l0.000007,0.000004zm-0.304019,0.045371l0,0.027225c0,0.754717 0.643631,1.39301 1.39755,1.39301l0.040838,0c0.07506,0 0.290527,-0.02819 0.335792,-0.049912c0.029357,0.019662 0.073911,0.079069 0.116134,0.110722c0.047889,0.035899 0.081875,0.060317 0.136398,0.090494c0.085829,0.047507 0.232542,0.089183 0.364566,0.089183l0.01815,0c0.21308,0 0.421986,-0.115697 0.529756,-0.223467c0.107169,-0.107169 0.241617,-0.306672 0.241617,-0.516144l0,-0.104362c0,-0.134229 -0.068445,-0.293716 -0.121546,-0.377577c-0.026296,-0.041548 -0.076318,-0.105984 -0.110886,-0.138676c-0.016328,-0.015435 -0.135104,-0.105255 -0.135104,-0.114458l-0.00144,-0.013831l0.010515,-0.076919l0,-0.154275c0,-0.381404 -0.221316,-0.744968 -0.414041,-0.938148c-0.194711,-0.19513 -0.56068,-0.409504 -0.947223,-0.409504l-0.05445,0c-0.776311,0 -1.40662,0.629945 -1.40662,1.40664l-0.000006,-0.000001z" id="svg_3"/>
   <text x="0.840109" y="2.1068" class="fil0 str1 fnt0" id="svg_4">？</text>
   <path class="fil0 str2" d="m2.35157,2.42174c-0.051789,0.030651 -0.129601,0.085119 -0.188151,0.151468l0.376302,0c-0.058568,-0.066349 -0.136343,-0.120817 -0.188151,-0.151468zm-0.000055,-0.156972c0.045831,-0.037776 0.124644,-0.109774 0.183741,-0.200105l-0.367664,0c0.059061,0.090458 0.137965,0.162402 0.183923,0.200105zm-0.183613,-0.652159l0.367354,0c-0.059023,-0.090258 -0.137838,-0.162256 -0.183686,-0.199996c-0.045867,0.037739 -0.124626,0.109738 -0.183668,0.199996zm0.183668,-0.357095c0.051808,-0.030614 0.129583,-0.085119 0.188151,-0.151468l-0.376302,0c0.05855,0.066349 0.136361,0.120854 0.188151,0.151468zm-0.246027,0.678746l0.491962,0c0.009239,-0.031015 0.014852,-0.062996 0.014852,-0.095615c0,-0.032656 -0.005613,-0.0646 -0.014852,-0.095652l-0.491889,0c-0.00922,0.031052 -0.014851,0.062996 -0.014851,0.095652c0,0.032637 0.005594,0.064618 0.014778,0.095615zm0.359573,0.405221c0.093866,0.062741 0.237444,0.180078 0.275639,0.330672c0.001385,0.005467 0.002041,0.010934 0.002023,0.016309c-0.000091,0.029066 -0.019699,0.055471 -0.049147,0.06296c-0.005394,0.001367 -0.010806,0.002005 -0.016109,0.002005c-0.028683,0.000036 -0.054741,-0.019098 -0.062668,-0.047817l-0.526585,0c-0.007945,0.028756 -0.033968,0.04789 -0.062632,0.047853c-0.005303,0 -0.010697,-0.000674 -0.016091,-0.002041c-0.029466,-0.007489 -0.049092,-0.033894 -0.049183,-0.06296c-0.000019,-0.005375 0.000637,-0.010842 0.002022,-0.016309c0.038214,-0.150594 0.181791,-0.26793 0.275639,-0.330672c-0.10418,-0.091879 -0.277643,-0.278299 -0.277643,-0.500836c0,-0.222574 0.173463,-0.408975 0.277643,-0.500855c-0.093847,-0.062741 -0.237425,-0.180096 -0.275639,-0.330726c-0.001385,-0.005449 -0.002041,-0.010915 -0.002022,-0.016291c0.000091,-0.029047 0.019717,-0.055452 0.049183,-0.062942c0.034551,-0.008801 0.069356,0.011809 0.078723,0.045812l0.526585,0c0.007872,-0.028464 0.033457,-0.047543 0.061848,-0.047871l0.001585,0c0.005048,0.000073 0.010205,0.000747 0.015344,0.002059c0.029448,0.00749 0.049056,0.033895 0.049147,0.062942c0.000018,0.005376 -0.000638,0.010842 -0.002023,0.016291c-0.038195,0.15063 -0.181773,0.267985 -0.275639,0.330726c0.104162,0.09188 0.277643,0.278281 0.277643,0.500855c0,0.222537 -0.173481,0.408957 -0.277643,0.500836z" id="svg_5"/>
  </g>
 </g>
</svg>