<svg width="1.90587" height="2.22564" xmlns="http://www.w3.org/2000/svg" style="shape-rendering:geometricPrecision; text-rendering:geometricPrecision; image-rendering:optimizeQuality; fill-rule:evenodd; clip-rule:evenodd" xml:space="preserve">
 <defs>
  <style type="text/css">
   <![CDATA[
    .str0 {stroke:#888;stroke-width:0.0234724}
    .fil0 {fill:#888}
   ]]>
  </style>
 </defs>
 <g>
  <title>background</title>
  <rect fill="none" id="canvas_background" height="712" width="1487" y="-1" x="-1"/>
 </g>
 <g>
  <title>Layer 1</title>
  <g id="图层_x0020_1">
   <metadata id="CorelCorpID_0Corel-Layer"/>
   <path id="svg_1" d="m0.8914,1.30813l0,-0.00372c0,-0.00969 0.08355,-0.09324 0.09324,-0.09324l0.00373,0c0.02136,0 0.07411,0.08951 0.1119,0.08951l0.00372,0c0.00252,0 0.10803,-0.04309 0.11106,-0.0456c0.02667,-0.02213 0.01575,-0.09879 0.01575,-0.14462c0.00673,-0.00451 0.00656,-0.00745 0.01492,-0.00745l0.12681,0c0.00953,0.04093 -0.00882,0.11997 0.01572,0.14839c0.00374,0.00433 0.10888,0.04928 0.11481,0.04928l0.00747,0c0.03329,0 0.0858,-0.08951 0.10816,-0.08951l0.00746,0c0.0097,0 0.09325,0.08355 0.09325,0.09324l0,0.00372c0,0.02257 -0.09325,0.07839 -0.09325,0.11189c0,0.00217 0.04453,0.11244 0.04758,0.11654c0.0213,0.02869 0.11172,0.00879 0.1501,0.01774c0.00194,0.00836 0.00373,0.00858 0.00373,0.01864l0,0.10817c0,0.00836 -0.00296,0.00819 -0.00747,0.01491c-0.0458,0 -0.12216,-0.01038 -0.14604,0.01433c-0.00088,0.00092 -0.0479,0.11478 -0.0479,0.11621c0,0.03801 0.09325,0.09408 0.09325,0.11563c0,0.00973 -0.08725,0.09696 -0.09698,0.09696c-0.01801,0 -0.0816,-0.09324 -0.11562,-0.09324c-0.0004,0 -0.10937,0.04382 -0.11358,0.0468c-0.02883,0.02044 -0.01697,0.10151 -0.01697,0.14715c-0.00672,0.00451 -0.00654,0.00745 -0.01491,0.00745l-0.1119,0c-0.01052,0 -0.01438,-0.00855 -0.01864,-0.01491c0,-0.04249 0.01176,-0.12259 -0.01622,-0.14043c-0.0055,-0.00349 -0.1132,-0.04606 -0.11431,-0.04606c-0.02892,0 -0.09467,0.09324 -0.1119,0.09324c-0.01352,0 -0.09697,-0.08173 -0.09697,-0.09324l0,-0.00745c0,-0.02236 0.08951,-0.07487 0.08951,-0.10816l0,-0.00374c0,-0.00187 -0.0431,-0.11181 -0.04551,-0.11486c-0.01896,-0.02393 -0.10525,-0.01568 -0.14843,-0.01568c-0.00389,-0.00732 -0.00746,-0.01099 -0.00746,-0.02238l0,-0.10443c0,-0.01052 0.00855,-0.01438 0.01491,-0.01864c0.04527,0 0.11908,0.01055 0.14089,-0.01575c0.00252,-0.00303 0.0456,-0.10854 0.0456,-0.11106l0,-0.01119c0,-0.02335 -0.08951,-0.08641 -0.08951,-0.10444zm-0.81307,-0.83917c0,-0.06043 0.05983,-0.12682 0.11561,-0.12682l1.28675,0c0.07356,0 0.13054,0.0609 0.13054,0.13427l0,0.17903l-0.22378,0c-0.02409,0 -0.04477,0.01396 -0.04477,0.03729l0,0.00374c0,0.01875 0.01855,0.03729 0.0373,0.03729l0.23125,0l0,0.39908c-0.0607,0.00505 -0.09611,0.07833 -0.11562,0.07833c-0.00497,0 -0.029,-0.01213 -0.04103,-0.01492l0,-0.09324c0,-0.03379 -0.04506,-0.07833 -0.08205,-0.07833l-0.14174,0c-0.03503,0 -0.07831,0.04752 -0.07831,0.08578l0,0.08579l-0.04497,0.01817c-0.01386,-0.02053 -0.07297,-0.08158 -0.10422,-0.08158l-0.03357,0c-0.03776,0 -0.15665,0.11872 -0.15665,0.15664l0,0.03358c0,0.03125 0.06106,0.09037 0.08206,0.10443l-0.01969,0.04432l-0.08848,0.00043c-0.03392,0 -0.08205,0.04464 -0.08205,0.07833l0,0.03356l-0.54454,0c-0.03699,0 -0.08205,-0.04454 -0.08205,-0.07831l0,-0.77206l0.99956,0c0.02126,0 0.0373,-0.01962 0.0373,-0.04103c0,-0.02214 -0.02053,-0.03729 -0.04476,-0.03729l-0.9921,0l0,-0.18648l0.00001,0zm1.63734,0.95853c0.02809,-0.04196 0.08204,-0.05561 0.08204,-0.12681c0,-0.05863 -0.08134,-0.10169 -0.10816,-0.14173c0,-0.18524 0,-0.37048 0,-0.55573c0,-0.11249 0.00987,-0.16787 -0.03366,-0.24233c-0.02702,-0.04621 -0.1026,-0.1008 -0.17519,-0.1008l-1.26437,0c-0.1062,0 -0.21632,0.09503 -0.21632,0.19394l0,1.0555c0,0.07875 0.08212,0.15292 0.16783,0.15292l0.53336,0l0,0.01492c0,0.05189 0.04108,0.09698 0.09323,0.09698l0.08206,0c0.00327,0.01406 0.01491,0.03148 0.01491,0.04475c0,0.00903 -0.07832,0.06452 -0.07832,0.10444l0,0.03729c0,0.04305 0.12061,0.15665 0.16784,0.15665l0.00373,0c0.06928,0 0.10762,-0.08205 0.12307,-0.08205c0.00943,0 0.0281,0.01353 0.04477,0.01492l0,0.07831c0,0.04919 0.04228,0.09698 0.08951,0.09698l0.11561,0c0.09661,0 0.09698,-0.0739 0.09698,-0.17157c0.00462,-0.00244 0.041,-0.01864 0.04476,-0.01864c0.01277,0 0.05903,0.08205 0.11934,0.08205l0.00747,0c0.05635,0 0.17156,-0.11725 0.17156,-0.17529l0,-0.00374c0,-0.06031 -0.08205,-0.10658 -0.08205,-0.11935c0,-0.00942 0.01353,-0.0281 0.01492,-0.04475l0.09697,0c0.03595,0 0.07832,-0.05018 0.07832,-0.08952l0,-0.11562c0,-0.04918 -0.04229,-0.09698 -0.08951,-0.09698l-0.08578,0l-0.01492,-0.04475l0,0.00001z" class="fil0"/>
   <path id="svg_2" d="m1.12637,1.66245l0.35433,0c-0.00572,0.06872 -0.08482,0.14546 -0.16038,0.14546l-0.0373,0c-0.03924,0 -0.08127,-0.02696 -0.10164,-0.04755c-0.04553,-0.04602 -0.0302,-0.0424 -0.05501,-0.09791zm0.16037,-0.21259l0.03358,0c0.06759,0 0.15155,0.07306 0.15665,0.13426l-0.34687,0c0.0049,-0.05883 0.09054,-0.13426 0.15665,-0.13426l-0.00001,0zm-0.23869,0.14546l0,0.0634c0,0.10816 0.12196,0.22752 0.23124,0.22752l0.04848,0c0.11815,0 0.23498,-0.12475 0.23498,-0.24617l0,-0.01865c0,-0.12589 -0.11712,-0.24989 -0.23871,-0.24989l-0.02237,0c-0.12476,0 -0.25362,0.10975 -0.25362,0.22379z" class="fil0"/>
   <path id="svg_3" d="m1.18978,0.689c0,0.02485 0.01284,0.04476 0.0373,0.04476l0.00372,0c0.01875,0 0.0373,-0.01855 0.0373,-0.0373l0,-0.00373c0,-0.01908 -0.01962,-0.0373 -0.0373,-0.0373c-0.019,0 -0.04102,0.01573 -0.04102,0.03357z" class="fil0"/>
   <path id="svg_4" d="m0.3899,0.97519c-0.03336,0.01974 -0.08347,0.05482 -0.12118,0.09756l0.24236,0c-0.03773,-0.04274 -0.08782,-0.07782 -0.12118,-0.09756zm-0.00004,-0.10109c0.02952,-0.02433 0.08028,-0.0707 0.11834,-0.12888l-0.23679,0c0.03804,0.05826 0.08886,0.1046 0.11845,0.12888zm-0.11825,-0.42001l0.23659,0c-0.03801,-0.05813 -0.08877,-0.1045 -0.1183,-0.12881c-0.02954,0.02431 -0.08026,0.07068 -0.11829,0.12881zm0.11829,-0.22999c0.03336,-0.01971 0.08345,-0.05482 0.12117,-0.09755l-0.24235,0c0.03771,0.04273 0.08782,0.07784 0.12118,0.09755zm-0.15845,0.43714l0.31684,0c0.00595,-0.01998 0.00957,-0.04057 0.00957,-0.06158c0,-0.02103 -0.00362,-0.0416 -0.00957,-0.0616l-0.31679,0c-0.00594,0.02 -0.00957,0.04057 -0.00957,0.0616c0,0.02102 0.0036,0.04162 0.00952,0.06158zm0.23158,0.26098c0.06045,0.0404 0.15292,0.11597 0.17752,0.21296c0.00089,0.00352 0.00131,0.00704 0.0013,0.01051c-0.00006,0.01872 -0.01269,0.03572 -0.03165,0.04054c-0.00348,0.00088 -0.00696,0.0013 -0.01038,0.0013c-0.01847,0.00002 -0.03525,-0.0123 -0.04036,-0.0308l-0.33914,0c-0.00511,0.01852 -0.02187,0.03084 -0.04033,0.03082c-0.00342,0 -0.00689,-0.00044 -0.01037,-0.00132c-0.01898,-0.00482 -0.03161,-0.02182 -0.03167,-0.04054c-0.00002,-0.00347 0.00041,-0.00699 0.0013,-0.01051c0.02461,-0.09699 0.11708,-0.17255 0.17752,-0.21296c-0.0671,-0.05918 -0.17881,-0.17924 -0.17881,-0.32256c0,-0.14335 0.11172,-0.26339 0.17881,-0.32257c-0.06044,-0.04041 -0.15291,-0.11599 -0.17752,-0.213c-0.00089,-0.00351 -0.00132,-0.00703 -0.0013,-0.01049c0.00006,-0.01871 0.01269,-0.03571 0.03167,-0.04054c0.02225,-0.00567 0.04467,0.00761 0.0507,0.02951l0.33914,0c0.00507,-0.01834 0.02155,-0.03062 0.03984,-0.03083l0.00102,0c0.00325,0.00004 0.00657,0.00048 0.00988,0.00132c0.01896,0.00483 0.03159,0.02183 0.03165,0.04054c0.00001,0.00346 -0.00041,0.00698 -0.0013,0.01049c-0.0246,0.09701 -0.11707,0.17259 -0.17752,0.213c0.06708,0.05917 0.17881,0.17922 0.17881,0.32257c0,0.14332 -0.11173,0.26338 -0.17881,0.32256z" class="fil0 str0"/>
  </g>
 </g>
</svg>