<?xml version="1.0" encoding="UTF-8"?>
<!DOCTYPE svg PUBLIC "-//W3C//DTD SVG 1.1//EN" "http://www.w3.org/Graphics/SVG/1.1/DTD/svg11.dtd">
<!-- Creator: CorelDRAW -->
<svg xmlns="http://www.w3.org/2000/svg" xml:space="preserve" width="2.1202mm" height="5.6736mm" style="shape-rendering:geometricPrecision; text-rendering:geometricPrecision; image-rendering:optimizeQuality; fill-rule:evenodd; clip-rule:evenodd"
     viewBox="0 0 0.504236 0.849083"
     xmlns:xlink="http://www.w3.org/1999/xlink">
 <defs>
  <style type="text/css">
   <![CDATA[
    .str111147 {stroke:currentColor;stroke-width:0.0124193}
    .str011147 {stroke:currentColor;stroke-width:0.0666171;stroke-linecap:round;stroke-linejoin:round}
    .fil011147 {fill:none}
    .fil111147 {fill:none}
   ]]>
  </style>
 </defs>
 <g id="图层_x0020_1">
  <metadata id="CorelCorpID_0Corel-Layer"/>
  <g id="_237130400">
   <polyline id="_237130880" class="fil011147 str011147" points="0.0333024,0.596959 0.252118,0.815774 0.470934,0.596959 "/>
   <polyline id="_237130448" class="fil011147 str011147" points="0.0333024,0.596959 0.252118,0.815774 0.470934,0.596959 "/>
  </g>
  <path class="fil111147 str111147" d="M0.24779 0.504578c-0.0171697,0.010159 -0.0429584,0.0282167 -0.0623697,0.0502112l0.124739 0c-0.0194176,-0.0219946 -0.0452001,-0.0400523 -0.0623697,-0.0502112zm-1.8629e-005 -0.0520307c0.0151888,-0.0125249 0.0413128,-0.0363823 0.0609043,-0.0663253l-0.121871 0c0.019579,0.0299802 0.0457341,0.0538315 0.0609664,0.0663253zm-0.0608608 -0.216177l0.121765 0c-0.0195666,-0.0299181 -0.0456906,-0.0537818 -0.0608856,-0.066288 -0.0152012,0.0125062 -0.0413128,0.0363699 -0.0608794,0.066288zm0.0608794 -0.118362c0.0171697,-0.0101528 0.0429522,-0.0282167 0.0623697,-0.050205l-0.124739 0c0.0194114,0.0219884 0.0452001,0.0400523 0.0623697,0.050205zm-0.0815514 0.224988l0.163072 0c0.00306136,-0.0102832 0.00492425,-0.0208893 0.00492425,-0.0317003 0,-0.0108172 -0.0018629,-0.0214109 -0.00492425,-0.0317003l-0.163047 0c-0.00306136,0.0102894 -0.00492425,0.0208831 -0.00492425,0.0317003 0,0.0108234 0.00185669,0.0214233 0.00489942,0.0317003zm0.119188 0.134315c0.0311104,0.0208023 0.0787073,0.0596934 0.0913688,0.109613 0.000459514,0.00180701 0.000670642,0.00362644 0.000670642,0.00540861 -3.10483e-005,0.00963117 -0.00653255,0.0183868 -0.0162941,0.0208644 -0.00178217,0.000453305 -0.00357676,0.000670642 -0.0053403,0.000670642 -0.00950077,6.20965e-006 -0.0181446,-0.00633384 -0.0207713,-0.0158532l-0.174547 0c-0.00263289,0.00953182 -0.0112643,0.0158719 -0.0207651,0.0158595 -0.00175733,0 -0.00354571,-0.000223547 -0.00533409,-0.000676852 -0.00976157,-0.00247765 -0.0162693,-0.0112333 -0.0163003,-0.0208644 -6.20965e-006,-0.00178217 0.000211128,-0.0036016 0.000670642,-0.00540861 0.0126677,-0.0499194 0.0602585,-0.0888104 0.0913626,-0.109613 -0.0345257,-0.0304521 -0.092027,-0.0922444 -0.092027,-0.166015 0,-0.0737707 0.0575014,-0.135563 0.092027,-0.166021 -0.0311041,-0.0207899 -0.0786949,-0.0596934 -0.0913626,-0.109619 -0.000459514,-0.00180701 -0.000676852,-0.00362023 -0.000670642,-0.0054024 3.10483e-005,-0.00963117 0.00653876,-0.0183868 0.0163003,-0.0208644 0.0114568,-0.00291854 0.0229881,0.00391829 0.0260992,0.0151826l0.174547 0c0.00260805,-0.00943246 0.0110904,-0.0157601 0.0205043,-0.0158657l0.000521611 0c0.00167661,2.48386e-005 0.00338426,0.000248386 0.0050857,0.000683062 0.00976157,0.00247765 0.0162631,0.0112333 0.0162941,0.0208644 0,0.00178217 -0.000211128,0.00359539 -0.000670642,0.0054024 -0.0126615,0.0499256 -0.0602585,0.0888291 -0.0913688,0.109619 0.0345257,0.0304583 0.0920332,0.0922506 0.0920332,0.166021 0,0.0737707 -0.0575076,0.135563 -0.0920332,0.166015z"/>
 </g>
</svg>
