<?xml version="1.0" encoding="UTF-8"?>
<!DOCTYPE svg PUBLIC "-//W3C//DTD SVG 1.1//EN" "http://www.w3.org/Graphics/SVG/1.1/DTD/svg11.dtd">
<!-- Creator: CorelDRAW -->
<svg xmlns="http://www.w3.org/2000/svg" xml:space="preserve" width="2.1202mm" height="5.6736mm" style="shape-rendering:geometricPrecision; text-rendering:geometricPrecision; image-rendering:optimizeQuality; fill-rule:evenodd; clip-rule:evenodd"
     viewBox="0 0 0.62343 1.04668"
     xmlns:xlink="http://www.w3.org/1999/xlink">
 <defs>
  <style type="text/css">
   <![CDATA[
    .str1199 {stroke:currentColor;stroke-width:0.0153547}
    .str0199 {stroke:currentColor;stroke-width:0.0823624;stroke-linecap:round;stroke-linejoin:round}
    .fil0199 {fill:none}
    .fil1199 {fill:none}
   ]]>
  </style>
 </defs>
 <g id="图层_x0020_1">
  <metadata id="CorelCorpID_0Corel-Layer"/>
  <g id="_237130592">
   <polyline id="_237130736" class="fil0199 str0199" points="0.0411812,0.311715 0.311715,0.0411812 0.582248,0.311715 "/>
   <polyline id="_237130760" class="fil0199 str0199" points="0.0411812,0.311715 0.311715,0.0411812 0.582248,0.311715 "/>
  </g>
  <path class="fil1199 str1199" d="M0.306364 0.42593c-0.0212278,-0.0125601 -0.0531117,-0.0348858 -0.0771111,-0.0620789l0.154222 0c-0.024007,0.0271931 -0.0558833,0.0495188 -0.0771111,0.0620789zm-2.3032e-005 0.0643283c0.0187787,0.0154852 0.0510773,0.0449815 0.0752992,0.0820015l-0.150675 0c0.0242066,-0.0370661 0.0565435,-0.0665547 0.075376,-0.0820015zm-0.0752455 0.267271l0.150545 0c-0.0241913,0.0369894 -0.0564898,0.0664933 -0.0752762,0.0819555 -0.0187941,-0.0154621 -0.0510773,-0.0449661 -0.0752685,-0.0819555zm0.0752685 0.146338c0.0212278,0.0125524 0.0531041,0.0348858 0.0771111,0.0620712l-0.154222 0c0.0239993,-0.0271854 0.0558833,-0.0495188 0.0771111,-0.0620712zm-0.100826 -0.278165l0.201614 0c0.00378492,0.0127137 0.00608812,0.0258265 0.00608812,0.0391928 0,0.0133739 -0.0023032,0.0264714 -0.00608812,0.0391928l-0.201584 0c-0.00378492,-0.0127213 -0.00608812,-0.0258188 -0.00608812,-0.0391928 0,-0.0133816 0.00229552,-0.0264868 0.00605741,-0.0391928zm0.147359 -0.166061c0.0384634,-0.025719 0.0973101,-0.0738021 0.112964,-0.13552 0.000568122,-0.0022341 0.000829151,-0.00448356 0.000829151,-0.00668695 -3.83866e-005,-0.0119075 -0.00807655,-0.0227326 -0.0201453,-0.0257958 -0.00220339,-0.000560445 -0.00442214,-0.000829151 -0.0066025,-0.000829151 -0.0117463,-7.67733e-006 -0.0224331,0.00783087 -0.0256807,0.0196002l-0.215802 0c-0.00325519,-0.0117847 -0.0139267,-0.0196232 -0.025673,-0.0196079 -0.00217268,0 -0.00438375,0.000276384 -0.00659482,0.000836829 -0.0120688,0.00306325 -0.0201146,0.0138883 -0.020153,0.0257958 -7.67733e-006,0.00220339 0.000261029,0.00445285 0.000829151,0.00668695 0.0156617,0.061718 0.0745008,0.109801 0.112956,0.13552 -0.0426859,0.0376496 -0.113778,0.114047 -0.113778,0.205253 0,0.0912066 0.071092,0.167604 0.113778,0.205261 -0.0384557,0.0257037 -0.0972948,0.0738021 -0.112956,0.135528 -0.000568122,0.0022341 -0.000836829,0.00447588 -0.000829151,0.00667927 3.83866e-005,0.0119075 0.00808422,0.0227326 0.020153,0.0257958 0.0141647,0.00360834 0.0284215,-0.00484439 0.0322678,-0.0187711l0.215802 0c0.00322448,0.0116619 0.0137117,0.0194851 0.0253505,0.0196156l0.000644895 0c0.00207288,-3.07093e-005 0.00418414,-0.000307093 0.00628773,-0.000844506 0.0120688,-0.00306325 0.0201069,-0.0138883 0.0201453,-0.0257958 0,-0.00220339 -0.000261029,-0.00444517 -0.000829151,-0.00667927 -0.0156541,-0.0617257 -0.0745008,-0.109824 -0.112964,-0.135528 0.0426859,-0.0376573 0.113786,-0.114054 0.113786,-0.205261 0,-0.0912066 -0.0710997,-0.167604 -0.113786,-0.205253z"/>
 </g>
</svg>
