<?xml version="1.0" encoding="UTF-8"?>
<!DOCTYPE svg PUBLIC "-//W3C//DTD SVG 1.1//EN" "http://www.w3.org/Graphics/SVG/1.1/DTD/svg11.dtd">
<!-- Creator: CorelDRAW -->
<svg xmlns="http://www.w3.org/2000/svg" xml:space="preserve" width="11.1306mm" height="11.8728mm" style="shape-rendering:geometricPrecision; text-rendering:geometricPrecision; image-rendering:optimizeQuality; fill-rule:evenodd; clip-rule:evenodd"
viewBox="0 0 1.54236 1.6452"
 xmlns:xlink="http://www.w3.org/1999/xlink">
 <defs>
  <style type="text/css">
   <![CDATA[
    .str0155 {stroke:white;stroke-width:0.0277138}
    .fil0155 {fill:currentColor}
   ]]>
  </style>
 </defs>
 <g id="图层_x0020_1">
  <metadata id="CorelCorpID_0Corel-Layer"/>
  <g id="_237129176">
   <path id="_237129440" class="fil0155" d="M0.939513 0.0192473l0.0665548 0.0178477c0.1999,0.0535847 0.356345,0.216459 0.430424,0.344788 0.0741068,0.128412 0.139941,0.345869 0.0862871,0.54599l-0.0151456 0.0642545 -0.0448549 0.113045 -0.0763794 -0.038647 0.0474045 -0.133331 0.000817558 -0.00302081c0.0897097,-0.334659 -0.125017,-0.72092 -0.457306,-0.810006l-0.0423606 -0.0113488c-0.189881,-0.0509103 -0.373305,-0.000609705 -0.494415,0.0692985 -0.116689,0.0673585 -0.263074,0.204209 -0.311739,0.385791l-0.0129839 0.0484022c-0.0203835,0.0760745 -0.0230579,0.184352 -0.0132334,0.242884 0.00834187,0.0497463 0.0345176,0.169442 0.0633261,0.201743l0.00931185 -0.0493306c0.0027991,-0.015977 0.0314136,-0.0304852 0.0520743,-0.0249425l0.00605547 0.00162126c0.0471274,0.0126237 0.0176953,0.0690213 0.0140786,0.109484 -0.00320095,0.0358894 -0.00939499,0.101793 -0.037871,0.115096 -0.018111,0.00846658 -0.0965273,-0.00767673 -0.126458,-0.0153119 -0.0400742,-0.0102264 -0.0947952,-0.00879915 -0.0809383,-0.0604855l0.000803701 -0.00302081c0.00972756,-0.0363051 0.0500512,-0.0319818 0.0869799,-0.0220879 -0.0124297,-0.0365268 -0.0311226,-0.0729151 -0.0451874,-0.114555 -0.0133304,-0.0395061 -0.0216029,-0.0811184 -0.0279356,-0.124504 -0.0120555,-0.0825457 -0.0104897,-0.186847 0.0175429,-0.291397l0.00486378 -0.0181526c0.0585039,-0.218233 0.208214,-0.367818 0.345467,-0.451389 0.125086,-0.0761576 0.35676,-0.141798 0.554817,-0.088712z"/>
   <path id="_237128984" class="fil0155 str0155" d="M0.763475 0.497533c0.0392567,-0.0232381 0.0982317,-0.0645317 0.142602,-0.114805l-0.285203 0c0.0443976,0.0502729 0.103345,0.0915665 0.142602,0.114805zm4.15708e-005 0.118962c-0.0347254,0.0286423 -0.0944626,0.083197 -0.139262,0.151664l0.278663 0c-0.0447717,-0.0685502 -0.104564,-0.123091 -0.139401,-0.151664zm0.139165 0.49429l-0.278427 0c0.044744,0.0684116 0.104467,0.122966 0.13922,0.151581 0.034767,-0.0286145 0.0944626,-0.0831692 0.139207,-0.151581zm-0.139207 0.27064c-0.0392567,0.0232103 -0.098204,0.0645178 -0.142602,0.114805l0.285203 0c-0.0443699,-0.0502868 -0.103345,-0.0915943 -0.142602,-0.114805zm0.186473 -0.514438l-0.372862 0c-0.0070116,0.0235152 -0.0112657,0.0477648 -0.0112657,0.0724856 0,0.0247346 0.00425407,0.0489565 0.0112657,0.0724856l0.372807 0c0.00698389,-0.0235291 0.0112518,-0.047751 0.0112518,-0.0724856 0,-0.0247485 -0.00424022,-0.0489842 -0.0111964,-0.0724856zm-0.272538 -0.307111c-0.0711276,-0.047557 -0.17996,-0.136491 -0.208907,-0.25063 -0.00105313,-0.00414322 -0.00153812,-0.00828644 -0.00152426,-0.0123604 5.54277e-005,-0.0220325 0.0149378,-0.0420419 0.0372474,-0.0477094 0.00408779,-0.00105313 0.00818944,-0.00153812 0.0122079,-0.00153812 0.0217277,-1.38569e-005 0.0414876,0.0144805 0.0475015,0.0362497l0.399093 0c0.00602776,-0.0217831 0.02576,-0.0362913 0.0474877,-0.0362636 0.00401851,0 0.0081063,0.000498849 0.0121941,0.00155198 0.0223235,0.00566748 0.0372058,0.0256769 0.0372751,0.0477094 0,0.00407393 -0.000484992,0.00821715 -0.00153812,0.0123604 -0.028961,0.114139 -0.137779,0.203073 -0.208907,0.25063 0.0789567,0.069631 0.210431,0.210916 0.210431,0.379597 0,0.16868 -0.131474,0.309965 -0.210431,0.37961 0.0711276,0.0475431 0.179946,0.136491 0.208907,0.250644 0.00105313,0.00414322 0.00153812,0.00827258 0.00153812,0.0123604 -6.92846e-005,0.0220048 -0.0149516,0.042028 -0.0372751,0.0477094 -0.0261896,0.00665132 -0.0525732,-0.00896543 -0.0596818,-0.0347254l-0.399093 0c-0.00597233,0.0215752 -0.0253582,0.036028 -0.046878,0.0362774l-0.00120555 0c-0.00382451,-6.92846e-005 -0.00773216,-0.000568134 -0.011626,-0.00155198 -0.0223096,-0.00568134 -0.037192,-0.0257046 -0.0372474,-0.0477094 -1.38569e-005,-0.00408779 0.000471135,-0.00821715 0.00152426,-0.0123604 0.0289471,-0.114153 0.137779,-0.203101 0.208907,-0.250644 -0.0789429,-0.0696449 -0.210431,-0.21093 -0.210431,-0.37961 0,-0.16868 0.131488,-0.309965 0.210431,-0.379597z"/>
  </g>
 </g>
</svg>
