<?xml version="1.0" encoding="UTF-8"?>
<!DOCTYPE svg PUBLIC "-//W3C//DTD SVG 1.1//EN" "http://www.w3.org/Graphics/SVG/1.1/DTD/svg11.dtd">
<!-- Creator: CorelDRAW -->
<svg xmlns="http://www.w3.org/2000/svg" xml:space="preserve" width="15.3658mm" height="14.0473mm" style="shape-rendering:geometricPrecision; text-rendering:geometricPrecision; image-rendering:optimizeQuality; fill-rule:evenodd; clip-rule:evenodd"
viewBox="0 0 1.97624 1.80666"
 xmlns:xlink="http://www.w3.org/1999/xlink">
 <defs>
  <style type="text/css">
   <![CDATA[
    .str0144 {stroke:currentColor;stroke-width:0.0257225}
    .str1144 {stroke:currentColor;stroke-width:0.0964595;stroke-linecap:round;stroke-linejoin:round}
    .fil0144 {fill:currentColor}
   ]]>
  </style>
 </defs>
 <g id="图层_x0020_1">
  <metadata id="CorelCorpID_0Corel-Layer"/>
  <path class="fil0144 str0144" d="M0.978396 1.47215c-0.0505191,0.0299025 -0.126426,0.0830452 -0.183543,0.147763l0.367086 0c-0.0571555,-0.0647179 -0.133024,-0.117861 -0.183543,-0.147763zm-6.43064e-005 -0.153113c0.0447058,-0.0368604 0.12159,-0.107083 0.179235,-0.195183l-0.358649 0c0.0576314,0.0882155 0.134593,0.158399 0.179415,0.195183zm-0.179093 -0.63617l0.358328 0c-0.0575799,-0.0880483 -0.134452,-0.158271 -0.17917,-0.195093 -0.0447444,0.0368218 -0.121578,0.107044 -0.179158,0.195093zm0.179158 -0.348322c0.0505191,-0.0298767 0.126388,-0.0830452 0.183543,-0.147763l-0.367086 0c0.0571169,0.0647179 0.133024,0.117886 0.183543,0.147763zm-0.240004 0.662085l0.479893 0c0.00902861,-0.0302626 0.0144947,-0.0614512 0.0144947,-0.09327 0,-0.0318445 -0.00546604,-0.0630202 -0.0144947,-0.0932957l-0.479816 0c-0.00900289,0.0302754 -0.0144818,0.0614512 -0.0144818,0.0932957 0,0.0318445 0.00545318,0.063046 0.0144046,0.09327zm0.350765 0.395291c0.0915465,0.0611939 0.231619,0.175659 0.268878,0.322561 0.00135043,0.00532457 0.00198064,0.010662 0.00196777,0.0159094 -9.00289e-005,0.0283462 -0.0192276,0.0541202 -0.0479468,0.0614126 -0.0052474,0.00133757 -0.0105334,0.00195491 -0.0157165,0.00195491 -0.0279604,3.85838e-005 -0.0534,-0.0186231 -0.0611168,-0.046635l-0.513666 0c-0.00775535,0.0280376 -0.0331564,0.0467121 -0.0611039,0.0466736 -0.00518309,0 -0.0104434,-0.000655925 -0.0157036,-0.0019935 -0.0287321,-0.00729234 -0.0478825,-0.0330663 -0.0479725,-0.0614126 -1.28613e-005,-0.0052474 0.000617341,-0.0105848 0.00196777,-0.0159094 0.0372848,-0.146901 0.177344,-0.261367 0.268878,-0.322561 -0.101617,-0.0896302 -0.27082,-0.271476 -0.27082,-0.488561 0,-0.217098 0.169203,-0.398944 0.27082,-0.488574 -0.0915337,-0.0611939 -0.231593,-0.175672 -0.268878,-0.322599 -0.00135043,-0.00532457 -0.00198064,-0.0106491 -0.00196777,-0.0158965 9.00289e-005,-0.0283334 0.0192405,-0.0541074 0.0479725,-0.0614126 0.0337094,-0.00856561 0.0676503,0.0115366 0.0768075,0.0446929l0.513666 0c0.00766532,-0.0277675 0.032629,-0.0463778 0.0603322,-0.0466864l0.00154335 0c0.00492587,7.71676e-005 0.00995463,0.000720231 0.0149577,0.0019935 0.0287192,0.0073052 0.0478568,0.0330792 0.0479468,0.0614126 1.28613e-005,0.0052474 -0.000617341,0.010572 -0.00196777,0.0158965 -0.0372591,0.146927 -0.177331,0.261405 -0.268878,0.322599 0.101604,0.0896302 0.270833,0.271476 0.270833,0.488574 0,0.217085 -0.169229,0.398931 -0.270833,0.488561z"/>
  <g id="_237130232">
   <line id="_237129656" class="fil1144 str1144" x1="0.0480369" y1="0.201047" x2="1.92821" y2= "1.55416" />
   <line id="_237129584" class="fil1144 str1144" x1="0.0586731" y1="1.56868" x2="1.91759" y2= "0.186514" />
  </g>
 </g>
</svg>
