<?xml version="1.0" encoding="UTF-8"?>
<!DOCTYPE svg PUBLIC "-//W3C//DTD SVG 1.1//EN" "http://www.w3.org/Graphics/SVG/1.1/DTD/svg11.dtd">
<!-- Creator: CorelDRAW -->
<svg xmlns="http://www.w3.org/2000/svg" xml:space="preserve" width="16.2393mm" height="18.9639mm" style="shape-rendering:geometricPrecision; text-rendering:geometricPrecision; image-rendering:optimizeQuality; fill-rule:evenodd; clip-rule:evenodd"
viewBox="0 0 1.90587 2.22564"
 xmlns:xlink="http://www.w3.org/1999/xlink">
 <defs>
  <style type="text/css">
   <![CDATA[
    .str033 {stroke:currentColor;stroke-width:0.0234724}
    .fil033 {fill:currentColor}
   ]]>
  </style>
 </defs>
 <g id="图层_x0020_1">
  <metadata id="CorelCorpID_0Corel-Layer"/>
  <path class="fil033" d="M0.891398 1.30813l0 -0.00372037c0,-0.00969408 0.0835498,-0.0932439 0.0932439,-0.0932439l0.0037321 0c0.0213598,0 0.0741022,0.0895118 0.111893,0.0895118l0.00372037 0c0.00252328,0 0.108032,-0.0430835 0.111059,-0.045595 0.0266763,-0.0221344 0.0157499,-0.0987951 0.0157499,-0.144625 0.00673657,-0.00450669 0.00656052,-0.00745247 0.0149284,-0.00745247l0.126809 0c0.00952978,0.0409358 -0.0088256,0.119979 0.0157147,0.148392 0.00374384,0.00433065 0.108877,0.0492802 0.114815,0.0492802l0.00746421 0c0.0332955,0 0.0858032,-0.0895118 0.108161,-0.0895118l0.00746421 0c0.00969408,0 0.0932439,0.0835498 0.0932439,0.0932439l0 0.00372037c0,0.0225687 -0.0932439,0.0783859 -0.0932439,0.111893 0,0.00217119 0.0445271,0.112433 0.0475785,0.11654 0.0213012,0.0286832 0.111717,0.0087904 0.150094,0.0177334 0.00194821,0.00836789 0.0037321,0.00857914 0.0037321,0.0186488l0 0.108161c0,0.00836789 -0.00295752,0.00819185 -0.00746421,0.0149167 -0.0458063,0 -0.122162,-0.0103865 -0.146045,0.0143299 -0.000880213,0.000915422 -0.0478953,0.11478 -0.0478953,0.116212 0,0.0380017 0.0932439,0.0940772 0.0932439,0.115625 0,0.00972929 -0.0872467,0.0969643 -0.096976,0.0969643 -0.018015,0 -0.0816016,-0.0932439 -0.115625,-0.0932439 -0.00039903,0 -0.109369,0.0438229 -0.113571,0.0468039 -0.0288358,0.0204327 -0.0169705,0.101506 -0.0169705,0.147148 -0.00672483,0.00450669 -0.00654879,0.00745247 -0.0149167,0.00745247l-0.111893 0c-0.0105274,0 -0.0143886,-0.00855567 -0.0186488,-0.0149167 0,-0.042485 0.0117596,-0.122584 -0.0162194,-0.140423 -0.00549253,-0.00349738 -0.113195,-0.0460645 -0.11431,-0.0460645 -0.0289179,0 -0.094664,0.0932439 -0.111893,0.0932439 -0.0135201,0 -0.096976,-0.0817307 -0.096976,-0.0932439l0 -0.00745247c0,-0.0223574 0.0895118,-0.0748651 0.0895118,-0.108161l0 -0.0037321c0,-0.00187779 -0.0430952,-0.111811 -0.0455129,-0.114862 -0.0189539,-0.0239301 -0.10525,-0.0156795 -0.148427,-0.0156795 -0.00388467,-0.00732337 -0.00746421,-0.0109968 -0.00746421,-0.0223809l0 -0.104428c0,-0.0105274 0.00855567,-0.0143886 0.0149167,-0.0186488 0.0452664,0 0.119075,0.0105508 0.140893,-0.0157499 0.00251154,-0.00302793 0.045595,-0.108536 0.045595,-0.111059l0 -0.0111846c0,-0.023355 -0.0895118,-0.0864135 -0.0895118,-0.10444zm-0.813071 -0.839172c0,-0.0604296 0.059831,-0.126821 0.115613,-0.126821l1.28675 0c0.0735624,0 0.130541,0.060899 0.130541,0.134274l0 0.179024 -0.223785 0c-0.0240826,0 -0.0447618,0.013966 -0.0447618,0.0372976l0 0.0037321c0,0.0187544 0.0185432,0.0372976 0.0372976,0.0372976l0.23125 0 0 0.399077c-0.0606995,0.00504656 -0.0961075,0.0783272 -0.115625,0.0783272 -0.0049644,0 -0.0290001,-0.0121235 -0.0410297,-0.0149167l0 -0.0932439c0,-0.0337885 -0.0450552,-0.0783272 -0.0820476,-0.0783272l-0.141738 0c-0.0350325,0 -0.0783155,0.0475198 -0.0783155,0.0857797l0 0.0857914 -0.0449613 0.0181676c-0.0138604,-0.0205266 -0.0729755,-0.0815782 -0.104229,-0.0815782l-0.0335655 0c-0.0377553,0 -0.156654,0.118723 -0.156654,0.156643l0 0.0335772c0,0.0312534 0.0610633,0.0903686 0.0820593,0.104428l-0.0196816 0.0443158 -0.088479 0.000434239c-0.0339293,0 -0.0820593,0.0446444 -0.0820593,0.0783272l0 0.0335655 -0.544535 0c-0.0369924,0 -0.0820476,-0.0445388 -0.0820476,-0.0783155l0 -0.772053 0.999558 0c0.0212542,0 0.0372976,-0.0196229 0.0372976,-0.0410297 0,-0.0221462 -0.0205266,-0.0372976 -0.0447618,-0.0372976l-0.992094 0 0 -0.186476zm1.63734 0.958529c0.0280964,-0.0419568 0.0820476,-0.055606 0.0820476,-0.126809 0,-0.0586339 -0.0813434,-0.101694 -0.108161,-0.141726 0,-0.185244 0,-0.370488 0,-0.555731 0,-0.112491 0.00987012,-0.167874 -0.0336594,-0.242329 -0.0270284,-0.0462171 -0.102609,-0.100802 -0.175198,-0.100802l-1.26437 0c-0.106201,0 -0.216321,0.0950278 -0.216321,0.19394l0 1.0555c0,0.0787497 0.0821298,0.152922 0.167839,0.152922l0.533351 0 0 0.0149167c0,0.0518856 0.0410884,0.096976 0.0932322,0.096976l0.0820593 0c0.00327439,0.0140599 0.0149167,0.0314882 0.0149167,0.04475 0,0.00903686 -0.0783272,0.0645255 -0.0783272,0.10444l0 0.0372976c0,0.0430483 0.120613,0.156643 0.167839,0.156643l0.0037321 0c0.0692786,0 0.107621,-0.0820476 0.123077,-0.0820476 0.00942415,0 0.0280964,0.0135318 0.0447618,0.0149167l0 0.0783155c0,0.0491863 0.0422854,0.096976 0.0895118,0.096976l0.115613 0c0.0966122,0 0.096976,-0.0739027 0.096976,-0.171571 0.00462405,-0.00244112 0.0410062,-0.018637 0.0447618,-0.018637 0.012769,0 0.059033,0.0820476 0.119345,0.0820476l0.00746421 0c0.0563571,0 0.171559,-0.117244 0.171559,-0.175292l0 -0.0037321c0,-0.0603122 -0.0820476,-0.106588 -0.0820476,-0.119357 0,-0.00941241 0.0135318,-0.0280964 0.0149167,-0.04475l0.096976 0c0.0359479,0 0.0783155,-0.0501722 0.0783155,-0.0895118l0 -0.115625c0,-0.0491746 -0.0422854,-0.096976 -0.0895118,-0.096976l-0.0857797 0 -0.0149167 -0.04475z"/>
  <path class="fil033" d="M1.12637 1.66245l0.354327 0c-0.00571552,0.0687153 -0.0848173,0.145458 -0.160375,0.145458l-0.0372976 0c-0.0392458,0 -0.081273,-0.026958 -0.101647,-0.0475432 -0.0455246,-0.0460293 -0.0301972,-0.0424028 -0.0550075,-0.0979149zm0.160375 -0.212589l0.0335772 0c0.0675886,0 0.151549,0.0730577 0.156643,0.134262l-0.346863 0c0.00489399,-0.0588335 0.0905329,-0.134262 0.156643,-0.134262zm-0.23869 0.145458l0 0.0633988c0,0.108161 0.121951,0.227518 0.231238,0.227518l0.0484821 0c0.118148,0 0.23497,-0.124744 0.23497,-0.246166l0 -0.0186488c0,-0.125894 -0.117115,-0.249887 -0.238702,-0.249887l-0.0223692 0c-0.124767,0 -0.253619,0.109745 -0.253619,0.223785z"/>
  <path class="fil033" d="M1.18978 0.688996c0,0.0248572 0.0128394,0.0447618 0.0372976,0.0447618l0.00372037 0c0.0187544,0 0.0372976,-0.0185432 0.0372976,-0.0372976l0 -0.0037321c0,-0.019083 -0.0196112,-0.0372976 -0.0372976,-0.0372976 -0.0190009,0 -0.0410179,0.0157265 -0.0410179,0.0335655z"/>
  <path class="fil033 str033" d="M0.389899 0.975194c-0.0333542,0.0197402 -0.0834677,0.0548197 -0.121176,0.0975511l0.242352 0c-0.0377201,-0.0427314 -0.0878101,-0.0778108 -0.121176,-0.0975511zm-3.52085e-005 -0.101095c0.0295165,-0.0243291 0.0802754,-0.0706987 0.118336,-0.128875l-0.236789 0c0.0380369,0.0582584 0.0888546,0.104593 0.118453,0.128875zm-0.118254 -0.420014l0.23659 0c-0.0380135,-0.0581293 -0.0887724,-0.104499 -0.118301,-0.128805 -0.02954,0.0243056 -0.0802637,0.0706753 -0.118289,0.128805zm0.118289 -0.229982c0.0333659,-0.0197168 0.0834559,-0.0548197 0.121176,-0.0975511l-0.242352 0c0.0377083,0.0427314 0.0878218,0.0778343 0.121176,0.0975511zm-0.15845 0.437137l0.316842 0c0.00595024,-0.019975 0.00956498,-0.040572 0.00956498,-0.0615797 0,-0.0210312 -0.00361474,-0.0416047 -0.00956498,-0.0616032l-0.316795 0c-0.00593851,0.0199984 -0.00956498,0.040572 -0.00956498,0.0616032 0,0.0210195 0.00360301,0.0416165 0.00951804,0.0615797zm0.231578 0.260977c0.060453,0.0404077 0.152922,0.115977 0.177521,0.212965 0.000891949,0.00352085 0.00131445,0.00704171 0.00130272,0.0105039 -5.86809e-005,0.0187192 -0.0126868,0.0357249 -0.0316525,0.0405485 -0.00347391,0.000880213 -0.00695955,0.00129098 -0.0103748,0.00129098 -0.0184727,2.34724e-005 -0.0352555,-0.0122995 -0.0403607,-0.0307957l-0.33914 0c-0.00511697,0.0185197 -0.0218762,0.0308427 -0.0403372,0.0308192 -0.00341523,0 -0.00688914,-0.000434239 -0.010363,-0.00131445 -0.0189774,-0.00482357 -0.0316173,-0.0218293 -0.0316759,-0.0405485 -1.17362e-005,-0.00346217 0.000410766,-0.00698302 0.00130272,-0.0105039 0.0246108,-0.0969878 0.11708,-0.172557 0.177521,-0.212965 -0.0670957,-0.0591738 -0.178812,-0.179235 -0.178812,-0.322557 0,-0.143346 0.111717,-0.263395 0.178812,-0.322569 -0.0604413,-0.0404077 -0.152911,-0.115989 -0.177521,-0.213 -0.000891949,-0.00350912 -0.00131445,-0.00702997 -0.00130272,-0.0104921 5.86809e-005,-0.0187075 0.0126985,-0.0357132 0.0316759,-0.0405368 0.0222518,-0.00566857 0.0446679,0.00760504 0.0507003,0.0295047l0.33914 0c0.00507003,-0.0183319 0.0215476,-0.0306197 0.0398326,-0.0308309l0.00102105 0c0.00325092,4.69447e-005 0.00657226,0.000481183 0.00988186,0.00132619 0.0189657,0.00482357 0.0315938,0.0218293 0.0316525,0.0405368 1.17362e-005,0.00346217 -0.000410766,0.00698302 -0.00130272,0.0104921 -0.024599,0.0970112 -0.117068,0.172592 -0.177521,0.213 0.067084,0.0591738 0.178812,0.179223 0.178812,0.322569 0,0.143322 -0.111728,0.263383 -0.178812,0.322557z"/>
 </g>
</svg>
