<?xml version="1.0" encoding="UTF-8"?>
<!DOCTYPE svg PUBLIC "-//W3C//DTD SVG 1.1//EN" "http://www.w3.org/Graphics/SVG/1.1/DTD/svg11.dtd">
<!-- Creator: CorelDRAW -->
<svg xmlns="http://www.w3.org/2000/svg" xml:space="preserve" width="12.7599mm" height="16.4536mm" style="shape-rendering:geometricPrecision; text-rendering:geometricPrecision; image-rendering:optimizeQuality; fill-rule:evenodd; clip-rule:evenodd"
     viewBox="0 0 0.868116 1.11942"
     xmlns:xlink="http://www.w3.org/1999/xlink">
 <defs>
  <style type="text/css">
   <![CDATA[
    .str0167 {stroke:currentColor;stroke-width:0.0136069}
    .fil0167 {fill:currentColor}
   ]]>
  </style>
 </defs>
 <g id="图层_x0020_1">
  <metadata id="CorelCorpID_0Corel-Layer5"/>
  <path class="fil0167" d="M0.759853 1.06627l-0.649616 0c-0.0270914,0 -0.0531487,-0.0215058 -0.0531487,-0.0472433l0 -0.124021c0,-0.027105 0.0221113,-0.0492095 0.0492163,-0.0492095l0.663386 0c0.0210704,0 0.0433109,0.027003 0.0433109,0.0511825l0 0.118108c0,0.0288399 -0.0247987,0.0511825 -0.0531487,0.0511825zm-0.704731 -0.322838l0 -0.122048c0,-0.0284249 0.0227576,-0.0511825 0.0511825,-0.0511825l0.0380042 0 0.615544 0c0.0275064,0 0.0511757,0.0216963 0.0511757,0.0492095l0 0.12796c0,0.0218664 -0.0277446,0.0433041 -0.0531487,0.0433041l-0.653548 0c-0.0237373,0 -0.0492095,-0.0239006 -0.0492095,-0.0472433zm-0.0548632 -0.332132l-0.000258532 -0.0359836 0 -0.0334663c0,-0.0618776 0.0551421,-0.102358 0.120081,-0.102358l0.0629934 0c0.0175189,0 0.0295271,0.0120013 0.0295271,0.0295271 0,0.0351263 -0.0557,0.0255947 -0.0905542,0.0255879 -0.0361128,0 -0.0669258,0.0137838 -0.0669258,0.0472433l0 0.122054c0,0.0284181 0.0227576,0.0511757 0.0511825,0.0511757l0.0379974 0 0.416114 0 0.199437 0c0.0275064,0 0.0511757,-0.0216963 0.0511757,-0.0492095l0 -0.124021c0,-0.0410317 -0.0374667,-0.0472433 -0.0807028,-0.0472433 -0.0426578,0 -0.0853087,0 -0.12796,0 -0.042651,0 -0.0853019,0 -0.127953,0 -0.0382899,0 -0.100392,0.0119265 -0.100392,-0.0275541l0 -0.00197301c0,-0.0141716 0.0143077,-0.0255879 0.0295271,-0.0255879l0.340555 0c0.0672727,0 0.122048,0.03763 0.122048,0.102358l0 0.0334663 -0.00017689 0.0351127 6.80347e-005 7.48382e-005 0.000108856 0.0514275c0,0.0474134 -0.0157024,0.0541829 -0.0334663,0.0807096 0.0157432,0.0235128 0.0334663,0.0347317 0.0334663,0.0767704l0 0.125987c0,0.0351944 -0.0194715,0.0519377 -0.0334663,0.072838 0.0165801,0.0110965 0.0354325,0.0462092 0.0354325,0.0748042l0 0.125987c0,0.0518221 -0.0487333,0.100392 -0.102358,0.100392l-0.665359 0c-0.0528018,0 -0.0984326,-0.0504341 -0.0984326,-0.104331l0 -0.124021c0,-0.0376164 0.0193083,-0.051686 0.0334663,-0.0728312 -0.0151037,-0.0225603 -0.0354325,-0.034861 -0.0354325,-0.0767704l0 -0.120081c0,-0.0520874 0.0311259,-0.0645854 0.0354325,-0.0807096 -0.0196893,-0.00525908 -0.0354325,-0.0542237 -0.0354325,-0.0846488l0 -0.0255879 0.000258532 -0.019145"/>
  <path class="fil0167" d="M0.651582 0.676497c0,-0.0100079 0.0116475,-0.0216487 0.0216555,-0.0216487l0.0118108 0c0.00970175,0 0.0196824,0.0154711 0.0196824,0.0275541 0,0.00989225 -0.0116203,0.0236217 -0.0236217,0.0236217l-0.00787162 0c-0.0100079,0 -0.0216555,-0.0116407 -0.0216555,-0.0216487l0 -0.00787842zm-0.0551217 -0.00393241l0 0.00590541c0,0.046699 0.03448,0.0826758 0.0807096,0.0826758l0.00590541 0c0.0376572,0 0.0748042,-0.0369429 0.0748042,-0.0748042l0 -0.0177162c0,-0.0306837 -0.0393581,-0.0688988 -0.070865,-0.0688988l-0.0216555 0c-0.0307109,0 -0.0688988,0.0405759 -0.0688988,0.072838z"/>
  <path class="fil0167" d="M0.651582 0.400908c0,-0.0100079 0.0116475,-0.0216555 0.0216555,-0.0216555l0.00787162 0c0.0120694,0 0.0236217,0.0138587 0.0236217,0.0255879 0,0.0104842 -0.0108583,0.0255947 -0.0196824,0.0255947l-0.0118108 0c-0.0100079,0 -0.0216555,-0.0116475 -0.0216555,-0.0216555l0 -0.00787162zm-0.0551217 0.00590541l0 0.00590541c0,0.038079 0.0389635,0.0728312 0.0807096,0.0728312l0.00590541 0c0.0394125,0 0.0748042,-0.0366299 0.0748042,-0.0767704l0 -0.00984463c0,-0.0370517 -0.0370993,-0.0748042 -0.0728312,-0.0748042l-0.00787842 0c-0.0463861,0 -0.0807096,0.0358475 -0.0807096,0.0826826z"/>
  <path class="fil0167" d="M0.653548 0.948152c0,-0.00911665 0.0144778,-0.0196824 0.0255947,-0.0196824 0.0336092,0 0.0357046,0.0531487 0,0.0531487 -0.0130491,0 -0.0255947,-0.00917108 -0.0255947,-0.0216555l0 -0.0118108zm-0.0551149 0.00197301l0 0.0157432c0,0.0360448 0.0415556,0.0708718 0.0807096,0.0708718 0.039535,0 0.0807096,-0.035589 0.0807096,-0.072838l0 -0.00984463c0,-0.0381199 -0.0343167,-0.0787366 -0.0688988,-0.0787366l-0.0196893 0c-0.0366299,0 -0.0728312,0.0377933 -0.0728312,0.0748042z"/>
  <polygon class="fil0167" points="0.86615,0.341847 0.86615,0.375314 "/>
  <path class="fil0167 str0167" d="M0.296822 0.762771c-0.026173,0.0154847 -0.0654902,0.0430184 -0.0950785,0.0765459l0.190164 0c-0.0296087,-0.0335275 -0.0689124,-0.0610612 -0.0950853,-0.0765459zm-2.72139e-005 -0.0793217c0.023159,-0.0190905 0.0629797,-0.0554755 0.092847,-0.10112l-0.185796 0c0.0298536,0.0457057 0.069722,0.0820635 0.092949,0.10112zm-0.0927858 -0.329567l0.185633 0c-0.0298264,-0.0456105 -0.069654,-0.0819887 -0.0928198,-0.101066 -0.0231794,0.0190769 -0.0629797,0.0554551 -0.092813,0.101066zm0.092813 -0.180449c0.026173,-0.0154779 0.0654766,-0.0430184 0.0950853,-0.0765459l-0.190164 0c0.0295883,0.0335275 0.0689056,0.061068 0.0950785,0.0765459zm-0.124327 0.342997l0.248606 0c0.00467399,-0.0156752 0.00750423,-0.0318403 0.00750423,-0.0483251 0,-0.0164916 -0.00283024,-0.0326431 -0.00750423,-0.0483251l-0.248572 0c-0.00466038,0.015682 -0.00750423,0.0318335 -0.00750423,0.0483251 0,0.0165052 0.00282344,0.0326635 0.00747021,0.0483251zm0.181707 0.204771c0.047427,0.031711 0.119986,0.0910033 0.139288,0.167107 0.000700758,0.00275541 0.00102732,0.00552442 0.00102732,0.00824581 -4.76243e-005,0.0146819 -0.00996028,0.0280303 -0.0248395,0.0318062 -0.00272139,0.000700758 -0.00545639,0.00102052 -0.00814376,0.00102052 -0.0144846,1.36069e-005 -0.0276629,-0.00964732 -0.0316634,-0.0241659l-0.266104 0c-0.00402085,0.0145254 -0.017172,0.0242 -0.0316566,0.0241795 -0.00268057,0 -0.00540876,-0.00033337 -0.00813015,-0.00103413 -0.014886,-0.00377593 -0.0248055,-0.0171243 -0.0248531,-0.0318062 -6.80347e-006,-0.00272139 0.000319763,-0.0054904 0.00102052,-0.00824581 0.0193151,-0.0761036 0.0918673,-0.135396 0.139294,-0.167107 -0.0526453,-0.0464337 -0.140301,-0.140635 -0.140301,-0.253096 0,-0.112468 0.0876559,-0.206669 0.140301,-0.253103 -0.047427,-0.0316974 -0.119979,-0.0910033 -0.139294,-0.167121 -0.000700758,-0.00275541 -0.00102732,-0.00551762 -0.00102052,-0.00823901 4.76243e-005,-0.0146751 0.00996709,-0.0280235 0.0248531,-0.0318062 0.0174645,-0.00444267 0.0350447,0.00597345 0.0397867,0.0231522l0.266104 0c0.00397323,-0.0143825 0.0169066,-0.0240299 0.0312552,-0.0241863l0.00080281 0c0.0025445,3.40174e-005 0.00515703,0.000367388 0.00774916,0.00103413 0.0148792,0.00378273 0.0247919,0.0171311 0.0248395,0.0318062 0,0.00272139 -0.000326567,0.0054836 -0.00102732,0.00823901 -0.0193015,0.0761173 -0.0918605,0.135423 -0.139288,0.167121 0.0526385,0.0464337 0.140308,0.140635 0.140308,0.253103 0,0.112461 -0.0876696,0.206662 -0.140308,0.253096z"/>
 </g>
</svg>
