<?xml version="1.0" encoding="UTF-8"?>
<!DOCTYPE svg PUBLIC "-//W3C//DTD SVG 1.1//EN" "http://www.w3.org/Graphics/SVG/1.1/DTD/svg11.dtd">
<!-- Creator: CorelDRAW -->
<svg xmlns="http://www.w3.org/2000/svg" xml:space="preserve" width="13.6101mm" height="18.1977mm" style="shape-rendering:geometricPrecision; text-rendering:geometricPrecision; image-rendering:optimizeQuality; fill-rule:evenodd; clip-rule:evenodd"
viewBox="0 0 5.7445 7.68082"
 xmlns:xlink="http://www.w3.org/1999/xlink">
 <defs>
  <style type="text/css">
   <![CDATA[
    .str0799 {stroke:currentColor;stroke-width:0.0844152}
    .fil0799 {fill:currentColor}
   ]]>
  </style>
 </defs>
 <g id="图层_x0020_1">
  <metadata id="CorelCorpID_0Corel-Layer"/>
  <path class="fil0799" d="M0.799032 2.45463c0,-0.0706978 0.081123,-0.151188 0.172798,-0.151188l0.302333 0 0.839636 0 0.024185 0 0.691065 0c0.130042,0 0.346018,0.496699 0.604709,0.496699l0.0647887 0c0.26097,0 0.468758,-0.496699 0.604666,-0.496699l0.51831 0c0.0601459,0 0.151145,0.0910418 0.151145,0.151188l0 1.44692 -0.237544 0c-0.100792,0 -0.151145,0.0503537 -0.151145,0.151188l0 0.0215681c0,0.0596816 0.0702757,0.104337 0.107967,0.129577 0.337661,0 0.95022,-0.102565 0.95022,0.237544l0 2.72108c0,0.106448 -0.169801,0.215976 -0.302333,0.215976l-4.53517 0c-0.155662,0 -0.302333,-0.108769 -0.302333,-0.259155l0 -3.5849c0,-0.109782 0.127762,-0.237587 0.237544,-0.237587l1.40374 0c0.497417,0 -0.0077662,0.907042 0.626277,0.907042l0.799075 0c0.0672367,0 0.129577,-0.0683341 0.129577,-0.151145 0,-0.251009 -0.697734,-0.151188 -0.945915,-0.155493l-0.0475258 -0.0388732c0,-0.493576 -0.0857237,-0.863863 -0.561488,-0.863863l-1.14459 0 0 -0.539878zm2.54833 -1.96523c0.0246492,-0.036805 0.0469771,-0.086399 0.107967,-0.086399l0.0216103 0c0.06099,0 0.0833178,0.049594 0.107967,0.086399 0,0.302291 0.00147727,0.605004 -0.000211038,0.907253 -0.00312336,0.553215 0.49691,0.225178 0.49691,0.410089 0,0.00759737 -0.580861,0.691065 -0.626277,0.691065 -0.00873698,0 -0.294145,-0.322086 -0.329642,-0.361382 -0.0772399,-0.0854704 -0.272197,-0.267259 -0.275025,-0.394472l0.259155 0c0.366869,0 0.237544,-0.882055 0.237544,-1.25255zm-2.0732 1.51171l-0.367122 0c-0.186938,0.0435583 -0.410342,0.197067 -0.410342,0.4103l0 0.583098c-0.217876,0.00485388 -0.496699,0.270466 -0.496699,0.475131l0 3.69287c0,0.327616 0.323775,0.51831 0.669455,0.51831l4.40559 0c0.375352,0 0.669455,-0.194619 0.669455,-0.561488l0 -2.74269c0,-0.209814 -0.29022,-0.475089 -0.51831,-0.475089l-0.151145 0 0 -1.49014c0,-0.210996 -0.245944,-0.4103 -0.475131,-0.4103l-0.259155 0c0.0176006,-0.075425 0.0432206,-0.0727237 0.0432206,-0.151188l0 -0.107967c0,-0.159038 -0.176723,-0.302333 -0.345554,-0.302333l-0.129577 0 0 -0.92861c0,-0.170645 -0.19884,-0.410342 -0.367122,-0.410342l-0.151188 0c-0.181746,0 -0.367122,0.237924 -0.367122,0.431911l0 0.907042 -0.129577 0c-0.185629,0 -0.345512,0.13785 -0.345512,0.323943l0 0.0863568c0,0.0583309 0.0102987,0.059555 0.0215681,0.108009l0.0248603 0.042081c-0.130886,0.0010974 -0.370583,0.0341882 -0.456771,-0.0205129l-0.863821 0.0216103z"/>
  <path class="fil0799" d="M3.95203 4.20388c0.073188,0 0.151188,-0.0779575 0.151188,-0.151145 0,-0.0611166 -0.0685452,-0.151188 -0.129577,-0.151188l-0.0647887 0c-0.0503537,0 -0.107967,0.0576134 -0.107967,0.107967l0 0.086399c0,0.0698114 0.0783795,0.107967 0.151145,0.107967z"/>
  <path class="fil0799" d="M2.13798 1.9795c0.086188,0.0547011 0.325885,0.0216103 0.456771,0.0205129l-0.0248603 -0.042081c0,0.0394219 -0.37071,0.0215681 -0.431911,0.0215681z"/>
  <path class="fil0799 str0799" d="M1.54792 4.31252c-0.147853,0.0874964 -0.36995,0.243031 -0.537092,0.432375l1.07418 0c-0.167227,-0.189343 -0.389239,-0.344878 -0.537092,-0.432375zm-0.00016883 -0.448076c0.130801,-0.10784 0.355768,-0.313349 0.524472,-0.571154l-1.04949 0c0.168619,0.258184 0.393839,0.463524 0.525021,0.571154zm-0.524092 -1.86161l1.04856 0c-0.168493,-0.257635 -0.393459,-0.463144 -0.524303,-0.5709 -0.130928,0.107756 -0.355768,0.313265 -0.524261,0.5709zm0.524261 -1.01931c0.147853,-0.087412 0.369865,-0.242989 0.537092,-0.432375l-1.07418 0c0.167142,0.189386 0.389239,0.344963 0.537092,0.432375zm-0.702293 1.9375l1.40429 0c0.026422,-0.0885516 0.0424187,-0.179847 0.0424187,-0.272957 0,-0.0931944 -0.0159967,-0.184405 -0.0424187,-0.272999l-1.40408 0c-0.0263376,0.0885938 -0.0423764,0.179804 -0.0423764,0.272999 0,0.0931944 0.0159545,0.18449 0.0421654,0.272957zm1.0264 1.1567c0.267934,0.179129 0.67777,0.514047 0.786792,0.943931 0.00396752,0.0155746 0.00582465,0.0312336 0.00578244,0.046555 -0.000253246,0.082938 -0.0562628,0.158363 -0.140298,0.17972 -0.0153636,0.00392531 -0.0308116,0.00574024 -0.0459641,0.00574024 -0.0818406,8.44152e-005 -0.156295,-0.05449 -0.178876,-0.136499l-1.50314 0c-0.0227077,0.0820516 -0.0969931,0.136668 -0.178834,0.136584 -0.0151103,0 -0.0305161,-0.00189934 -0.0459219,-0.00582465 -0.0840776,-0.0213571 -0.140129,-0.0967821 -0.140383,-0.17972 -4.22076e-005,-0.0153214 0.00181493,-0.0309804 0.00578244,-0.046555 0.109064,-0.429885 0.5189,-0.764802 0.786792,-0.943931 -0.297353,-0.262278 -0.792532,-0.79439 -0.792532,-1.42966 0,-0.635309 0.49518,-1.16742 0.792532,-1.4297 -0.267892,-0.179087 -0.677728,-0.514089 -0.786792,-0.944016 -0.00396752,-0.0155746 -0.00582465,-0.0311914 -0.00578244,-0.046555 0.000253246,-0.0828958 0.056305,-0.158321 0.140383,-0.179678 0.0986392,-0.0250713 0.197954,0.0337239 0.224756,0.130759l1.50314 0c0.0224545,-0.0812075 0.0954736,-0.135697 0.176554,-0.136584l0.00451622 0c0.0143928,0.000211038 0.0291233,0.00206817 0.0437693,0.00582465 0.0840354,0.0213571 0.140045,0.0967821 0.140298,0.179678 4.22076e-005,0.0153636 -0.00181493,0.0309804 -0.00578244,0.046555 -0.109022,0.429927 -0.518858,0.764929 -0.786792,0.944016 0.29731,0.262278 0.792575,0.79439 0.792575,1.4297 0,0.635267 -0.495264,1.16738 -0.792575,1.42966z"/>
 </g>
</svg>
