<?xml version="1.0" encoding="UTF-8"?>
<!DOCTYPE svg PUBLIC "-//W3C//DTD SVG 1.1//EN" "http://www.w3.org/Graphics/SVG/1.1/DTD/svg11.dtd">
<!-- Creator: CorelDRAW -->
<svg xmlns="http://www.w3.org/2000/svg" xml:space="preserve" width="14.2364mm" height="12.9558mm" style="shape-rendering:geometricPrecision; text-rendering:geometricPrecision; image-rendering:optimizeQuality; fill-rule:evenodd; clip-rule:evenodd"
viewBox="0 0 26.6832 24.283"
 xmlns:xlink="http://www.w3.org/1999/xlink">
 <defs>
  <style type="text/css">
   <![CDATA[
    .str3 {stroke:white;stroke-width:0.374859}
    .str4 {stroke:#1F1A17;stroke-width:1.12458}
    .str2 {stroke:#1F1A17;stroke-width:0.95083;stroke-linecap:round;stroke-linejoin:round}
    .str0 {stroke:white;stroke-width:1.8743}
    .str1 {stroke:white;stroke-width:1.8743;stroke-linecap:round;stroke-linejoin:round}
    .fil0 {fill:none}
    .fil1 {fill:#1F1A17}
   ]]>
  </style>
 </defs>
 <g id="图层_x0020_1">
  <metadata id="CorelCorpID_0Corel-Layer"/>
  <g id="_50160648">
   <path id="_50162520" class="fil0 str0" d="M5.71098 12.6022l0.316756 0.316943 4.75434 4.75415 0.316756 0.316943c1.60777,0 1.85911,-2.30351 1.26796,-3.48638l3.80332 -2.53555 0.316943 -0.316943c0.322004,-0.27852 0.388541,-0.587404 0,-0.95083l-3.48638 -3.48638c-0.514307,-0.238598 -0.936773,-0.132888 -1.26777,0.316756l-2.53573 3.80351c-1.10021,-0.550293 -3.48619,-0.412345 -3.48619,1.26777z"/>
   <line id="_50162160" class="fil0 str1" x1="8.24634" y1="15.4547" x2="3.49219" y2= "20.2088" />
   <line id="_50162136" class="fil0 str2" x1="8.24634" y1="15.4547" x2="3.49219" y2= "20.2088" />
   <line id="_50162016" class="fil0 str2" x1="14.9018" y1="13.0659" x2="14.9569" y2= "19.7892" />
   <line id="_50160864" class="fil0 str2" x1="17.9424" y1="10.6771" x2="22.9961" y2= "15.1119" />
   <line id="_50160888" class="fil0 str2" x1="5.65869" y1="4.27602" x2="11.8851" y2= "6.81306" />
   <path id="_50160408" class="fil1 str3" d="M18.8642 5.01768c-0.148069,-0.583468 -0.310758,-1.51987 -0.253405,-2.40322l2.6555 2.669c-0.883918,0.0526677 -1.81919,-0.114519 -2.4021,-0.265775zm-1.11389 1.10733c0.0554792,0.591715 0.101025,1.65856 -0.122579,2.7151l-2.5944 -2.60771c1.05823,-0.219293 2.12526,-0.167375 2.71698,-0.107397zm-5.92127 3.2997l2.59215 2.60546c-1.05654,0.218168 -2.12339,0.167187 -2.71454,0.108334 -0.055854,-0.591528 -0.101212,-1.65819 0.122392,-2.71379zm-1.23666 3.82244c0.148257,0.583468 0.310571,1.51968 0.253405,2.40341l-2.65531 -2.66918c0.883543,-0.0528551 1.81919,0.114519 2.40191,0.265775zm3.07816 -6.53454l3.47138 3.48938c-0.154817,0.284518 -0.342059,0.549918 -0.573347,0.780082 -0.231476,0.230351 -0.497813,0.416094 -0.783081,0.569411l-3.47101 -3.48881c0.155004,-0.284331 0.342059,-0.549731 0.573534,-0.780082 0.231663,-0.230351 0.497813,-0.416468 0.782518,-0.569973zm5.41147 -0.309071c1.10733,0.223041 2.95277,0.41347 4.29045,-0.37842 0.0483568,-0.0286767 0.0918405,-0.0626015 0.129889,-0.10065 0.205423,-0.20561 0.254529,-0.531175 0.0997125,-0.792827 -0.0283019,-0.047982 -0.0618518,-0.0907159 -0.0993377,-0.128389 -0.202049,-0.203736 -0.521804,-0.253592 -0.781394,-0.10721l-3.71579 -3.73491c0.147882,-0.259215 0.0999,-0.578782 -0.102711,-0.781956 -0.0372985,-0.0374859 -0.0802199,-0.0710358 -0.128014,-0.0997125 -0.260902,-0.156129 -0.586842,-0.108897 -0.793577,0.0954016 -0.0380482,0.0378608 -0.0723478,0.081157 -0.101399,0.129514 -0.79845,1.33375 -0.61758,3.18012 -0.40035,4.28839 -1.38679,-0.0905285 -3.93302,-0.00543546 -5.51155,1.56504 -1.57853,1.57047 -1.67674,4.11614 -1.59334,5.50349 -1.10715,-0.223041 -2.95258,-0.413282 -4.29064,0.378608 -0.0485443,0.0284893 -0.0918405,0.0626015 -0.129889,0.10065 -0.205423,0.205423 -0.254154,0.531175 -0.0995251,0.793014 0.181619,0.30701 0.573347,0.408409 0.880544,0.235037l3.71579 3.73491c-0.146382,0.256591 -0.101025,0.572785 0.0970885,0.776521l0.0110583 0.0112458c0.0361739,0.0352368 0.077221,0.0670998 0.122766,0.0942771 0.260902,0.156129 0.586655,0.108709 0.793389,-0.0955891 0.0382356,-0.0378608 0.0723478,-0.0809696 0.101212,-0.129326 0.798825,-1.33375 0.618143,-3.1803 0.400724,-4.28858 1.38679,0.0903411 3.93321,0.00543546 5.51174,-1.56504 1.57853,-1.57047 1.67637,-4.11633 1.59315,-5.50349z"/>
   <circle id="_50160672" class="fil0 str4" cx="2.48831" cy="21.7353" r="1.92603"/>
   <circle id="_50160336" class="fil0 str4" cx="15.024" cy="21.7947" r="1.92603"/>
   <circle id="_50160504" class="fil0 str4" cx="24.1949" cy="16.842" r="1.92603"/>
   <circle id="_50160168" class="fil0 str4" cx="3.84699" cy="3.92253" r="1.92603"/>
  </g>
 </g>
</svg>
