<?xml version="1.0" encoding="UTF-8"?>
<!DOCTYPE svg PUBLIC "-//W3C//DTD SVG 1.1//EN" "http://www.w3.org/Graphics/SVG/1.1/DTD/svg11.dtd">
<!-- Creator: CorelDRAW -->
<svg xmlns="http://www.w3.org/2000/svg" xml:space="preserve" width="11.157mm" height="11.9706mm" style="shape-rendering:geometricPrecision; text-rendering:geometricPrecision; image-rendering:optimizeQuality; fill-rule:evenodd; clip-rule:evenodd"
viewBox="0 0 1.66887 1.79057"
 xmlns:xlink="http://www.w3.org/1999/xlink">
 <defs>
  <style type="text/css">
   <![CDATA[
    .str0 {stroke:white;stroke-width:0.0299161}
    .fil0 {fill:#1F1A17}
    .fil1 {fill:black}
    .fil2 {fill:#0F0F0F}
   ]]>
  </style>
 </defs>
 <g id="图层_x0020_1">
  <metadata id="CorelCorpID_0Corel-Layer"/>
  <path class="fil0 str0" d="M0.38882 0.330034c-0.0494962,-0.0292879 -0.123853,-0.0813568 -0.179811,-0.144749l0.359621 0c-0.055988,0.0633922 -0.130315,0.115461 -0.179811,0.144749zm-5.98322e-005 0.150014c0.0437972,0.0360938 0.119111,0.104901 0.175593,0.191209l-0.35135 0c0.0564367,-0.0864276 0.13184,-0.155175 0.175757,-0.191209zm-0.175458 0.623227l0.35105 0c-0.0564068,0.0862631 -0.131721,0.155055 -0.175533,0.191134 -0.0438271,-0.0360788 -0.119096,-0.104871 -0.175518,-0.191134zm0.175518 0.341253c0.0494962,0.0292729 0.123823,0.0813568 0.179811,0.144749l-0.359621 0c0.0559581,-0.0633922 0.130315,-0.115476 0.179811,-0.144749zm-0.235126 -0.648641l0.470146 0c0.00884021,0.0296469 0.0141952,0.0602062 0.0141952,0.0913787 0,0.0312025 -0.00535498,0.0617468 -0.0141952,0.0913937l-0.470072 0c-0.00881029,-0.0296469 -0.0141802,-0.0601912 -0.0141802,-0.0913937 0,-0.0312025 0.00534002,-0.0617618 0.0141054,-0.0913787zm0.343631 -0.387249c0.0896885,-0.0599519 0.226914,-0.172077 0.263411,-0.316004 0.00133127,-0.00522036 0.00194455,-0.0104407 0.00192959,-0.0155863 -7.47902e-005,-0.0277621 -0.0188322,-0.0530113 -0.0469683,-0.0601613 -0.00514557,-0.00131631 -0.0103211,-0.00191463 -0.0153918,-0.00191463 -0.0274031,-4.48741e-005 -0.0523233,0.0182339 -0.059892,0.0456968l-0.503219 0c-0.00759869,-0.0274779 -0.0324739,-0.0457716 -0.0598621,-0.0457417 -0.00507078,0 -0.0102313,0.000643196 -0.0153769,0.0019595 -0.028151,0.00714995 -0.0469084,0.0323991 -0.0469982,0.0601613 -1.4958e-005,0.00514557 0.00061328,0.0103659 0.00192959,0.0155863 0.0365276,0.143926 0.173738,0.256052 0.263411,0.316004 -0.0995458,0.0878187 -0.265326,0.265954 -0.265326,0.478628 0,0.212689 0.16578,0.390839 0.265326,0.478643 -0.0896735,0.0599519 -0.226884,0.172107 -0.263411,0.316049 -0.00131631,0.0052054 -0.00194455,0.0104258 -0.00192959,0.0155713 8.97483e-005,0.0277621 0.0188471,0.0529964 0.0469982,0.0601613 0.0330274,0.00839147 0.0662791,-0.0113083 0.075239,-0.0437822l0.503219 0c0.0075239,0.0271937 0.0319803,0.0454276 0.0591142,0.0457268l0.00151076 0c0.00483145,-5.98322e-005 0.00975265,-0.000703028 0.0146589,-0.00194455 0.0281361,-0.00716491 0.0468935,-0.0323991 0.0469683,-0.0601613 1.4958e-005,-0.00514557 -0.000598322,-0.0103659 -0.00192959,-0.0155713 -0.0364976,-0.143941 -0.173723,-0.256097 -0.263411,-0.316049 0.0995458,-0.0878038 0.265341,-0.265954 0.265341,-0.478643 0,-0.212674 -0.165795,-0.390809 -0.265341,-0.478628z"/>
  <g id="_50159544">
   <path id="_50159616" class="fil1" d="M0.854135 1.32313c0,-0.191942 0.164404,-0.354476 0.354461,-0.354476 0.197506,0 0.359756,0.161517 0.359756,0.359756 0,0.186467 -0.154427,0.354476 -0.33859,0.354476l-0.0423313 0c-0.173962,0 -0.333295,-0.166827 -0.333295,-0.343886l0 -0.0158705zm-0.100518 -0.0264608l0 0.0423313c0,0.136941 0.0614776,0.244295 0.130943,0.313446 0.0874597,0.0870708 0.161801,0.117391 0.31388,0.135924 0.231012,0.028151 0.470431,-0.212898 0.470431,-0.422924l0 -0.063482c0,-0.226285 -0.215157,-0.433828 -0.444404,-0.433828 -0.249799,0 -0.470849,0.191448 -0.470849,0.428533z"/>
   <path id="_50160024" class="fil2" d="M0.954653 1.32841c0,0.0331022 0.0293327,0.0529066 0.063482,0.0529066l0.386217 0c0.0254586,0 0.0581868,-0.0145093 0.0581868,-0.0370361l0 -0.031741c0,-0.0225119 -0.0327282,-0.0370361 -0.0581868,-0.0370361l-0.386217 0c-0.0341492,0 -0.063482,0.0198045 -0.063482,0.0529066z"/>
  </g>
 </g>
</svg>
