<?xml version="1.0" encoding="UTF-8"?>
<!DOCTYPE svg PUBLIC "-//W3C//DTD SVG 1.1//EN" "http://www.w3.org/Graphics/SVG/1.1/DTD/svg11.dtd">
<!-- Creator: CorelDRAW -->
<svg xmlns="http://www.w3.org/2000/svg" xml:space="preserve" width="12.1149mm" height="11.8637mm" style="shape-rendering:geometricPrecision; text-rendering:geometricPrecision; image-rendering:optimizeQuality; fill-rule:evenodd; clip-rule:evenodd"
viewBox="0 0 3.75062 3.67285"
 xmlns:xlink="http://www.w3.org/1999/xlink">
 <defs>
  <style type="text/css">
   <![CDATA[
    .str2 {stroke:#1F1A17;stroke-width:0.0619175}
    .str0 {stroke:white;stroke-width:0.0619175}
    .str1 {stroke:white;stroke-width:0.154794}
    .fil0 {fill:#1F1A17}
   ]]>
  </style>
 </defs>
 <g id="图层_x0020_1">
  <metadata id="CorelCorpID_0Corel-Layer"/>
  <path class="fil0 str0" d="M0.804742 0.683074c-0.102442,-0.0606172 -0.256338,-0.168385 -0.372155,-0.299588l0.74431 0c-0.115879,0.131203 -0.269713,0.238971 -0.372155,0.299588zm-0.000123835 0.310485c0.0906472,0.0747035 0.246524,0.217114 0.363425,0.395746l-0.72719 0c0.116807,-0.17888 0.27287,-0.321166 0.363765,-0.395746zm-0.363146 1.2899l0.726571 0c-0.116745,0.178539 -0.272623,0.320918 -0.363301,0.395591 -0.0907091,-0.0746725 -0.246494,-0.217052 -0.36327,-0.395591zm0.36327 0.706293c0.102442,0.0605863 0.256276,0.168385 0.372155,0.299588l-0.74431 0c0.115817,-0.131203 0.269713,-0.239002 0.372155,-0.299588zm-0.486641 -1.3425l0.973064 0c0.0182966,0.0613602 0.0293798,0.124609 0.0293798,0.189127 0,0.0645799 -0.0110832,0.127798 -0.0293798,0.189158l-0.97291 0c-0.0182347,-0.0613602 -0.0293489,-0.124578 -0.0293489,-0.189158 0,-0.0645799 0.0110523,-0.127829 0.0291941,-0.189127zm0.711215 -0.801491c0.185629,-0.124083 0.469644,-0.356149 0.545184,-0.654034 0.00275533,-0.0108046 0.00402464,-0.0216092 0.00399368,-0.032259 -0.000154794,-0.0574594 -0.0389771,-0.109718 -0.0972105,-0.124516 -0.0106498,-0.00272437 -0.0213615,-0.00396272 -0.0318565,-0.00396272 -0.0567164,-9.28762e-005 -0.108294,0.0377387 -0.123959,0.094579l-1.04151 0c-0.015727,-0.0568712 -0.0672114,-0.0947338 -0.123897,-0.0946718 -0.010495,0 -0.0211758,0.00133123 -0.0318256,0.0040556 -0.0582644,0.0147983 -0.0970866,0.0670566 -0.0972724,0.124516 -3.09587e-005,0.0106498 0.00126931,0.0214544 0.00399368,0.032259 0.0756013,0.297885 0.359586,0.529952 0.545184,0.654034 -0.20603,0.181759 -0.549146,0.550446 -0.549146,0.990618 0,0.440202 0.343116,0.808921 0.549146,0.990649 -0.185598,0.124083 -0.469582,0.356211 -0.545184,0.654127 -0.00272437,0.0107736 -0.00402464,0.0215782 -0.00399368,0.0322281 0.000185752,0.0574594 0.039008,0.109687 0.0972724,0.124516 0.0683569,0.0173679 0.137178,-0.0234048 0.155722,-0.0906162l1.04151 0c0.0155722,0.056283 0.0661898,0.0940217 0.122349,0.0946409l0.00312683 0c0.00999967,-0.000123835 0.0201851,-0.00145506 0.0303396,-0.00402464 0.0582334,-0.0148292 0.0970557,-0.0670566 0.0972105,-0.124516 3.09587e-005,-0.0106498 -0.00123835,-0.0214544 -0.00399368,-0.0322281 -0.0755393,-0.297916 -0.359555,-0.530045 -0.545184,-0.654127 0.20603,-0.181728 0.549177,-0.550446 0.549177,-0.990649 0,-0.440171 -0.343147,-0.808859 -0.549177,-0.990618z"/>
  <path class="fil0 str1" d="M3.49112 3.45614l-1.19005 0c-0.0326924,0 -0.0650134,-0.0323209 -0.0650134,-0.0650443l0 -0.910404c0,-0.0365313 0.028482,-0.0650443 0.0650134,-0.0650443l1.19656 0c0.036005,0 0.0650443,0.037491 0.0650443,0.0715457l0 0.884398c0,0.0470263 -0.0260053,0.0845483 -0.0715457,0.0845483zm-1.89238 -1.36565l0 0.240611c0,0.0438066 0.00786352,0.078047 0.0520107,0.078047l0.019535 0c0.0179561,0 0.0314231,-0.0211758 0.039008,-0.0325067 0,-0.183957 -0.0181418,-0.399739 0.0455713,-0.5202 0.0563759,-0.10656 0.188755,-0.214668 0.351103,-0.214668 0.23024,0 0.409708,0.173864 0.409708,0.403207l0 0.253614 -0.188601 0c-0.0983559,0 -0.201572,0.0690999 -0.201572,0.156063l0 0.962476c0,0.0663446 0.0912664,0.149562 0.162564,0.149562l1.21609 0c0.105755,0 0.169066,-0.0972105 0.169066,-0.208105l0 -0.877897c0,-0.0958792 -0.0913283,-0.182099 -0.188601,-0.182099l-0.858393 0 0 -0.279619c0,-0.266338 -0.240085,-0.487755 -0.513729,-0.487755l-0.019535 0c-0.161759,0 -0.276276,0.0849198 -0.359276,0.167487 -0.0914831,0.0909568 -0.134949,0.211541 -0.134949,0.391783z"/>
  <path class="fil0 str1" d="M2.84084 2.81886l0 0.240611c0,0.0268103 0.0218569,0.058512 0.0455094,0.058512l0.0130027 0c0.0314541,0 0.0520417,-0.0205566 0.0520417,-0.0520107l0 -0.260146c0,-0.0237454 -0.0179561,-0.0520107 -0.039039,-0.0520107l-0.019504 0c-0.0387603,0 -0.0520107,0.026253 -0.0520107,0.0650443z"/>
  <path class="fil0 str2" d="M3.49112 3.45614l-1.19005 0c-0.0326924,0 -0.0650134,-0.0323209 -0.0650134,-0.0650443l0 -0.910404c0,-0.0365313 0.028482,-0.0650443 0.0650134,-0.0650443l1.19656 0c0.036005,0 0.0650443,0.037491 0.0650443,0.0715457l0 0.884398c0,0.0470263 -0.0260053,0.0845483 -0.0715457,0.0845483zm-1.89238 -1.36565l0 0.240611c0,0.0438066 0.00786352,0.078047 0.0520107,0.078047l0.019535 0c0.0179561,0 0.0314231,-0.0211758 0.039008,-0.0325067 0,-0.183957 -0.0181418,-0.399739 0.0455713,-0.5202 0.0563759,-0.10656 0.188755,-0.214668 0.351103,-0.214668 0.23024,0 0.409708,0.173864 0.409708,0.403207l0 0.253614 -0.188601 0c-0.0983559,0 -0.201572,0.0690999 -0.201572,0.156063l0 0.962476c0,0.0663446 0.0912664,0.149562 0.162564,0.149562l1.21609 0c0.105755,0 0.169066,-0.0972105 0.169066,-0.208105l0 -0.877897c0,-0.0958792 -0.0913283,-0.182099 -0.188601,-0.182099l-0.858393 0 0 -0.279619c0,-0.266338 -0.240085,-0.487755 -0.513729,-0.487755l-0.019535 0c-0.161759,0 -0.276276,0.0849198 -0.359276,0.167487 -0.0914831,0.0909568 -0.134949,0.211541 -0.134949,0.391783z"/>
  <path class="fil0" d="M2.84084 2.81886l0 0.240611c0,0.0268103 0.0218569,0.058512 0.0455094,0.058512l0.0130027 0c0.0314541,0 0.0520417,-0.0205566 0.0520417,-0.0520107l0 -0.260146c0,-0.0237454 -0.0179561,-0.0520107 -0.039039,-0.0520107l-0.019504 0c-0.0387603,0 -0.0520107,0.026253 -0.0520107,0.0650443z"/>
 </g>
</svg>
