<svg width="22.694899999999997" height="24.2502" xmlns="http://www.w3.org/2000/svg" xml:space="preserve" style="shape-rendering:geometricPrecision; text-rendering:geometricPrecision; image-rendering:optimizeQuality; fill-rule:evenodd; clip-rule:evenodd">
 <defs>
  <path d="m0,0z" id="svg_1"/>
  <path d="m186.002,248.002l101.998,0c-2.83275,20.8269 -1.66577,39.668 3.16214,56.3351c5.00673,16.6577 12.5074,31.9979 22.8408,45.8323c10.164,13.8344 21.8339,27.0006 34.8306,39.668c13.1662,12.498 26.3324,25.1654 39.8374,37.6634c13.4956,12.6674 25.9936,26.163 37.494,40.3362c11.6698,14.1638 20.8363,29.8333 27.9982,46.9993c7.00189,17.1659 10.6722,36.6658 10.8416,58.1609c-0.3388,39.8374 -9.00647,73.6704 -26.3418,101.669c-17.3259,27.9982 -41.4937,49.3332 -72.6634,64.0052c-31.0003,14.832 -67.3367,22.1632 -109,22.3326c-31.6685,-0.1694 -60.6642,-4.66793 -87.3354,-13.8344c-26.6618,-9.00647 -51.3284,-21.5045 -73.8304,-37.6728c-22.6714,-16.1589 -43.4983,-35 -62.8382,-56.4951l66.0004,-61.003c22.502,24.4972 45.6723,42.9995 69.5013,55.3375c23.9984,12.498 49.1732,18.6623 75.5056,18.6623c24.3278,-0.1694 44.6653,-4.49853 60.9936,-13.1662c16.3377,-8.49826 28.5064,-20.4975 36.6658,-35.6682c8.16887,-15.3308 12.338,-32.9955 12.338,-53.1636c-0.1694,-15.5002 -3.83034,-29.8333 -10.6628,-43.1689c-7.00189,-13.3356 -16.1683,-25.9936 -27.3394,-38.3316c-11.331,-12.1686 -23.4996,-24.3372 -36.6658,-36.6658c-13.1662,-12.338 -26.003,-25.1654 -38.501,-38.501c-12.6674,-13.3356 -23.669,-27.9982 -33.3343,-43.6677c-9.66525,-15.5002 -16.4977,-32.8355 -20.6669,-51.9966c-4.15973,-19.0011 -4.49853,-40.1668 -0.82818,-63.6664l0.00014,-0.0005zm-38.00234,-167.0005c0.1694,-17.8341 4.16914,-33.1649 11.9992,-46.3311c7.83007,-13.1662 18.5023,-23.3396 31.9979,-30.6709c13.505,-7.16188 28.8357,-10.8322 46.0017,-11.0016c17.1659,0.1694 32.6661,3.83975 46.3311,11.0016c13.6744,7.33128 24.5066,17.5047 32.5061,30.6709c7.83007,13.1662 11.9992,28.4969 12.1686,46.3311c-0.1694,17.8341 -4.33854,33.1649 -12.1686,46.1617c-7.99947,13.0062 -18.8317,23.0008 -32.5061,30.0027c-13.665,7.17129 -29.1651,10.6628 -46.3311,10.8322c-17.1659,-0.1694 -32.4967,-3.66094 -46.0017,-10.8322c-13.4956,-7.00189 -24.1678,-16.9965 -31.9979,-30.0027c-7.83007,-12.9968 -11.8298,-28.3275 -11.9992,-46.1617z" id="svg_2"/>
  <style type="text/css">
   <![CDATA[
    @font-face { font-family:"思源黑体 CN Medium";src:url("#FontID0") format(svg)}
    .str1 {stroke:#888;stroke-width:0.0364457}
    .str2 {stroke:white;stroke-width:0.0364457}
    .str0 {stroke-width:18.8223}
    .fil0 {fill:#888}
    .fnt0 {font-weight:500;font-size:1.9363;font-family:'思源黑体 CN Medium'}
   ]]>
  </style>
 </defs>
 <g>
  <title>background</title>
  <rect x="-1" y="-1" width="3.017709" height="3.087453" id="canvas_background" fill="none"/>
 </g>
 <g>
  <title>Layer 1</title>
  <g id="图层_x0020_1">
   <metadata id="CorelCorpID_0Corel-Layer"/>
   <path class="fil0" d="m0.30401,1.36126l0,0.09982c0,0.29982 0.16924,0.57987 0.32103,0.73167c0.15189,0.15189 0.4315,0.32557 0.73167,0.32557l0.09561,0.00291l0.17502,-0.02037l0.06995,0.16913l-0.24529,0.02983l-0.05445,0c-0.67997,0 -1.2705,-0.58084 -1.2705,-1.26142l0,-0.05899c0,-0.67814 0.58974,-1.25235 1.27503,-1.25235l0.0363,0c0.36216,0 0.68834,0.18234 0.87008,0.36413c0.09412,0.09414 0.20204,0.22811 0.25836,0.35872c0.05631,0.13053 0.12846,0.30481 0.12846,0.48866l0,0.17696c0,0.05775 -0.02748,0.11415 -0.02592,0.17283c0.10238,0.0359 0.12563,0.0471 0.18132,0.10283c0.08795,0.08803 0.20306,0.25667 0.20306,0.42765l0,0.09529c0,0.32176 -0.31599,0.62617 -0.63979,0.62617l-0.04537,0c-0.34126,0 -0.64434,-0.30942 -0.64434,-0.65793l0,-0.01815c0,-0.09309 0.01939,-0.16782 0.04601,-0.23531c0.01308,-0.03319 0.0992,-0.18167 0.0992,-0.18668l0,-0.01361c0,-0.03033 -0.03227,-0.05899 -0.06352,-0.05899c-0.05875,0 -0.13026,0.15203 -0.15039,0.20355c-0.03477,0.08896 -0.05835,0.17507 -0.05835,0.30011l-0.00106,0.01824l0.00578,0.08796l-0.20437,0.01631l-0.00454,0c-0.50195,0 -0.96195,-0.44538 -0.96195,-0.94379l0,-0.06353c0,-0.28482 0.13919,-0.52263 0.28246,-0.66588c0.13802,-0.13804 0.38444,-0.29153 0.6568,-0.29153l0.0726,0c0.11411,0 0.26664,0.03688 0.34487,0.07258c0.06648,0.03033 0.22416,0.11187 0.25855,0.1643l-0.07251,-0.00547c-0.02342,-0.00207 -0.05445,0.03251 -0.05445,0.06353l0,0.00907c0,0.07069 0.08995,0.05064 0.14793,0.06078c0.05143,0.00898 0.14597,0.02503 0.17527,-0.00983c0.01864,-0.02217 0.02546,-0.13796 0.026,-0.18272c0.00073,-0.05989 0.02327,-0.13594 -0.05427,-0.13594l-0.00453,0c-0.05445,0 -0.06353,0.05804 -0.06353,0.11344c-0.04647,-0.03113 -0.09036,-0.07092 -0.14336,-0.10622c-0.05029,-0.0335 -0.10542,-0.06068 -0.16375,-0.08581c-0.11099,-0.04784 -0.25754,-0.08476 -0.41437,-0.08476l-0.02722,0c-0.32734,0 -0.59283,0.15338 -0.76126,0.31411c-0.15351,0.14647 -0.33227,0.44604 -0.33227,0.74313zm-0.30402,0.04537l0,0.02723c0,0.75471 0.64363,1.39301 1.39755,1.39301l0.04084,0c0.07506,0 0.29053,-0.02819 0.33579,-0.04992c0.02936,0.01967 0.07391,0.07907 0.11614,0.11073c0.04789,0.03589 0.08187,0.06031 0.13639,0.09049c0.08583,0.04751 0.23255,0.08918 0.36457,0.08918l0.01815,0c0.21308,0 0.42199,-0.11569 0.52976,-0.22346c0.10717,-0.10717 0.24161,-0.30668 0.24161,-0.51615l0,-0.10436c0,-0.13423 -0.06844,-0.29372 -0.12154,-0.37758c-0.0263,-0.04155 -0.07632,-0.10598 -0.11089,-0.13867c-0.01633,-0.01544 -0.1351,-0.10526 -0.1351,-0.11446l-0.00144,-0.01383l0.01051,-0.07692l0,-0.15428c0,-0.3814 -0.22131,-0.74496 -0.41404,-0.93814c-0.19471,-0.19513 -0.56068,-0.40951 -0.94722,-0.40951l-0.05445,0c-0.77631,0 -1.40662,0.62995 -1.40662,1.40664l-0.00001,0z" id="svg_3"/>
   <text x="0.84011" y="2.1068" class="fil0 str1 fnt0" id="svg_4">？</text>
   <path class="fil0 str2" d="m2.35157,2.42174c-0.05179,0.03065 -0.1296,0.08512 -0.18815,0.15147l0.3763,0c-0.05857,-0.06635 -0.13634,-0.12082 -0.18815,-0.15147zm-0.00005,-0.15697c0.04583,-0.03778 0.12464,-0.10978 0.18374,-0.20011l-0.36767,0c0.05906,0.09046 0.13797,0.1624 0.18393,0.20011zm-0.18362,-0.65216l0.36736,0c-0.05903,-0.09026 -0.13784,-0.16226 -0.18369,-0.2c-0.04587,0.03774 -0.12463,0.10974 -0.18367,0.2zm0.18367,-0.3571c0.05181,-0.03061 0.12958,-0.08511 0.18815,-0.15146l-0.3763,0c0.05855,0.06635 0.13636,0.12085 0.18815,0.15146zm-0.24603,0.67875l0.49197,0c0.00923,-0.03102 0.01485,-0.063 0.01485,-0.09562c0,-0.03265 -0.00562,-0.0646 -0.01485,-0.09565l-0.49189,0c-0.00922,0.03105 -0.01486,0.063 -0.01486,0.09565c0,0.03264 0.0056,0.06462 0.01478,0.09562zm0.35958,0.40522c0.09386,0.06274 0.23744,0.18008 0.27564,0.33067c0.00138,0.00547 0.00204,0.01094 0.00202,0.01631c-0.00009,0.02907 -0.0197,0.05547 -0.04915,0.06296c-0.00539,0.00137 -0.01081,0.00201 -0.01611,0.00201c-0.02868,0.00003 -0.05474,-0.0191 -0.06267,-0.04782l-0.52658,0c-0.00795,0.02876 -0.03397,0.04789 -0.06263,0.04785c-0.00531,0 -0.0107,-0.00067 -0.01609,-0.00204c-0.02947,-0.00749 -0.0491,-0.03389 -0.04919,-0.06296c-0.00002,-0.00537 0.00064,-0.01084 0.00203,-0.01631c0.03821,-0.15059 0.18179,-0.26793 0.27563,-0.33067c-0.10418,-0.09188 -0.27764,-0.2783 -0.27764,-0.50083c0,-0.22258 0.17346,-0.40898 0.27764,-0.50086c-0.09384,-0.06274 -0.23742,-0.1801 -0.27563,-0.33073c-0.00139,-0.00544 -0.00205,-0.01091 -0.00203,-0.01629c0.00009,-0.02904 0.01972,-0.05545 0.04919,-0.06294c0.03455,-0.0088 0.06935,0.01181 0.07872,0.04581l0.52658,0c0.00788,-0.02846 0.03346,-0.04754 0.06185,-0.04787l0.00159,0c0.00505,0.00007 0.0102,0.00075 0.01534,0.00206c0.02945,0.00749 0.04906,0.0339 0.04915,0.06294c0.00002,0.00538 -0.00064,0.01085 -0.00202,0.01629c-0.0382,0.15063 -0.18178,0.26799 -0.27564,0.33073c0.10416,0.09188 0.27764,0.27828 0.27764,0.50086c0,0.22253 -0.17348,0.40895 -0.27764,0.50083z" id="svg_5"/>
  </g>
 </g>
</svg>