<?xml version="1.0" encoding="UTF-8"  standalone="no"?>
<!DOCTYPE svg PUBLIC "-//W3C//DTD SVG 1.1//EN" "http://www.w3.org/Graphics/SVG/1.1/DTD/svg11.dtd">
<!-- Creator: CorelDRAW -->
<svg id="svg2" xmlns="http://www.w3.org/2000/svg" xml:space="preserve" width="15.6943mm" height="16.8382mm" style="shape-rendering:geometricPrecision; text-rendering:geometricPrecision; image-rendering:optimizeQuality; fill-rule:evenodd; clip-rule:evenodd "
viewBox="0 0 4.63564 4.97352"
 xmlns:xlink="http://www.w3.org/1999/xlink">
 <title id="title4">neo4j-outline-32px</title>

 <g id="图层_x0020_1">
  <metadata id="CorelCorpID_0Corel-Layer"/>
  <g id="_237128456">
   <defs>
  <style type="text/css">
   <![CDATA[
    .str16666 {stroke:currentColor;stroke-width:0.177223}
    .fil06666 {fill:none}
   ]]>
  </style>
 </defs>
   <circle id="_237382064" class="fil06666 str16666" cx="2.31003" cy="0.589593" r="0.500982"/>
   <circle id="_237381656" class="fil06666 str16666" cx="2.31003" cy="4.38392" r="0.500982"/>
   <circle id="_237128720" class="fil06666 str16666" cx="2.30951" cy="2.47654" r="0.500982"/>
   <circle id="_237128672" class="fil06666 str16666" cx="0.589585" cy="2.47654" r="0.500982"/>
   <circle id="_237128480" class="fil06666 str16666" cx="4.04602" cy="2.47654" r="0.500982"/>
   <path id="_237128288" class="fil06666 str16666" d="M0.961255 1.30891c0.042238,-0.236474 0.248998,-0.41603 0.497582,-0.41603 0.279155,0 0.505527,0.226372 0.505527,0.505498 0,0.133065 -0.0486476,0.264505 -0.110794,0.380142 0,0 -0.290704,0.449614 -0.248082,0.748057 0.0426516,0.298443 0.162808,0.554264 0.232575,0.639537 0.0780075,0.0953457 0.126301,0.24436 0.126301,0.36756 0,0.250799 -0.182716,0.459036 -0.422262,0.498704 -0.05934,0.00983585 -0.127955,0.0117853 -0.18629,-0.00369214 -0.340533,-0.0705346 -0.497198,-0.456496 -0.338672,-0.740849 0.0542301,-0.114072 0.149871,-0.312502 0.192995,-0.385282 0.0620279,-0.10465 0.127925,-0.503873 0.0814042,-0.643407 -0.0407021,-0.122106 -0.140744,-0.288725 -0.243031,-0.468665 -0.0793071,-0.139563 -0.115756,-0.322043 -0.0872526,-0.481573z"/>
   <path id="_237128264" class="fil06666 str16666" d="M2.70058 1.32562c0.042238,-0.236444 0.248998,-0.41603 0.497582,-0.41603 0.279155,0 0.505527,0.226372 0.505527,0.505498 0,0.133094 -0.0486476,0.264505 -0.110794,0.380142 0,0 -0.290704,0.449614 -0.248082,0.748057 0.0426516,0.298472 0.162808,0.554264 0.232575,0.639537 0.0780075,0.0953457 0.126301,0.24436 0.126301,0.367589 0,0.25077 -0.182716,0.459006 -0.422262,0.498704 -0.05934,0.00980632 -0.127955,0.0117558 -0.18629,-0.00372167 -0.340533,-0.0705346 -0.497198,-0.456496 -0.338672,-0.740849 0.0542301,-0.114072 0.149871,-0.312502 0.192995,-0.385282 0.0620279,-0.10465 0.127925,-0.503873 0.0814042,-0.643407 -0.0407021,-0.122106 -0.140744,-0.288696 -0.243031,-0.468665 -0.0793071,-0.139563 -0.115756,-0.322043 -0.0872526,-0.481573z"/>
  </g>
 </g>
</svg>
