<?xml version="1.0" encoding="UTF-8"?>
<!DOCTYPE svg PUBLIC "-//W3C//DTD SVG 1.1//EN" "http://www.w3.org/Graphics/SVG/1.1/DTD/svg11.dtd">
<!-- Creator: CorelDRAW -->
<svg xmlns="http://www.w3.org/2000/svg" xml:space="preserve" width="11.3773mm" height="11.282mm" style="shape-rendering:geometricPrecision; text-rendering:geometricPrecision; image-rendering:optimizeQuality; fill-rule:evenodd; clip-rule:evenodd"
viewBox="0 0 2.76387 2.74072"
 xmlns:xlink="http://www.w3.org/1999/xlink">
 <defs>
  <style type="text/css">
   <![CDATA[
    .str3133 {stroke:currentColor;stroke-width:0.0485856}
    .str2133 {stroke:currentColor;stroke-width:0.123237;stroke-linecap:round;stroke-linejoin:round}
    .str0133 {stroke:currentColor;stroke-width:0.242928}
    .str1133 {stroke:currentColor;stroke-width:0.242928;stroke-linecap:round;stroke-linejoin:round}
    .fil0133 {fill:none}
    .fil1133 {fill:currentColor}
   ]]>
  </style>
 </defs>
 <g id="图层_x0020_1">
  <metadata id="CorelCorpID_0Corel-Layer"/>
  <g id="_237129296">
   <path id="_237129224" class="fil0133 str0133" d="M0.409018 1.63338l0.0410549 0.0410792 0.616212 0.616187 0.0410549 0.0410792c0.208384,0 0.24096,-0.298559 0.164341,-0.451871l0.49295 -0.328633 0.0410792 -0.0410792c0.0417351,-0.0360991 0.050359,-0.0761337 0,-0.123237l-0.451871 -0.451871c-0.0666595,-0.0309248 -0.121416,-0.0172236 -0.164317,0.0410549l-0.328658 0.492974c-0.142599,-0.0713237 -0.451846,-0.0534442 -0.451846,0.164317z"/>
   <line id="_237129536" class="fil0133 str1133" x1="0.737627" y1="2.00309" x2="0.12144" y2= "2.61928" />
   <line id="_237129200" class="fil0133 str2133" x1="0.737627" y1="2.00309" x2="0.12144" y2= "2.61928" />
   <path id="_237129080" class="fil1133 str3133" d="M2.11382 0.650343c-0.0191913,-0.0756236 -0.0402775,-0.19699 -0.0328439,-0.311483l0.344181 0.34593c-0.114565,0.00682628 -0.235786,-0.0148429 -0.311337,-0.0344472zm-0.144372 0.143522c0.00719068,0.0766924 0.0130938,0.214967 -0.0158875,0.351906l-0.336261 -0.337986c0.137157,-0.0284226 0.275456,-0.0216935 0.352149,-0.0139198zm-0.767459 0.427675l0.33597 0.337695c-0.136939,0.0282768 -0.275213,0.0216692 -0.351833,0.0140413 -0.00723926,-0.0766681 -0.0131181,-0.214919 0.0158632,-0.351736zm-0.160284 0.495428c0.0192156,0.0756236 0.0402532,0.196966 0.0328439,0.311507l-0.344156 -0.345954c0.114516,-0.00685058 0.235786,0.0148429 0.311313,0.0344472zm0.398961 -0.846945l0.449927 0.452259c-0.0200659,0.0368765 -0.0443344,0.0712751 -0.0743117,0.101107 -0.0300016,0.0298559 -0.0645217,0.0539301 -0.101495,0.0738016l-0.449879 -0.452187c0.0200902,-0.0368522 0.0443344,-0.0712508 0.074336,-0.101107 0.0300259,-0.0298559 0.0645217,-0.0539786 0.101423,-0.0738745zm0.701382 -0.0400589c0.143522,0.0289085 0.382709,0.05359 0.556087,-0.0490472 0.00626755,-0.0037168 0.0119035,-0.0081138 0.0168349,-0.0130452 0.0266249,-0.0266492 0.0329897,-0.0688459 0.0129238,-0.102759 -0.00366822,-0.00621896 -0.00801663,-0.0117577 -0.0128752,-0.0166406 -0.0261877,-0.0264063 -0.0676312,-0.0328682 -0.101277,-0.0138955l-0.481605 -0.484083c0.019167,-0.033597 0.0129481,-0.0750162 -0.0133125,-0.10135 -0.00483427,-0.00485856 -0.0103973,-0.00920698 -0.016592,-0.0129238 -0.0338156,-0.0202359 -0.0760608,-0.0141141 -0.102856,0.012365 -0.00493144,0.00490715 -0.00937703,0.0105188 -0.0131424,0.0167863 -0.103487,0.172868 -0.0800448,0.412176 -0.0518895,0.55582 -0.179743,-0.0117334 -0.509761,-0.000704492 -0.714355,0.202845 -0.204594,0.20355 -0.217324,0.533495 -0.206513,0.71331 -0.143498,-0.0289085 -0.382685,-0.0535657 -0.556111,0.0490715 -0.00629184,0.00369251 -0.0119035,0.0081138 -0.0168349,0.0130452 -0.0266249,0.0266249 -0.0329411,0.0688459 -0.0128995,0.102783 0.0235397,0.0397916 0.0743117,0.0529341 0.114128,0.0304632l0.481605 0.484083c-0.0189727,0.0332569 -0.0130938,0.0742389 0.0125837,0.100645l0.00143328 0.00145757c0.00468851,0.00456705 0.0100086,0.00869683 0.0159118,0.0122193 0.0338156,0.0202359 0.0760365,0.0140898 0.102832,-0.0123893 0.00495574,-0.00490715 0.00937703,-0.0104945 0.0131181,-0.016762 0.103536,-0.172868 0.0801177,-0.412201 0.0519381,-0.555844 0.179743,0.0117091 0.509785,0.000704492 0.714379,-0.202845 0.204594,-0.20355 0.217275,-0.533519 0.206489,-0.71331z"/>
  </g>
 </g>
</svg>
