<svg width="22.6949" height="24.2502" xmlns="http://www.w3.org/2000/svg" xml:space="preserve" style="shape-rendering:geometricPrecision; text-rendering:geometricPrecision; image-rendering:optimizeQuality; fill-rule:evenodd; clip-rule:evenodd">
 <defs>

 </defs>
 <g>
  <title>background</title>
  <rect x="-1" y="-1" width="6.364404" height="6.6635" id="canvas_background" fill="none"/>
 </g>
 <g>
  <title>Layer 1</title>
  <g id="图层_x0020_1">
   <metadata id="CorelCorpID_0Corel-Layer"/>
   <polygon class="fil0 str0" points="9.77878,12.5837 11.0595,15.4212 14.1538,15.7624 11.8511,17.8574 12.4828,20.9057 9.77878,19.363 7.07469,20.9057 7.70638,17.8574 5.40363,15.7624 8.49802,15.4212 " id="svg_1"/>
   <g id="_237127352">
    <style type="text/css">
   <![CDATA[
    .str1 {stroke:#888;stroke-width:0.23982}
    .str0 {stroke:#888;stroke-width:0.899325;stroke-linecap:round;stroke-linejoin:round}
    .fil0 {fill:#888}
    .fil1 {fill:#888}
   ]]>
  </style>
    <path id="_237128408" class="fil1" d="m20.7784,9.06988c0.50614,0.11799 0.88266,0.94297 0.88266,1.63905l0,10.6414c0,0.60027 -0.10768,0.94333 -0.38515,1.2792c-0.21728,0.2632 -0.63756,0.56166 -1.10269,0.56166l-0.12603,0c-0.47868,0 -1.12703,-0.42388 -1.21037,-0.78181c-0.36524,-0.26752 -0.22699,-2.20203 -0.22699,-2.8999c0,-0.52113 0,-1.04226 0,-1.56339c0,-0.53936 0.08358,-1.13471 -0.45386,-1.13471l-0.0253,0c-0.27915,0 -0.50434,0.18394 -0.50434,0.45386l0,4.46329c0,0.26092 0.02902,0.48083 0.09137,0.69044c0.06176,0.20816 0.20073,0.4168 0.23646,0.57041l0.15325,0.20049c-0.06835,0.03417 0.01883,0.0265 -0.07758,0.0265l-15.7603,0c-0.82295,0 -1.23567,-0.41369 -1.23567,-1.23567l0,-14.7264c0,-0.30925 0.11571,-0.77558 0.32783,-0.83218c0.12974,-0.19365 0.4529,-0.25217 0.7817,-0.25217l5.09378,0c1.20414,0 1.10953,0.79656 1.10953,1.96688c0,0.51274 0,1.02547 0,1.53821c0,0.24786 -0.01907,0.55159 0.02314,0.75867c0.05492,0.26968 0.16428,0.38324 0.20373,0.55267c0.11955,0.07998 0.21631,0.24737 0.40805,0.37376c0.13082,0.08621 0.3674,0.18418 0.55171,0.20468c0.3933,0.04365 1.08603,0.00144 1.51147,0.00144c1.00868,0 2.01737,0 3.02605,0c0.50434,0 1.00868,0 1.51302,0c0.35457,0 1.20881,-0.04352 1.50343,0.00948c0.51021,0.09185 0.53899,0.39006 0.53899,0.97402c0,0.51993 -0.0584,1.05905 0.45398,1.05905l0.07566,0c0.24462,0 0.45386,-0.20924 0.45386,-0.45385l0,-1.16001c0,-0.60255 -0.3957,-0.82187 -0.60518,-1.13471c-0.09809,-0.02279 -0.26476,-0.14725 -0.40626,-0.19894c-0.14641,-0.05347 -0.30409,-0.07914 -0.50158,-0.07842c-0.39487,0.00144 -0.79021,0 -1.18519,0c-0.7817,0 -1.56339,0 -2.34508,0c-0.7817,0 -1.56339,0 -2.3452,0c-0.65627,0 -1.89122,0.21572 -1.89122,-0.45386l0,-1.23567c0,-0.05803 0.01762,-0.07566 0.07566,-0.07566l10.3641,0c0.32508,0 0.88278,0.08058 1.00856,0.25217l0,0.00002zm0.83218,14.65078c0.05587,-0.08333 0.33131,-0.30709 0.43539,-0.42196c0.10192,-0.1126 0.28095,-0.38071 0.34258,-0.51489c0.1891,-0.41178 0.30637,-0.78709 0.30637,-1.38304l0,-10.5406c0,-0.65507 -0.08381,-1.09898 -0.30265,-1.53821c-0.08238,-0.1656 -0.24594,-0.43576 -0.3716,-0.56142c-0.0765,-0.07663 -0.43504,-0.40914 -0.46058,-0.44727c-0.11811,-0.03153 -0.47184,-0.27423 -0.70243,-0.35661c-0.25577,-0.09137 -0.5565,-0.14773 -0.91131,-0.14773c-0.71455,0.00024 -1.42897,0 -2.14351,0c-1.42885,0 -2.85782,0 -4.28678,0c-0.71443,0 -1.42885,0 -2.14339,0c-0.35302,0 -0.70603,0 -1.05905,0c-0.17651,0 -0.35302,0 -0.52953,0c-0.18046,0 -0.44462,0.05948 -0.45614,-0.09868c-0.06798,-0.9377 0.109,-1.13207 -0.37172,-1.77167c-0.25864,-0.34415 -0.80315,-0.75208 -1.3912,-0.75208l-5.74945,0c-0.87918,0 -1.76508,0.88589 -1.76508,1.76508l0,15.2812c0,0.84405 0.58924,1.56734 1.19478,1.80597c0.69896,0.27531 1.90393,0.16092 2.83983,0.16092c2.00885,0 4.01783,0 6.02668,0c1.94242,0 3.94624,0 5.95114,0c1.00029,0 2.00058,0 3.00075,0c0.48372,0 1.04286,0.03753 1.47262,-0.04029c0.26309,-0.04773 0.36369,-0.09077 0.58037,-0.17615c0.17711,-0.06979 0.36716,-0.22879 0.49391,-0.2626l0,0.00003z"/>
    <path id="_237127400" class="fil1" d="m21.6105,23.7207c-0.12674,0.03381 -0.3168,0.19282 -0.49391,0.2626c-0.21668,0.08538 -0.31728,0.12843 -0.58036,0.17615c-0.42976,0.07782 -0.9889,0.04029 -1.47262,0.04029c-1.00017,0 -2.00046,0 -3.00075,0c-2.0049,0 -4.00871,0 -5.95114,0c-2.00885,0 -4.01783,0 -6.02668,0c-0.9359,0 -2.14087,0.11439 -2.83983,-0.16092c-0.60555,-0.23862 -1.19478,-0.96192 -1.19478,-1.80597l0,-15.2812c0,-0.87918 0.88589,-1.76508 1.76508,-1.76508l5.74945,0c0.58804,0 1.13255,0.40794 1.3912,0.75208c0.48072,0.6396 0.30373,0.83397 0.37172,1.77167c0.01151,0.15816 0.27567,0.09868 0.45614,0.09868c0.1765,0 0.35301,0 0.52952,0c0.35301,0 0.70603,0 1.05905,0c0.71454,0 1.42897,0 2.14339,0c1.42897,0 2.85794,0 4.28678,0c0.71454,0 1.42897,0.00024 2.14351,0c0.35481,0 0.65555,0.05636 0.91131,0.14773c0.23059,0.08238 0.58433,0.32508 0.70244,0.35661c-0.21752,-0.32483 -1.17979,-0.5547 -1.79026,-0.5547l-10.3892,0l0,-0.60519c0,-1.19322 -0.86347,-2.01737 -2.06773,-2.01737l-5.2451,0c-1.23891,0 -2.06773,0.83062 -2.06773,2.06773l0,14.8274c0,1.28735 0.84776,2.21906 2.11821,2.21906l17.8785,0c0.53024,0 1.42681,-0.25013 1.61387,-0.52952l-0.00008,-0.00005z"/>
    <path id="_237127952" class="fil1" d="m18.0046,10.8603c-0.2891,-0.39462 -1.28651,-0.32783 -1.99207,-0.32783c-0.77342,0 -1.54672,0 -2.32002,0c-0.7733,0 -1.5466,0 -2.3199,0c-0.38659,0 -0.7733,0 -1.15989,0c-0.37616,0 -0.83218,0.05036 -0.83218,-0.32772l0,-1.33652l10.4648,0c0.14713,0 0.40626,0.01535 0.50818,0.04653c0.14701,0.04508 0.32328,0.13154 0.42484,0.15516c-0.12578,-0.17159 -0.68348,-0.25217 -1.00856,-0.25217l-10.3641,0c-0.05803,0 -0.07566,0.01763 -0.07566,0.07566l0,1.23567c0,0.66958 1.23495,0.45386 1.89122,0.45386c0.78181,0 1.56351,0 2.3452,0c0.78169,0 1.56339,0 2.34508,0c0.39498,0 0.79033,0.00144 1.18519,0c0.19749,-0.00072 0.35517,0.02494 0.50158,0.07842c0.1415,0.05168 0.30817,0.17615 0.40626,0.19893l0.00003,0.00001z"/>
    <path id="_237127832" class="fil1" d="m17.6011,15.248c0,0.22987 0.22591,0.47904 0.42868,0.47904l0.17651,0c0.17075,0 0.42867,-0.23586 0.42867,-0.4035l0,-0.1765c0,-0.24822 -0.25696,-0.47905 -0.50434,-0.47905l-0.05036,0c-0.20505,0 -0.47916,0.2523 -0.47916,0.45386l0,0.12615z"/>
    <path id="_237127928" class="fil1" d="m17.9541,22.9894c-0.03573,-0.1536 -0.17471,-0.36225 -0.23646,-0.57041c-0.06236,-0.20961 -0.09137,-0.42952 -0.09137,-0.69044l0,-4.46329c0,-0.26992 0.22519,-0.45386 0.50434,-0.45386l0.0253,0c0.53744,0 0.45386,0.59535 0.45386,1.13471c0,0.52113 0,1.04226 0,1.56339c0,0.69787 -0.13826,2.63239 0.22699,2.8999c-0.04988,-0.2138 -0.15385,-0.31968 -0.17675,-0.63013c-0.01715,-0.23179 0.00024,-0.54151 0.00024,-0.78193c0,-0.52953 0,-1.05905 0,-1.58869c0,-0.52953 0,-1.05905 0,-1.58857c0,-0.55663 0.01151,-1.05917 -0.52964,-1.05917l-0.02518,0c-0.30062,0 -0.52953,0.26596 -0.52953,0.58l0,4.38763c0,0.3716 0.18994,1.12296 0.3782,1.26085l0,0.00001z"/>
    <path id="_237127376" class="fil1" d="m1.3617,6.42214c0.13118,-0.03501 0.26176,-0.20169 0.50434,-0.20169l5.64848,0c0.37724,0 0.68253,0.35302 0.76239,0.67497c0.05612,0.22663 0.01931,1.11924 0.01931,1.44324c0,0.74309 -0.1192,2.35707 0.27735,2.64773c-0.03945,-0.16943 -0.14881,-0.28298 -0.20373,-0.55266c-0.04221,-0.20709 -0.02314,-0.51082 -0.02314,-0.75867c0,-0.51274 0,-1.02547 0,-1.53821c0,-1.17032 0.09461,-1.96688 -1.10953,-1.96688l-5.09378,0c-0.3288,0 -0.65195,0.05852 -0.7817,0.25217l0.00001,0z"/>
   </g>
   <path class="fil1 str1" d="m4.68632,11.1272c-0.38107,0.22555 -0.95365,0.62641 -1.38448,1.11444l2.76884,0c-0.43096,-0.48803 -1.00329,-0.88889 -1.38436,-1.11444zm-0.00048,-1.15497c0.33719,-0.27795 0.91707,-0.80771 1.35199,-1.47226l-2.70529,0c0.43467,0.6655 1.01516,1.19478 1.3533,1.47226zm-1.35091,-4.79856l2.70289,0c-0.43431,-0.66418 -1.0142,-1.19382 -1.35151,-1.47154c-0.33755,0.27771 -0.91707,0.80735 -1.35139,1.47154l0.00001,0zm1.35139,-2.62747c0.38107,-0.22531 0.95341,-0.62641 1.38436,-1.11456l-2.76884,0c0.43084,0.48815 1.00341,0.88925 1.38448,1.11456zm-1.81028,4.99413l3.61972,0c0.06811,-0.22819 0.10936,-0.46357 0.10936,-0.70351c0,-0.24018 -0.04125,-0.47533 -0.10936,-0.70375l-3.61924,0c-0.06787,0.22842 -0.10924,0.46357 -0.10924,0.70375c0,0.24018 0.04113,0.47556 0.10876,0.70351zm2.6457,2.98168c0.69056,0.46165 1.74709,1.32501 2.02816,2.43309c0.01019,0.04017 0.01499,0.08046 0.01487,0.12003c-0.0006,0.2138 -0.14497,0.40817 -0.36165,0.46309c-0.03957,0.0102 -0.0795,0.01487 -0.11847,0.01487c-0.21104,0.00024 -0.4029,-0.14053 -0.46117,-0.35181l-3.87453,0c-0.05852,0.21152 -0.25002,0.35229 -0.46094,0.35205c-0.03897,0 -0.07866,-0.00491 -0.11835,-0.01511c-0.2168,-0.05492 -0.36129,-0.24929 -0.36189,-0.46309c-0.00012,-0.03957 0.00468,-0.07986 0.01487,-0.12003c0.28119,-1.10809 1.3376,-1.97144 2.02816,-2.43309c-0.76646,-0.67617 -2.04291,-2.0477 -2.04291,-3.6852c0,-1.63761 1.27644,-3.00926 2.04291,-3.68532c-0.69056,-0.46153 -1.74697,-1.32513 -2.02816,-2.43333c-0.01019,-0.04017 -0.01499,-0.08034 -0.01487,-0.11991c0.0006,-0.2138 0.14509,-0.40817 0.36189,-0.46321c0.25421,-0.06463 0.51022,0.08693 0.57929,0.33707l3.87453,0c0.05791,-0.20937 0.24617,-0.34978 0.45517,-0.35218l0.01163,0c0.03718,0.0006 0.07507,0.00551 0.11284,0.01511c0.21668,0.05504 0.36105,0.24941 0.36165,0.46321c0.00012,0.03957 -0.00468,0.07974 -0.01487,0.11991c-0.28107,1.10821 -1.3376,1.9718 -2.02816,2.43333c0.76646,0.67605 2.04291,2.0477 2.04291,3.68532c0,1.63749 -1.27644,3.00902 -2.04291,3.6852z" id="svg_2"/>
  </g>
 </g>
</svg>