<?xml version="1.0" encoding="UTF-8"?>
<!DOCTYPE svg PUBLIC "-//W3C//DTD SVG 1.1//EN" "http://www.w3.org/Graphics/SVG/1.1/DTD/svg11.dtd">
<!-- Creator: CorelDRAW -->
<svg xmlns="http://www.w3.org/2000/svg" xml:space="preserve" width="18.9266mm" height="20.2237mm" style="shape-rendering:geometricPrecision; text-rendering:geometricPrecision; image-rendering:optimizeQuality; fill-rule:evenodd; clip-rule:evenodd"
viewBox="0 0 22.6949 24.2502"
 xmlns:xlink="http://www.w3.org/1999/xlink">
 <title>rating-star</title>
 <defs>
  <style type="text/css">
   <![CDATA[
    .str155 {stroke:currentColor;stroke-width:0.23982}
    .str055 {stroke:currentColor;stroke-width:0.899325;stroke-linecap:round;stroke-linejoin:round}
    .fil055 {fill:none}
    .fil155 {fill:currentColor}
   ]]>
  </style>
 </defs>
 <g id="图层_x0020_1">
  <metadata id="CorelCorpID_0Corel-Layer"/>
  <polygon class="fil055 str055" points="9.77878,12.5837 11.0595,15.4212 14.1538,15.7624 11.8511,17.8574 12.4828,20.9057 9.77878,19.363 7.07469,20.9057 7.70638,17.8574 5.40363,15.7624 8.49802,15.4212 "/>
  <g id="_237127352">
   <path id="_237128408" class="fil155" d="M20.7784 9.06988c0.50614,0.117991 0.882658,0.942973 0.882658,1.63905l0 10.6414c0,0.60027 -0.107679,0.943332 -0.385151,1.2792 -0.217277,0.263203 -0.637562,0.561659 -1.10269,0.561659l-0.126025 0c-0.478681,0 -1.12703,-0.423882 -1.21037,-0.781813 -0.365246,-0.267519 -0.22699,-2.20203 -0.22699,-2.8999 0,-0.521129 0,-1.04226 0,-1.56339 0,-0.539355 0.0835773,-1.13471 -0.453859,-1.13471l-0.025301 0c-0.279151,0 -0.504342,0.183942 -0.504342,0.453859l0 4.46329c0,0.260924 0.0290182,0.480839 0.0913714,0.690442 0.0617537,0.208164 0.200729,0.416807 0.236463,0.570412l0.153245 0.20049c-0.0683487,0.0341744 0.0188259,0.0265001 -0.0775818,0.0265001l-15.7603 0c-0.822943,0 -1.23567,-0.41369 -1.23567,-1.23567l0 -14.7264c0,-0.309248 0.115713,-0.775578 0.327834,-0.832176 0.129743,-0.193655 0.4529,-0.252171 0.781694,-0.252171l5.09378 0c1.20414,0 1.10953,0.796562 1.10953,1.96688 0,0.512735 0,1.02547 0,1.53821 0,0.247854 -0.0190657,0.551586 0.0231426,0.758671 0.0549188,0.269678 0.164277,0.383232 0.203727,0.552665 0.11955,0.07998 0.216318,0.247374 0.408054,0.37376 0.130822,0.0862153 0.367404,0.184182 0.551706,0.204686 0.393305,0.0436473 1.08603,0.00143892 1.51147,0.00143892 1.00868,0 2.01737,0 3.02605,0 0.504342,0 1.00868,0 1.51302,0 0.354574,0 1.20881,-0.0435273 1.50343,0.00947289 0.510217,0.0918511 0.538996,0.390067 0.538996,0.974029 0,0.51993 -0.0583962,1.05905 0.453979,1.05905l0.0756632 0c0.244616,0 0.453859,-0.209243 0.453859,-0.453859l0 -1.16001c0,-0.602548 -0.395703,-0.821863 -0.605186,-1.13471 -0.0980864,-0.0227829 -0.264761,-0.14725 -0.406255,-0.198931 -0.14641,-0.0534799 -0.304092,-0.0791406 -0.501584,-0.0784212 -0.394864,0.00143892 -0.790207,0 -1.18519,0 -0.781694,0 -1.56339,0 -2.34508,0 -0.781694,0 -1.56339,0 -2.3452,0 -0.656268,0 -1.89122,0.215718 -1.89122,-0.453859l0 -1.23567c0,-0.0580365 0.0176268,-0.0756632 0.0756632,-0.0756632l10.3641 0c0.325076,0 0.882778,0.0805795 1.00856,0.252171zm0.832176 14.6508c0.0558781,-0.0833375 0.331311,-0.30709 0.435393,-0.421963 0.101924,-0.112596 0.280949,-0.380714 0.342583,-0.514894 0.189098,-0.411771 0.30637,-0.787089 0.30637,-1.38304l0 -10.5406c0,-0.655069 -0.0838171,-1.09898 -0.302653,-1.53821 -0.0823782,-0.165596 -0.245935,-0.435753 -0.371601,-0.561419 -0.0765026,-0.0766225 -0.435034,-0.409133 -0.460574,-0.447264 -0.118111,-0.0315363 -0.471846,-0.274234 -0.702433,-0.356612 -0.255768,-0.0913714 -0.556502,-0.147729 -0.911316,-0.147729 -0.714544,0.00023982 -1.42897,0 -2.14351,0 -1.42885,0 -2.85782,0 -4.28678,0 -0.714424,0 -1.42885,0 -2.14339,0 -0.353015,0 -0.70603,0 -1.05905,0 -0.176508,0 -0.353015,0 -0.529523,0 -0.180465,0 -0.444626,0.0594754 -0.456138,-0.098686 -0.067989,-0.937696 0.108998,-1.13207 -0.371721,-1.77167 -0.258646,-0.344142 -0.803157,-0.752076 -1.3912,-0.752076l-5.74945 0c-0.87918,0 -1.76508,0.885895 -1.76508,1.76508l0 15.2812c0,0.844047 0.589238,1.56734 1.19478,1.80597 0.698956,0.275313 1.90393,0.160919 2.83983,0.160919 2.00885,0 4.01783,0 6.02668,0 1.94242,0 3.94624,0 5.95114,0 1.00029,0 2.00058,0 3.00075,0 0.483717,0 1.04286,0.0375318 1.47262,-0.0402898 0.263083,-0.0477242 0.363687,-0.0907719 0.580365,-0.176148 0.177107,-0.0697876 0.367165,-0.228788 0.493909,-0.262603z"/>
   <path id="_237127400" class="fil155" d="M21.6105 23.7207c-0.126745,0.0338146 -0.316802,0.192815 -0.493909,0.262603 -0.216677,0.0853759 -0.317282,0.128424 -0.580365,0.176148 -0.429758,0.0778216 -0.988898,0.0402898 -1.47262,0.0402898 -1.00017,0 -2.00046,0 -3.00075,0 -2.0049,0 -4.00871,0 -5.95114,0 -2.00885,0 -4.01783,0 -6.02668,0 -0.935898,0 -2.14087,0.114394 -2.83983,-0.160919 -0.605546,-0.238621 -1.19478,-0.961918 -1.19478,-1.80597l0 -15.2812c0,-0.87918 0.885895,-1.76508 1.76508,-1.76508l5.74945 0c0.588039,0 1.13255,0.407934 1.3912,0.752076 0.480719,0.6396 0.303732,0.833974 0.371721,1.77167 0.0115114,0.158161 0.275673,0.098686 0.456138,0.098686 0.176508,0 0.353015,0 0.529523,0 0.353015,0 0.70603,0 1.05905,0 0.714544,0 1.42897,0 2.14339,0 1.42897,0 2.85794,0 4.28678,0 0.714544,0 1.42897,0.00023982 2.14351,0 0.354814,0 0.655548,0.0563577 0.911316,0.147729 0.230587,0.0823782 0.584322,0.325076 0.702433,0.356612 -0.217517,-0.324836 -1.17979,-0.554704 -1.79026,-0.554704l-10.3892 0 0 -0.605186c0,-1.19322 -0.863472,-2.01737 -2.06773,-2.01737l-5.2451 0c-1.23891,0 -2.06773,0.830617 -2.06773,2.06773l0 14.8274c0,1.28735 0.847764,2.21906 2.11821,2.21906l17.8785 0c0.530242,0 1.42681,-0.250132 1.61387,-0.529523z"/>
   <path id="_237127952" class="fil155" d="M18.0046 10.8603c-0.289103,-0.394624 -1.28651,-0.327834 -1.99207,-0.327834 -0.77342,0 -1.54672,0 -2.32002,0 -0.7733,0 -1.5466,0 -2.3199,0 -0.38659,0 -0.7733,0 -1.15989,0 -0.376158,0 -0.832176,0.0503622 -0.832176,-0.327714l0 -1.33652 10.4648 0c0.14713,0 0.406255,0.0153485 0.508179,0.0465251 0.14701,0.0450862 0.323277,0.131541 0.424841,0.155164 -0.125786,-0.171591 -0.683487,-0.252171 -1.00856,-0.252171l-10.3641 0c-0.0580365,0 -0.0756632,0.0176268 -0.0756632,0.0756632l0 1.23567c0,0.669578 1.23495,0.453859 1.89122,0.453859 0.781813,0 1.56351,0 2.3452,0 0.781694,0 1.56339,0 2.34508,0 0.394984,0 0.790327,0.00143892 1.18519,0 0.197492,-0.00071946 0.355174,0.0249413 0.501584,0.0784212 0.141494,0.0516812 0.308169,0.176148 0.406255,0.198931z"/>
   <path id="_237127832" class="fil155" d="M17.6011 15.248c0,0.229868 0.225911,0.479041 0.428678,0.479041l0.176508 0c0.170752,0 0.428678,-0.235863 0.428678,-0.403497l0 -0.176508c0,-0.248214 -0.256967,-0.479041 -0.504342,-0.479041l-0.0503622 0c-0.205046,0 -0.479161,0.252291 -0.479161,0.453859l0 0.126145z"/>
   <path id="_237127928" class="fil155" d="M17.9541 22.9894c-0.0357332,-0.153605 -0.174709,-0.362248 -0.236463,-0.570412 -0.0623532,-0.209603 -0.0913714,-0.429518 -0.0913714,-0.690442l0 -4.46329c0,-0.269917 0.225191,-0.453859 0.504342,-0.453859l0.025301 0c0.537437,0 0.453859,0.595353 0.453859,1.13471 0,0.521129 0,1.04226 0,1.56339 0,0.697876 -0.138256,2.63239 0.22699,2.8999 -0.0498826,-0.2138 -0.153845,-0.31968 -0.176747,-0.630127 -0.0171471,-0.231786 0.00023982,-0.541514 0.00023982,-0.781933 0,-0.529523 0,-1.05905 0,-1.58869 0,-0.529523 0,-1.05905 0,-1.58857 0,-0.556622 0.0115114,-1.05917 -0.529643,-1.05917l-0.0251811 0c-0.300614,0 -0.529523,0.26596 -0.529523,0.580005l0 4.38763c0,0.371601 0.189937,1.12296 0.378196,1.26085z"/>
   <path id="_237127376" class="fil155" d="M1.3617 6.42214c0.131182,-0.0350137 0.261764,-0.201689 0.504342,-0.201689l5.64848 0c0.377237,0 0.682528,0.353015 0.762388,0.674974 0.0561179,0.22663 0.0193055,1.11924 0.0193055,1.44324 0,0.743082 -0.119191,2.35707 0.277352,2.64773 -0.0394504,-0.169433 -0.148808,-0.282988 -0.203727,-0.552665 -0.0422083,-0.207085 -0.0231426,-0.510817 -0.0231426,-0.758671 0,-0.512735 0,-1.02547 0,-1.53821 0,-1.17032 0.094609,-1.96688 -1.10953,-1.96688l-5.09378 0c-0.328793,0 -0.651951,0.0585161 -0.781694,0.252171z"/>
  </g>
  <path class="fil155 str155" d="M4.68632 11.1272c-0.381074,0.225551 -0.953645,0.62641 -1.38448,1.11444l2.76884 0c-0.430957,-0.488034 -1.00329,-0.888893 -1.38436,-1.11444zm-0.00047964 -1.15497c0.337187,-0.277951 0.917072,-0.807714 1.35199,-1.47226l-2.70529 0c0.434674,0.665501 1.01516,1.19478 1.3533,1.47226zm-1.35091 -4.79856l2.70289 0c-0.434314,-0.664182 -1.0142,-1.19382 -1.35151,-1.47154 -0.337547,0.277712 -0.917072,0.807354 -1.35139,1.47154zm1.35139 -2.62747c0.381074,-0.225311 0.953405,-0.62641 1.38436,-1.11456l-2.76884 0c0.430837,0.488154 1.00341,0.889253 1.38448,1.11456zm-1.81028 4.99413l3.61972 0c0.0681089,-0.228189 0.109358,-0.463572 0.109358,-0.703512 0,-0.24018 -0.0412491,-0.475323 -0.109358,-0.703752l-3.61924 0c-0.0678691,0.228429 -0.109238,0.463572 -0.109238,0.703752 0,0.24018 0.0411291,0.475563 0.108758,0.703512zm2.6457 2.98168c0.690562,0.461654 1.74709,1.32501 2.02816,2.43309 0.0101924,0.0401699 0.0149888,0.0804596 0.0148688,0.12003 -0.00059955,0.2138 -0.144971,0.408174 -0.361649,0.463093 -0.0395703,0.0101924 -0.0795004,0.0148688 -0.118471,0.0148688 -0.211042,0.00023982 -0.402898,-0.140535 -0.461174,-0.351816l-3.87453 0c-0.0585161,0.211521 -0.250012,0.352296 -0.460934,0.352056 -0.0389708,0 -0.078661,-0.00491631 -0.118351,-0.0151087 -0.216797,-0.0549188 -0.361289,-0.249293 -0.361888,-0.463093 -0.00011991,-0.0395703 0.00467649,-0.0798601 0.0148688,-0.12003 0.281189,-1.10809 1.3376,-1.97144 2.02816,-2.43309 -0.766465,-0.676173 -2.04291,-2.0477 -2.04291,-3.6852 0,-1.63761 1.27644,-3.00926 2.04291,-3.68532 -0.690562,-0.461534 -1.74697,-1.32513 -2.02816,-2.43333 -0.0101924,-0.0401699 -0.0149888,-0.0803397 -0.0148688,-0.11991 0.00059955,-0.2138 0.145091,-0.408174 0.361888,-0.463212 0.254209,-0.0646315 0.510217,0.0869348 0.579285,0.337067l3.87453 0c0.0579165,-0.209363 0.246175,-0.349778 0.455178,-0.352176l0.0116313 0c0.0371721,0.00059955 0.0750637,0.00551586 0.112835,0.0151087 0.216677,0.0550387 0.361049,0.249413 0.361649,0.463212 0.00011991,0.0395703 -0.00467649,0.0797402 -0.0148688,0.11991 -0.281069,1.10821 -1.3376,1.9718 -2.02816,2.43333 0.766465,0.676053 2.04291,2.0477 2.04291,3.68532 0,1.63749 -1.27644,3.00902 -2.04291,3.6852z"/>
 </g>
</svg>
