<?xml version="1.0" encoding="UTF-8"?>
<!DOCTYPE svg PUBLIC "-//W3C//DTD SVG 1.1//EN" "http://www.w3.org/Graphics/SVG/1.1/DTD/svg11.dtd">
<!-- Creator: CorelDRAW -->
<svg xmlns="http://www.w3.org/2000/svg" xml:space="preserve" width="11.2771mm" height="14.2525mm" style="shape-rendering:geometricPrecision; text-rendering:geometricPrecision; image-rendering:optimizeQuality; fill-rule:evenodd; clip-rule:evenodd"
viewBox="0 0 0.688197 0.869774"
 xmlns:xlink="http://www.w3.org/1999/xlink">
 <defs>
  <style type="text/css">
   <![CDATA[
    .str1171 {stroke:currentColor;stroke-width:0.0122052}
    .str0171 {stroke:currentColor;stroke-width:0.0457695}
    .fil0171 {fill:none}
    .fil1171 {fill:currentColor}
   ]]>
  </style>
 </defs>
 <g id="图层_x0020_1">
  <metadata id="CorelCorpID_0Corel-Layer"/>
  <path class="fil0171 str0171" d="M0.0228482 0.0841305l0.00563881 0.641378c0.000408874,0.0697284 0.0388919,0.0970863 0.123901,0.0397157l0.479476 -0.308053c0.0443415,-0.0255394 0.0460503,-0.0480214 -0.0028133,-0.0762581l-0.494073 -0.324829c-0.0721633,-0.0492724 -0.114235,-0.0469778 -0.112129,0.0280476z"/>
  <path class="fil1171 str1171" d="M0.179587 0.757431c-0.0166845,0.00987401 -0.041754,0.0274312 -0.0606233,0.0488025l0.121253 0c-0.0188815,-0.0213713 -0.0439388,-0.0389285 -0.0606294,-0.0488025zm-1.83078e-005 -0.0505784c0.0147683,-0.0121686 0.0401612,-0.0353646 0.0592014,-0.0644679l-0.118464 0c0.019034,0.0291399 0.0444575,0.0523237 0.0592624,0.0644679zm-0.0591586 -0.210131l0.11836 0c-0.0190157,-0.0290789 -0.0444087,-0.0522749 -0.0591831,-0.0644374 -0.0147744,0.0121625 -0.0401551,0.0353585 -0.059177,0.0644374zm0.059177 -0.115052c0.0166906,-0.00986791 0.0417479,-0.0274312 0.0606294,-0.0488086l-0.121253 0c0.0188693,0.0213774 0.0439388,0.0389407 0.0606233,0.0488086zm-0.0792728 0.218693l0.158515 0c0.00297807,-0.00999607 0.00478444,-0.0202973 0.00478444,-0.030812 0,-0.0105148 -0.00180637,-0.0208099 -0.00478444,-0.030812l-0.158491 0c-0.00297197,0.0100022 -0.00478444,0.0202973 -0.00478444,0.030812 0,0.0105209 0.00180027,0.0208282 0.00476003,0.030812zm0.115858 0.130565c0.0302445,0.0202179 0.0765083,0.0580236 0.0888173,0.106545 0.00044549,0.00175755 0.000652979,0.00352731 0.000646876,0.00526044 -2.44104e-005,0.00936139 -0.00634671,0.0178684 -0.0158363,0.020279 -0.00173314,0.00044549 -0.00347848,0.000652979 -0.00518721,0.000652979 -0.00923934,6.1026e-006 -0.0176426,-0.00615143 -0.0201935,-0.0154091l-0.169665 0c-0.00256309,0.00926375 -0.0109542,0.0154274 -0.0201874,0.0154152 -0.00170873,0 -0.00344797,-0.000213591 -0.00518111,-0.000659081 -0.00949565,-0.00241053 -0.015818,-0.0109176 -0.0158485,-0.020279 -6.1026e-006,-0.00173314 0.000207489,-0.00350289 0.000652979,-0.00526044 0.0123151,-0.0485218 0.0585728,-0.0863274 0.0888112,-0.106545 -0.0335643,-0.0296037 -0.0894581,-0.0896656 -0.0894581,-0.161377 0,-0.0717056 0.0558938,-0.131767 0.0894581,-0.161377 -0.0302384,-0.0202118 -0.0764961,-0.0580236 -0.0888112,-0.106558 -0.00044549,-0.00175755 -0.000659081,-0.0035151 -0.000652979,-0.00524824 3.0513e-005,-0.00936139 0.00635281,-0.0178745 0.0158485,-0.0202851 0.0111312,-0.00283161 0.0223416,0.00380803 0.0253685,0.0147622l0.169665 0c0.00253258,-0.00917221 0.0107833,-0.0153175 0.0199311,-0.0154213l0.000506516 0c0.0016294,2.44104e-005 0.0032893,0.000238002 0.00494311,0.000659081 0.00948955,0.00241053 0.0158118,0.0109237 0.0158363,0.0202851 6.1026e-006,0.00173314 -0.000201386,0.00349069 -0.000646876,0.00524824 -0.012309,0.048534 -0.0585728,0.0863457 -0.0888173,0.106558 0.0335643,0.0296098 0.0894642,0.0896717 0.0894642,0.161377 0,0.0717117 -0.0558999,0.131774 -0.0894642,0.161377z"/>
 </g>
</svg>
